<svg width="98" height="97" viewBox="0 0 98 97" fill="none" xmlns="http://www.w3.org/2000/svg">
<path opacity="0.56" d="M48.93 96.764C75.5816 96.764 97.187 75.1586 97.187 48.507C97.187 21.8554 75.5816 0.25 48.93 0.25C22.2784 0.25 0.672974 21.8554 0.672974 48.507C0.672974 75.1586 22.2784 96.764 48.93 96.764Z" fill="#F5ECFF"/>
<path opacity="0.8" d="M48.929 84.007C68.5351 84.007 84.429 68.1131 84.429 48.507C84.429 28.9009 68.5351 13.007 48.929 13.007C29.3229 13.007 13.429 28.9009 13.429 48.507C13.429 68.1131 29.3229 84.007 48.929 84.007Z" fill="#F8F2FF"/>
<path d="M58.638 54.1779L61.076 60.6779C63.1953 59.6778 65.1676 58.3922 66.938 56.8569C66.508 55.6039 66.138 54.6569 66.138 54.6569L58.638 54.1779Z" fill="#DA5742"/>
<path d="M39.487 60.7979L42.033 54.0049L34.536 54.4829C34.528 54.4909 34.081 55.6369 33.602 57.0719C35.3838 58.5775 37.364 59.8312 39.487 60.7979Z" fill="#DA5742"/>
<path d="M58.638 54.1779L59.481 56.3869L66.92 56.8489C66.515 55.6869 66.138 54.6559 66.138 54.6559L58.638 54.1779Z" fill="#C43D28"/>
<path d="M42.11 53.7659L41.264 55.9749L33.71 56.7089C34.115 55.5549 34.61 54.2439 34.61 54.2439L42.11 53.7659Z" fill="#C43D28"/>
<path d="M41.794 44.0039C38.521 45.4879 34.933 50.0719 33.611 55.4469H39.463L38.496 60.3279C42.1029 62.1649 46.0942 63.12 50.142 63.1149C54.2059 63.1218 58.2127 62.1581 61.829 60.3039L60.804 56.0749L66.722 55.5469C66.714 55.5469 65.35 47.9619 59.11 44.3759C54.111 41.5059 46.406 41.9379 41.794 44.0039Z" fill="#3D5CFF"/>
<path opacity="0.467" d="M42.719 50.5999C42.574 52.9829 42.446 55.3569 42.306 57.7399C42.231 59.0669 42.149 60.3939 42.074 61.7129C42.066 61.8699 42.314 61.8699 42.322 61.7129C42.463 59.3389 42.603 56.9729 42.735 54.5979C42.867 52.2229 43.008 49.8489 43.148 47.4749C43.222 46.1639 43.305 44.8529 43.379 43.5429C43.387 43.3859 43.139 43.3859 43.131 43.5509C42.991 45.9009 42.8536 48.2506 42.719 50.5999Z" fill="#CDECFE"/>
<path opacity="0.467" d="M45.992 50.5179C45.942 53.0979 45.892 55.6869 45.843 58.2669C45.819 59.7179 45.786 61.1769 45.761 62.6279C45.761 62.6608 45.7741 62.6924 45.7973 62.7156C45.8206 62.7389 45.8521 62.7519 45.885 62.7519C45.9179 62.7519 45.9494 62.7389 45.9727 62.7156C45.9959 62.6924 46.009 62.6608 46.009 62.6279C46.0583 60.0393 46.109 57.4509 46.161 54.8629L46.315 47.1209C46.34 45.6789 46.373 44.2279 46.397 42.7849C46.398 42.752 46.386 42.7201 46.3635 42.6961C46.341 42.6721 46.3099 42.658 46.277 42.6569C46.2441 42.6559 46.2121 42.6679 46.1881 42.6904C46.1641 42.7129 46.15 42.744 46.149 42.7769C46.0997 45.3569 46.0473 47.9373 45.992 50.5179Z" fill="#CDECFE"/>
<path opacity="0.467" d="M49.852 50.4929C49.894 53.1359 49.943 55.7849 49.984 58.4359C50.009 59.9279 50.034 61.4289 50.058 62.9209C50.058 62.9538 50.071 62.9854 50.0943 63.0086C50.1175 63.0319 50.1491 63.0449 50.182 63.0449C50.2149 63.0449 50.2464 63.0319 50.2697 63.0086C50.2929 62.9854 50.306 62.9538 50.306 62.9209C50.266 60.2699 50.22 57.6239 50.175 54.9769C50.13 52.3299 50.084 49.6849 50.042 47.0359C50.02 45.5459 49.993 44.0459 49.968 42.5529C49.968 42.52 49.9549 42.4885 49.9317 42.4652C49.9084 42.442 49.8769 42.4289 49.844 42.4289C49.8111 42.4289 49.7795 42.442 49.7563 42.4652C49.733 42.4885 49.72 42.52 49.72 42.5529C49.761 45.1999 49.811 47.8459 49.852 50.4929Z" fill="#CDECFE"/>
<path opacity="0.467" d="M53.572 46.2879C53.646 47.5879 53.737 48.8929 53.82 50.1959C53.911 51.5149 54.002 52.8259 54.109 54.1449C54.209 55.4449 54.316 56.7579 54.431 58.0609C54.5383 59.3142 54.654 60.5672 54.778 61.8199C54.795 61.9679 54.811 62.1199 54.819 62.2649C54.827 62.4099 55.083 62.4219 55.067 62.2649C54.943 61.0199 54.827 59.7749 54.72 58.5389C54.604 57.2389 54.497 55.9339 54.398 54.6389C54.298 53.3199 54.198 52.0089 54.109 50.6899C54.02 49.3709 53.936 48.0769 53.853 46.7659C53.778 45.5129 53.704 44.2519 53.638 42.9989L53.613 42.5539C53.605 42.3889 53.357 42.3889 53.365 42.5449C53.431 43.7899 53.497 45.0349 53.572 46.2879Z" fill="#CDECFE"/>
<path opacity="0.467" d="M57.795 50.2789C58.175 52.5789 58.5553 54.8819 58.936 57.1879C59.143 58.4409 59.349 59.7019 59.556 60.9559C59.581 61.1129 59.82 61.0469 59.796 60.8899C59.423 58.6219 59.051 56.3629 58.676 54.0959C58.298 51.7959 57.919 49.4929 57.539 47.1869C57.332 45.9299 57.125 44.6729 56.919 43.4199C56.886 43.2629 56.646 43.3299 56.676 43.4859C57.051 45.7529 57.423 48.0119 57.795 50.2789Z" fill="#CDECFE"/>
<path opacity="0.467" d="M39.09 49.1489C38.79 50.4489 38.503 51.7619 38.222 53.0649C38.057 53.8149 37.9 54.5659 37.74 55.3239C37.707 55.4809 37.947 55.5469 37.98 55.3899C38.256 54.0629 38.54 52.7439 38.834 51.4159C39.123 50.1159 39.421 48.8029 39.71 47.4999C39.884 46.7499 40.049 45.9999 40.21 45.2489C40.2117 45.2212 40.2037 45.1937 40.1873 45.1712C40.1709 45.1487 40.1472 45.1327 40.1202 45.126C40.0932 45.1192 40.0647 45.1221 40.0397 45.1341C40.0146 45.1462 39.9945 45.1666 39.983 45.1919L39.09 49.1489Z" fill="#CDECFE"/>
<path opacity="0.467" d="M61.647 49.4209C62.069 50.7569 62.498 52.0999 62.928 53.4359C63.168 54.1859 63.416 54.9359 63.672 55.6779C63.722 55.8259 63.961 55.7599 63.912 55.6119C63.466 54.2849 63.036 52.9489 62.606 51.6119C62.176 50.2749 61.754 48.9349 61.324 47.5989C61.085 46.8489 60.834 46.0989 60.58 45.3569C60.534 45.1999 60.291 45.2669 60.341 45.4229C60.787 46.7499 61.217 48.0849 61.647 49.4209Z" fill="#CDECFE"/>
<path d="M41.058 49.9159L37.578 55.4479L39.553 55.4399L41.058 49.9159Z" fill="#224BF4"/>
<path d="M60.804 56.0739L62.564 55.9229L58.638 49.2229L60.804 56.0739Z" fill="#224BF4"/>
<path d="M39.537 55.5299C39.5165 55.5239 39.4991 55.5103 39.4881 55.492C39.4772 55.4736 39.4736 55.4518 39.478 55.4309L41.133 49.3139C41.139 49.2935 41.1526 49.276 41.1709 49.2651C41.1893 49.2542 41.2111 49.2505 41.232 49.2549C41.2525 49.2612 41.2698 49.275 41.2806 49.2936C41.2913 49.3121 41.2947 49.334 41.29 49.3549L39.637 55.4729C39.6325 55.4893 39.6228 55.5037 39.6095 55.5141C39.5962 55.5246 39.5799 55.5305 39.563 55.5309L39.537 55.5299Z" fill="#1F1F39"/>
<path d="M60.647 56.0739L58.531 49.2189C58.5274 49.2091 58.5259 49.1986 58.5265 49.1882C58.5271 49.1778 58.5298 49.1675 58.5345 49.1582C58.5392 49.1488 58.5457 49.1405 58.5537 49.1338C58.5617 49.127 58.571 49.122 58.581 49.1189C58.5908 49.1153 58.6012 49.1138 58.6116 49.1143C58.622 49.1148 58.6321 49.1175 58.6415 49.1221C58.6508 49.1266 58.6592 49.1331 58.6659 49.1409C58.6727 49.1488 58.6779 49.158 58.681 49.1679L60.804 56.0239C60.8076 56.0338 60.8091 56.0442 60.8085 56.0547C60.8079 56.0651 60.8052 56.0753 60.8005 56.0847C60.7958 56.094 60.7893 56.1024 60.7813 56.1091C60.7733 56.1159 60.764 56.1209 60.754 56.1239C60.737 56.1239 60.729 56.1319 60.721 56.1319C60.7041 56.1315 60.6878 56.1256 60.6744 56.1151C60.6611 56.1047 60.6515 56.0903 60.647 56.0739Z" fill="#1F1F39"/>
<path d="M46.2399 39.9479C45.4959 39.7829 45.4129 39.3709 45.4129 39.3709C45.4129 39.3709 45.1649 39.8659 43.6769 39.7009C43.2369 39.6397 42.8212 39.4624 42.4725 39.1871C42.1238 38.9119 41.8547 38.5487 41.6929 38.1349C41.6929 38.1349 39.875 37.8049 39.544 36.8159C39.3559 36.3742 39.2711 35.8954 39.2959 35.4159C38.6324 34.8548 38.217 34.0545 38.1399 33.1889C38.2229 32.0349 38.64 31.7889 38.64 31.7889C38.64 31.7889 37.9789 31.2119 38.1399 30.7169C38.1698 30.5872 38.231 30.4668 38.3182 30.3663C38.4054 30.2657 38.5158 30.188 38.64 30.1399C38.64 30.1399 36.9009 28.4059 37.4789 26.5099C38.0569 24.6139 39.4609 24.6139 39.4609 24.6139C39.3967 24.4051 39.4122 24.1798 39.5046 23.9817C39.597 23.7836 39.7596 23.6269 39.9609 23.5419C40.7049 23.1299 41.035 23.2119 41.035 23.2119C41.035 23.2119 40.87 21.1509 41.944 20.6559C42.5609 20.3604 43.2573 20.2737 43.9279 20.4089C43.9279 20.4089 43.845 19.2549 44.589 19.1719C44.7886 19.1397 44.9932 19.1614 45.1816 19.2347C45.3701 19.308 45.5355 19.4303 45.6609 19.5889C45.6609 19.5889 45.6609 19.2589 46.3219 19.1769C46.983 19.0949 47.0659 19.3419 47.0659 19.3419C47.1159 18.8773 47.3397 18.4487 47.6925 18.1421C48.0452 17.8355 48.5008 17.6736 48.9679 17.6889C49.4059 17.6438 49.8481 17.7109 50.253 17.8839C50.6578 18.0569 51.0119 18.3302 51.2819 18.6779C51.4295 18.4502 51.6432 18.2729 51.8942 18.1698C52.1453 18.0666 52.4219 18.0426 52.6869 18.1009C52.9534 18.131 53.2001 18.2558 53.3822 18.4526C53.5643 18.6493 53.6696 18.905 53.679 19.1729C54.0274 18.8764 54.4506 18.6812 54.9023 18.6085C55.3541 18.5359 55.8171 18.5886 56.2409 18.7609C57.9769 19.2559 58.4729 22.3059 58.4729 22.3059C58.8302 22.2138 59.2079 22.2427 59.547 22.3879C60.047 22.6349 59.96 23.5419 59.96 23.5419C60.3801 23.5593 60.7856 23.7018 61.1241 23.9513C61.4627 24.2008 61.7189 24.5457 61.86 24.9419C62.191 26.2609 61.86 26.7559 61.86 26.7559C62.279 27.1853 62.5881 27.7096 62.7608 28.2842C62.9336 28.8588 62.9648 29.4667 62.8519 30.0559C62.7313 31.0434 62.2974 31.9661 61.614 32.6889C61.7977 33.2513 61.7977 33.8576 61.614 34.4199C61.5358 34.6249 61.4011 34.8034 61.2255 34.9347C61.0499 35.0661 60.8406 35.1449 60.622 35.1619C60.622 35.1619 60.87 36.3159 60.291 36.7279C60.1264 36.8484 59.9383 36.9327 59.7389 36.9753C59.5395 37.0178 59.3333 37.0177 59.134 36.9749C58.9243 37.5877 58.5768 38.1442 58.1182 38.6015C57.6596 39.0588 57.1023 39.4049 56.489 39.6129C55.1232 39.9825 53.6742 39.8976 52.3609 39.3709L47.4839 40.1129C47.0648 40.0992 46.6481 40.0439 46.2399 39.9479Z" fill="#F99A3D"/>
<path d="M43.7769 32.1989C44.0061 32.289 44.2229 32.408 44.4219 32.5529C44.6325 31.1809 45.2091 29.8909 46.0909 28.8189C46.5191 28.3658 47.0922 28.0766 47.7111 28.0014C48.33 27.9262 48.9557 28.0696 49.4799 28.4069C50.6369 29.3139 51.1329 30.7979 51.8799 30.3859C52.6269 29.9739 53.4499 29.1489 54.2799 29.8089C54.8999 30.3039 55.0069 31.8289 55.0239 32.5539C55.2249 32.412 55.4413 32.2933 55.6689 32.1999C55.9267 32.0948 56.2079 32.0609 56.4832 32.1017C56.7586 32.1424 57.0179 32.2564 57.2341 32.4317C57.4504 32.6069 57.6156 32.837 57.7124 33.0979C57.8093 33.3589 57.8344 33.641 57.7849 33.9149C57.8131 34.2481 57.7566 34.5831 57.6208 34.8886C57.4849 35.1942 57.2741 35.4605 57.0079 35.6629C56.2498 35.9636 55.4302 36.0768 54.6189 35.9929C54.5093 36.4797 54.3372 36.9503 54.1069 37.3929C53.648 38.1487 53.0605 38.8185 52.3709 39.3719V41.3259L52.5529 43.9889C52.3841 44.0715 52.2101 44.143 52.0319 44.2029C51.7942 44.2981 51.5477 44.3697 51.2959 44.4169C50.7833 44.5322 50.2594 44.5902 49.7339 44.5899C49.2081 44.5984 48.6832 44.5403 48.1719 44.4169C47.9193 44.3737 47.6724 44.3019 47.4359 44.2029C47.2578 44.143 47.0838 44.0715 46.9149 43.9889L47.0969 41.3259V39.3709C46.406 38.8181 45.8172 38.1487 45.3569 37.3929C45.0977 36.9749 44.9465 36.4989 44.9169 36.0079C44.0771 36.125 43.2213 36.0052 42.4459 35.6619C42.1766 35.4618 41.9627 35.1962 41.8246 34.8903C41.6866 34.5844 41.6288 34.2484 41.6569 33.9139C41.6064 33.6394 41.6308 33.3563 41.7277 33.0945C41.8245 32.8327 41.9902 32.6019 42.2072 32.4263C42.4242 32.2507 42.6846 32.1369 42.9608 32.0969C43.2371 32.0569 43.519 32.0922 43.7769 32.1989Z" fill="#DA5742"/>
<path d="M47.0749 41.3329L47.0089 42.3559C47.9314 42.2799 48.8395 42.0805 49.7089 41.7629C50.6523 41.4132 51.5433 40.9358 52.3569 40.3439V39.3709C50.8689 40.2779 47.7279 39.9479 47.0749 39.3629V41.3329Z" fill="#C43D28"/>
<path d="M47.0169 39.4209C46.9997 39.4037 46.9894 39.3807 46.988 39.3564C46.9865 39.3321 46.9939 39.3081 47.0089 39.2889C47.0169 39.2796 47.0268 39.2719 47.0378 39.2664C47.0489 39.2609 47.0609 39.2577 47.0732 39.2569C47.0855 39.2562 47.0979 39.2579 47.1095 39.2621C47.1211 39.2662 47.1318 39.2726 47.1409 39.2809C48.0601 39.7443 49.0933 39.9332 50.1169 39.8249C50.1289 39.8232 50.1412 39.824 50.1528 39.8273C50.1645 39.8306 50.1754 39.8362 50.1847 39.844C50.1941 39.8517 50.2017 39.8613 50.2071 39.8722C50.2126 39.883 50.2157 39.8949 50.2162 39.907C50.2168 39.9191 50.2148 39.9312 50.2104 39.9426C50.206 39.9539 50.1993 39.9641 50.1907 39.9727C50.1821 39.9812 50.1718 39.9879 50.1605 39.9923C50.1491 39.9966 50.137 39.9985 50.1249 39.9979C50.002 40.0186 49.8774 40.0269 49.7529 40.0229C48.802 40.0888 47.8523 39.8798 47.0169 39.4209Z" fill="#1F1F39"/>
<path d="M55.1089 32.4869C55.1151 33.1915 55.0515 33.8949 54.9189 34.5869C54.8609 34.9609 54.6549 35.6609 54.5549 36.0239C55.3883 36.1208 56.2326 35.9956 57.0019 35.6609C57.2667 35.4573 57.4765 35.1908 57.6122 34.8855C57.7479 34.5802 57.8052 34.2459 57.7789 33.9129C57.8275 33.6392 57.8018 33.3575 57.7046 33.0971C57.6074 32.8367 57.4422 32.6071 57.2262 32.4321C57.0102 32.2571 56.7513 32.1432 56.4764 32.1022C56.2015 32.0612 55.9206 32.0946 55.6629 32.1989C55.4707 32.2796 55.2854 32.3759 55.1089 32.4869Z" fill="#C43D28"/>
<path d="M45.3399 37.3929C45.3479 37.4089 45.3639 37.4339 45.3729 37.4499C45.2899 37.2859 45.2069 37.1209 45.1329 36.9639C45.1909 37.0959 45.2569 37.2359 45.3399 37.3929Z" fill="#C43D28"/>
<path d="M43.7689 32.1989C43.511 32.0929 43.2293 32.0582 42.9533 32.0985C42.6774 32.1388 42.4174 32.2526 42.2005 32.428C41.9837 32.6034 41.8181 32.8339 41.721 33.0953C41.624 33.3568 41.5991 33.6395 41.6489 33.9139C41.6214 34.2473 41.6786 34.5823 41.8151 34.8877C41.9517 35.1931 42.1631 35.4591 42.4299 35.6609C43.1826 36.0018 44.0159 36.1244 44.8349 36.0149C44.5998 34.8465 44.4232 33.667 44.3059 32.4809C44.1362 32.3703 43.9564 32.2758 43.7689 32.1989Z" fill="#C43D28"/>
<path d="M44.5049 35.271C44.4471 34.8693 44.2847 34.49 44.0339 34.171C43.693 33.7326 43.2256 33.4097 42.6949 33.246C42.673 33.2387 42.6542 33.2241 42.6418 33.2046C42.6294 33.1851 42.6242 33.1619 42.6269 33.139C42.6342 33.1166 42.6492 33.0976 42.6691 33.0851C42.689 33.0727 42.7127 33.0677 42.7359 33.071C43.317 33.2355 43.8261 33.59 44.1819 34.078C44.4565 34.424 44.6296 34.8394 44.6819 35.278C44.6836 35.2896 44.6826 35.3015 44.6791 35.3127C44.6757 35.3239 44.6698 35.3343 44.6618 35.343C44.6539 35.3516 44.6442 35.3585 44.6333 35.363C44.6224 35.3675 44.6107 35.3695 44.5989 35.369C44.5862 35.3693 44.5735 35.3669 44.5617 35.362C44.5499 35.3572 44.5392 35.3499 44.5304 35.3407C44.5215 35.3314 44.5147 35.3205 44.5103 35.3085C44.5059 35.2965 44.5041 35.2837 44.5049 35.271Z" fill="#1F1F39"/>
<path d="M54.8609 35.2729C54.9171 34.8354 55.0898 34.4209 55.3609 34.0729C55.7218 33.5924 56.2272 33.2402 56.803 33.0679C56.8147 33.0642 56.8271 33.063 56.8393 33.0647C56.8515 33.0663 56.8632 33.0706 56.8736 33.0773C56.8839 33.084 56.8926 33.0929 56.8991 33.1034C56.9056 33.1139 56.9096 33.1257 56.9109 33.1379C56.9147 33.1493 56.916 33.1614 56.9146 33.1733C56.9132 33.1852 56.9092 33.1966 56.9029 33.2068C56.8966 33.2171 56.8882 33.2257 56.8782 33.2323C56.8681 33.2389 56.8568 33.2432 56.8449 33.2449C56.3088 33.401 55.8385 33.7284 55.5059 34.1769C55.2552 34.496 55.0928 34.8753 55.0349 35.2769C55.0366 35.2886 55.0356 35.3005 55.0321 35.3117C55.0287 35.3229 55.0228 35.3333 55.0148 35.3419C55.0069 35.3506 54.9972 35.3575 54.9863 35.362C54.9754 35.3665 54.9637 35.3685 54.9519 35.3679C54.9397 35.3678 54.9276 35.3652 54.9163 35.3604C54.9051 35.3555 54.8949 35.3484 54.8865 35.3396C54.878 35.3307 54.8714 35.3203 54.867 35.3088C54.8626 35.2974 54.8605 35.2852 54.8609 35.2729Z" fill="#1F1F39"/>
<path d="M47.067 32.5289C47.067 32.5289 47.133 31.8689 47.613 31.8689C48.093 31.8689 48.159 32.5289 48.159 32.5289" fill="white"/>
<path d="M51.257 32.5289C51.257 32.5289 51.323 31.8689 51.803 31.8689C52.283 31.8689 52.349 32.5289 52.349 32.5289" fill="white"/>
<path d="M49.7119 33.7069C49.6527 33.8469 49.6111 33.9937 49.5879 34.1439C49.5755 34.2063 49.5873 34.271 49.6209 34.3249C49.6209 34.3329 49.6289 34.3329 49.6289 34.3409L49.6459 34.3569C49.6584 34.367 49.6722 34.3755 49.6869 34.3819C49.7135 34.4013 49.7451 34.4128 49.7779 34.4149C49.928 34.4246 50.0776 34.3898 50.2079 34.3149C50.1564 34.3801 50.0917 34.4336 50.0179 34.4719C49.9397 34.5168 49.8499 34.5374 49.7599 34.5309C49.714 34.5259 49.6695 34.512 49.6289 34.4899C49.6066 34.4812 49.5867 34.4671 49.5709 34.4489L49.5459 34.4239C49.5357 34.4145 49.5272 34.4034 49.5209 34.3909C49.4664 34.3115 49.4446 34.2141 49.4599 34.1189C49.4714 34.033 49.4949 33.9492 49.5299 33.8699C49.5549 33.7979 49.5959 33.7229 49.6289 33.6489C49.7031 33.5132 49.792 33.3861 49.8939 33.2699C49.8269 33.4179 49.7699 33.5699 49.7119 33.7069Z" fill="#1F1F39"/>
<path d="M49.1329 35.6779C49.2306 35.9039 49.4003 36.0911 49.6156 36.2105C49.8308 36.3299 50.0795 36.3747 50.3229 36.3379C51.0329 36.2379 51.1169 35.4139 51.1169 35.4139" fill="white"/>
<path d="M47.6859 34.3419C47.5281 34.324 47.3835 34.2451 47.2831 34.1219C47.1828 33.9987 47.1346 33.8412 47.1489 33.6829C47.1343 33.5246 47.1824 33.3667 47.2827 33.2434C47.3831 33.12 47.5279 33.0409 47.6859 33.0229C47.844 33.0409 47.9887 33.12 48.0891 33.2434C48.1895 33.3667 48.2376 33.5246 48.2229 33.6829C48.2373 33.8412 48.1891 33.9987 48.0887 34.1219C47.9884 34.2451 47.8438 34.324 47.6859 34.3419Z" fill="#1F1F39"/>
<path d="M51.8189 34.3419C51.6611 34.324 51.5165 34.2451 51.4161 34.1219C51.3158 33.9987 51.2676 33.8412 51.2819 33.6829C51.2673 33.5246 51.3154 33.3667 51.4157 33.2434C51.5161 33.12 51.6609 33.0409 51.8189 33.0229C51.977 33.0409 52.1217 33.12 52.2221 33.2434C52.3225 33.3667 52.3705 33.5246 52.3559 33.6829C52.3703 33.8412 52.3221 33.9987 52.2217 34.1219C52.1214 34.2451 51.9768 34.324 51.8189 34.3419Z" fill="#1F1F39"/>
<path d="M54.5966 35.1844C54.5586 35.6288 53.901 35.9359 53.1279 35.8697C52.3547 35.8036 51.7588 35.3893 51.7968 34.9449C51.8349 34.5005 52.4924 34.1934 53.2656 34.2596C54.0388 34.3257 54.6346 34.74 54.5966 35.1844Z" fill="#C43D28"/>
<path d="M47.9004 35.184C47.8625 35.6282 47.2052 35.9353 46.4323 35.8694C45.6594 35.8034 45.0637 35.3894 45.1016 34.9452C45.1395 34.501 45.7968 34.1939 46.5697 34.2598C47.3426 34.3258 47.9383 34.7398 47.9004 35.184Z" fill="#C43D28"/>
<path d="M23.669 39.8009C20.893 41.2369 19.755 45.2469 18.363 47.3919C17.631 48.7616 16.5944 49.945 15.333 50.8509C14.6111 51.3287 13.7729 51.6011 12.908 51.6389C12.908 51.6389 15.308 57.6629 24.553 58.7229C33.798 59.7829 38.753 56.6569 40.629 55.3779C41.8364 54.5043 42.835 53.3738 43.553 52.0679C43.553 52.0679 39.201 51.1049 37.967 47.1029C36.733 43.1009 34.991 40.2739 32.294 39.8269C30.9434 39.4932 29.5187 39.6418 28.266 40.2469C27.6504 39.6866 26.8701 39.3404 26.0416 39.26C25.2131 39.1797 24.3808 39.3694 23.669 39.8009Z" fill="#1F1F39"/>
<path d="M36.97 71.8479L39.553 78.7479C41.7978 77.6865 43.8865 76.3225 45.761 74.6939C45.306 73.3629 44.912 72.3559 44.912 72.3559L36.97 71.8479Z" fill="#F9D2DD"/>
<path d="M16.682 78.8789L19.379 71.6639L11.437 72.1719C11.429 72.1809 10.956 73.3979 10.448 74.9209C12.3348 76.5198 14.4324 77.8516 16.682 78.8789Z" fill="#F9D2DD"/>
<path d="M36.97 71.8479L37.863 74.1949L45.743 74.6849C45.314 73.4479 44.912 72.3559 44.912 72.3559L36.97 71.8479Z" fill="#F9ACC0"/>
<path d="M19.462 71.4099L18.562 73.7569L10.562 74.5359C10.991 73.3099 11.516 71.9179 11.516 71.9179L19.462 71.4099Z" fill="#F9ACC0"/>
<path d="M19.134 61.0429C15.667 62.6099 11.857 67.4739 10.457 73.1869H16.657L15.632 78.3739C19.4478 80.3226 23.6724 81.3358 27.957 81.3299C32.2619 81.3357 36.5062 80.3151 40.338 78.3529L39.257 73.8609L45.526 73.3009C45.526 73.3099 44.081 65.2539 37.479 61.4449C32.189 58.3899 24.02 58.8449 19.134 61.0429Z" fill="#3D5CFF"/>
<path d="M18.346 67.3209L14.66 73.1959L16.753 73.1869L18.346 67.3209Z" fill="#224BF4"/>
<path d="M39.264 73.8609L41.129 73.7029L36.97 66.5849L39.264 73.8609Z" fill="#224BF4"/>
<path d="M16.735 73.2839C16.7132 73.2776 16.6946 73.2633 16.6829 73.2438C16.6712 73.2243 16.6673 73.2012 16.672 73.1789L18.425 66.6819C18.4313 66.6601 18.4456 66.6415 18.4651 66.6298C18.4846 66.6181 18.5078 66.6143 18.53 66.6189C18.5514 66.6257 18.5696 66.6402 18.5809 66.6596C18.5921 66.679 18.5958 66.702 18.591 66.7239L16.84 73.2189C16.8351 73.2362 16.8247 73.2515 16.8105 73.2624C16.7963 73.2734 16.7789 73.2796 16.761 73.2799L16.735 73.2839Z" fill="#1F1F39"/>
<path d="M39.098 73.8619L36.856 66.5859C36.8523 66.5755 36.8507 66.5644 36.8513 66.5534C36.852 66.5423 36.8549 66.5315 36.8599 66.5216C36.8648 66.5117 36.8717 66.5029 36.8802 66.4957C36.8886 66.4886 36.8984 66.4832 36.909 66.4799C36.9194 66.4763 36.9303 66.4749 36.9413 66.4756C36.9522 66.4764 36.9629 66.4793 36.9727 66.4842C36.9825 66.4892 36.9912 66.496 36.9983 66.5044C37.0054 66.5128 37.0107 66.5225 37.014 66.5329L39.251 73.8089C39.2546 73.8193 39.256 73.8303 39.2553 73.8412C39.2546 73.8521 39.2516 73.8628 39.2467 73.8726C39.2417 73.8824 39.2349 73.8911 39.2265 73.8982C39.2182 73.9053 39.2085 73.9106 39.198 73.9139C39.189 73.9139 39.181 73.9229 39.172 73.9229C39.1549 73.9215 39.1387 73.9149 39.1254 73.904C39.1122 73.8931 39.1026 73.8784 39.098 73.8619Z" fill="#1F1F39"/>
<path d="M34.685 48.2419C34.4422 48.338 34.2127 48.4646 34.002 48.6189C33.9998 48.1362 33.9735 47.654 33.923 47.1739L32.189 47.1559L32.084 46.1139L31.874 47.1559L29.221 47.1299L29.107 46.1139L28.923 47.1209L24.548 47.0769L24.37 45.2559L24.125 47.0769L22.794 47.0679C22.794 47.0679 22.777 47.7949 22.777 48.6089C22.5643 48.4582 22.3351 48.3321 22.094 48.2329C21.8202 48.1203 21.5211 48.0836 21.2282 48.1266C20.9353 48.1696 20.6594 48.2907 20.4296 48.4773C20.1997 48.6639 20.0244 48.909 19.922 49.1868C19.8197 49.4646 19.7941 49.7648 19.848 50.0559C19.8189 50.4097 19.8794 50.7651 20.0239 51.0894C20.1684 51.4136 20.3924 51.6961 20.675 51.9109C21.4629 52.2826 22.3439 52.4108 23.205 52.2789C23.2971 52.799 23.4842 53.2976 23.757 53.7499C24.243 54.5517 24.8654 55.2624 25.596 55.8499V57.9259L25.403 60.7559C25.5819 60.8438 25.7663 60.92 25.955 60.9839C26.2066 61.0851 26.4675 61.1615 26.734 61.2119C27.2772 61.3344 27.8322 61.3961 28.389 61.3959C28.9462 61.4048 29.5024 61.343 30.044 61.2119C30.3115 61.1657 30.5728 61.0892 30.823 60.9839C31.0118 60.92 31.1962 60.8438 31.375 60.7559L31.182 57.9279V55.8559C31.9126 55.2684 32.535 54.5577 33.021 53.7559C33.2699 53.287 33.4526 52.7859 33.564 52.2669C34.4232 52.3561 35.2913 52.236 36.094 51.9169C36.3786 51.7034 36.6042 51.421 36.7497 51.0964C36.8952 50.7717 36.9559 50.4154 36.926 50.0609C36.9789 49.7706 36.9527 49.4715 36.8503 49.1948C36.748 48.9181 36.5731 48.674 36.344 48.488C36.1149 48.3021 35.84 48.1811 35.5482 48.1378C35.2563 48.0945 34.9582 48.1305 34.685 48.2419Z" fill="#F9D2DD"/>
<path d="M22.102 48.2419C21.8284 48.1297 21.5297 48.0932 21.2372 48.1363C20.9446 48.1793 20.6691 48.3003 20.4394 48.4866C20.2098 48.6729 20.0345 48.9175 19.932 49.1949C19.8296 49.4723 19.8036 49.7721 19.857 50.0629C19.828 50.4165 19.8886 50.7718 20.0331 51.0958C20.1777 51.4198 20.4015 51.7022 20.684 51.9169C21.4673 52.2838 22.3405 52.4148 23.197 52.2939C23.197 52.2939 23.022 51.3169 22.891 50.3439C22.8161 49.7714 22.7807 49.1943 22.785 48.6169C22.5722 48.4666 22.3431 48.3408 22.102 48.2419Z" fill="#F9ACC0"/>
<path d="M34.01 48.6169C34.0112 49.1642 33.9849 49.7112 33.931 50.2559C33.818 51.2539 33.59 52.2699 33.59 52.2699C34.4469 52.3572 35.3121 52.2361 36.112 51.9169C36.3926 51.7003 36.6148 51.4172 36.7585 51.0931C36.9022 50.7691 36.9629 50.4143 36.935 50.0609C36.9873 49.7704 36.9606 49.4711 36.8577 49.1944C36.7548 48.9177 36.5795 48.6737 36.3502 48.4879C36.1208 48.302 35.8457 48.1812 35.5537 48.1379C35.2617 48.0946 34.9634 48.1305 34.69 48.2419C34.4484 48.3375 34.2199 48.4635 34.01 48.6169Z" fill="#F9ACC0"/>
<path d="M22.698 51.5069C22.6306 51.0234 22.4405 50.5652 22.146 50.1759C21.7536 49.6401 21.1972 49.2468 20.561 49.0559C20.5337 49.0478 20.5104 49.0297 20.4956 49.0053C20.4808 48.9809 20.4756 48.9519 20.481 48.9239C20.4892 48.8964 20.5074 48.8729 20.532 48.8581C20.5566 48.8433 20.5859 48.8382 20.614 48.8439C21.3027 49.0493 21.9033 49.4782 22.321 50.0629C22.6441 50.4824 22.847 50.9819 22.908 51.5079C22.908 51.5358 22.897 51.5625 22.8773 51.5822C22.8576 51.6019 22.8309 51.6129 22.803 51.6129C22.7752 51.6129 22.7485 51.6019 22.7288 51.5822C22.7091 51.5625 22.698 51.5358 22.698 51.5079V51.5069Z" fill="#1F1F39"/>
<path d="M34.124 51.3849C34.0974 51.372 34.077 51.3491 34.0671 51.3212C34.0572 51.2934 34.0586 51.2628 34.071 51.2359C34.3602 50.6658 34.727 50.1384 35.161 49.6689C35.4557 49.3086 35.8502 49.0432 36.295 48.9059C36.3089 48.9026 36.3234 48.9022 36.3375 48.905C36.3516 48.9077 36.3649 48.9135 36.3766 48.9218C36.3883 48.9302 36.398 48.9409 36.4051 48.9534C36.4123 48.9658 36.4167 48.9796 36.418 48.9939C36.4214 49.0079 36.4217 49.0224 36.4189 49.0365C36.4162 49.0505 36.4104 49.0639 36.4021 49.0755C36.3938 49.0872 36.383 49.0969 36.3706 49.1041C36.3581 49.1112 36.3443 49.1156 36.33 49.1169C35.9329 49.2514 35.5811 49.4938 35.314 49.8169C34.8946 50.2678 34.5401 50.775 34.261 51.3239C34.2529 51.344 34.2391 51.3613 34.2214 51.3737C34.2036 51.3862 34.1826 51.3932 34.161 51.3939C34.148 51.3946 34.1352 51.3915 34.124 51.3849Z" fill="#1F1F39"/>
<path d="M32.049 52.4179C31.28 52.4179 30.657 52.0259 30.657 51.5429C30.657 51.0599 31.28 50.6669 32.049 50.6669C32.818 50.6669 33.441 51.0589 33.441 51.5429C33.441 52.0269 32.818 52.4179 32.049 52.4179Z" fill="#F9ACC0"/>
<path d="M24.685 52.4179C23.916 52.4179 23.293 52.0259 23.293 51.5429C23.293 51.0599 23.916 50.6669 24.685 50.6669C25.454 50.6669 26.077 51.0589 26.077 51.5429C26.077 52.0269 25.454 52.4179 24.685 52.4179Z" fill="#F9ACC0"/>
<path d="M26.655 56.2119C26.29 56.1604 25.9338 56.0595 25.596 55.9119V57.9349L25.508 59.1949C25.7784 59.1743 26.0441 59.1126 26.296 59.0119C27.8457 58.2804 29.2678 57.3046 30.508 56.1219C29.2289 56.2658 27.9395 56.2959 26.655 56.2119Z" fill="#F9ACC0"/>
<path d="M24.975 47.9359C25.1247 47.8296 25.309 47.7839 25.491 47.8079C25.6716 47.8212 25.8449 47.885 25.991 47.9919C26.0635 48.046 26.1215 48.1171 26.16 48.1989C26.1986 48.2806 26.2164 48.3706 26.212 48.4609C26.1544 48.3158 26.0484 48.195 25.912 48.1189C25.7778 48.052 25.6324 48.0106 25.483 47.9969C25.3372 47.9814 25.1898 48.0023 25.054 48.0579C24.9144 48.1311 24.7965 48.2398 24.712 48.3729C24.7229 48.2857 24.752 48.2018 24.7973 48.1266C24.8426 48.0513 24.9031 47.9864 24.975 47.9359Z" fill="#1F1F39"/>
<path d="M30.841 48.0579C30.9982 47.9713 31.1811 47.9433 31.357 47.9789C31.4455 47.9904 31.5308 48.0193 31.608 48.0639C31.6861 48.1078 31.7542 48.1674 31.808 48.2389C31.9214 48.3719 31.9851 48.5402 31.988 48.7149C31.9194 48.5753 31.8243 48.4503 31.708 48.3469C31.6572 48.2979 31.5975 48.2592 31.532 48.2329C31.497 48.2239 31.471 48.2069 31.436 48.1979L31.331 48.1719C31.188 48.1456 31.0408 48.1545 30.902 48.1979C30.7512 48.2384 30.6148 48.3201 30.508 48.4339C30.5658 48.27 30.6852 48.1351 30.841 48.0579Z" fill="#1F1F39"/>
<path d="M28.424 50.0539C28.3307 50.2571 28.2658 50.4721 28.231 50.6929C28.2236 50.7452 28.2206 50.7981 28.222 50.8509C28.2257 50.9013 28.2344 50.9513 28.248 50.9999C28.2719 51.0915 28.3285 51.1711 28.407 51.2239C28.4984 51.28 28.6007 51.3158 28.707 51.3289C28.8196 51.348 28.934 51.354 29.048 51.3469C28.9369 51.3954 28.8173 51.4215 28.696 51.4239C28.5688 51.4272 28.4427 51.4001 28.328 51.3449C28.2062 51.2805 28.1149 51.1705 28.074 51.0389C28.0536 50.9751 28.0418 50.9089 28.039 50.8419C28.0376 50.7775 28.0406 50.713 28.048 50.6489C28.0887 50.4117 28.1717 50.1838 28.293 49.9759C28.4063 49.7754 28.5444 49.5899 28.704 49.4239C28.608 49.6339 28.512 49.8439 28.424 50.0539Z" fill="#1F1F39"/>
<path d="M26.2155 50.0735C26.2103 50.2549 26.1342 50.427 26.0036 50.553C25.8729 50.679 25.6981 50.7488 25.5166 50.7475C25.34 50.7056 25.1869 50.5961 25.09 50.4426C24.9931 50.2892 24.9602 50.1038 24.9984 49.9264C25.0036 49.7449 25.0797 49.5728 25.2103 49.4468C25.341 49.3208 25.5158 49.251 25.6973 49.2524C25.8739 49.2943 26.027 49.4037 26.1239 49.5572C26.2208 49.7107 26.2537 49.896 26.2155 50.0735Z" fill="#1F1F39"/>
<path d="M31.8265 50.1895C31.8213 50.3709 31.7452 50.543 31.6145 50.669C31.4839 50.795 31.3091 50.8648 31.1276 50.8635C30.951 50.8216 30.7978 50.7121 30.7009 50.5586C30.6041 50.4051 30.5712 50.2198 30.6093 50.0424C30.6146 49.8609 30.6906 49.6888 30.8213 49.5628C30.9519 49.4368 31.1268 49.367 31.3082 49.3684C31.4848 49.4103 31.638 49.5197 31.7349 49.6732C31.8317 49.8267 31.8646 50.012 31.8265 50.1895Z" fill="#1F1F39"/>
<path d="M28.205 52.1819H29.011C29.177 52.1819 29.37 52.1819 29.633 52.1909C29.6259 52.3155 29.5866 52.4361 29.519 52.5409C29.4574 52.6448 29.3774 52.7366 29.283 52.8119C29.0869 52.9699 28.8428 53.0563 28.591 53.0569C28.4593 53.0558 28.3287 53.0321 28.205 52.9869C28.082 52.9427 27.9689 52.8747 27.872 52.7869C27.7772 52.6988 27.7028 52.5909 27.654 52.4709C27.61 52.3502 27.6009 52.2195 27.628 52.0939C27.8171 52.1414 28.0103 52.1709 28.205 52.1819Z" fill="#DA5742"/>
<path d="M25.184 55.8239C25.1657 55.8057 25.1547 55.7814 25.1531 55.7556C25.1514 55.7298 25.1592 55.7043 25.175 55.6839C25.1925 55.6643 25.217 55.6524 25.2432 55.6507C25.2694 55.6491 25.2952 55.6577 25.315 55.6749C26.2888 56.1661 27.3836 56.3657 28.468 56.2499C28.4924 56.2487 28.5163 56.2573 28.5344 56.2737C28.5525 56.2901 28.5633 56.313 28.5645 56.3374C28.5657 56.3618 28.5572 56.3857 28.5408 56.4038C28.5244 56.4219 28.5014 56.4327 28.477 56.4339C28.3469 56.4556 28.2149 56.4643 28.083 56.4599C27.0756 56.531 26.0691 56.3102 25.184 55.8239Z" fill="#1F1F39"/>
<path opacity="0.55" d="M35.306 64.8599C34.8042 64.6151 34.3827 64.2321 34.0911 63.7559C33.7995 63.2797 33.6499 62.7302 33.66 62.1719C33.5857 61.4375 33.6004 60.6968 33.704 59.9659C33.7123 59.9202 33.7377 59.8792 33.775 59.8514C33.8123 59.8236 33.8587 59.8109 33.905 59.8159C33.9504 59.8245 33.9909 59.8498 34.0186 59.8868C34.0462 59.9239 34.0588 59.97 34.054 60.0159C33.9563 60.7188 33.9432 61.4309 34.015 62.1369C34.0042 62.6316 34.1332 63.1193 34.3872 63.5438C34.6413 63.9684 35.01 64.3126 35.451 64.5369C36.615 65.0439 38.494 64.5889 40.008 63.4239C40.0264 63.4101 40.0473 63.4001 40.0696 63.3944C40.0918 63.3887 40.115 63.3874 40.1377 63.3907C40.1605 63.3939 40.1824 63.4016 40.2022 63.4134C40.2219 63.4251 40.2392 63.4406 40.253 63.4589C40.2668 63.4773 40.2768 63.4982 40.2825 63.5205C40.2882 63.5428 40.2895 63.5659 40.2862 63.5887C40.283 63.6114 40.2753 63.6333 40.2636 63.6531C40.2519 63.6729 40.2364 63.6901 40.218 63.7039C39.185 64.5532 37.9032 65.0422 36.567 65.0969C36.1349 65.1046 35.7058 65.0239 35.306 64.8599Z" fill="#EAEAFF"/>
<path opacity="0.55" d="M44.124 70.1229L43.914 70.0229C40.446 68.4159 37.172 66.8919 36.561 63.1449C36.4365 62.4386 36.4297 61.7165 36.541 61.0079C36.5444 60.985 36.5523 60.9631 36.5644 60.9433C36.5765 60.9236 36.5925 60.9066 36.6114 60.8932C36.6303 60.8798 36.6517 60.8704 36.6743 60.8656C36.6969 60.8607 36.7203 60.8605 36.743 60.8649C36.7654 60.8687 36.7869 60.8768 36.8061 60.889C36.8253 60.9011 36.8419 60.9169 36.855 60.9355C36.868 60.9542 36.8772 60.9752 36.882 60.9974C36.8868 61.0196 36.8872 61.0426 36.883 61.0649C36.7778 61.7373 36.7866 62.4225 36.909 63.0919C37.496 66.6559 40.683 68.1439 44.071 69.7119L44.281 69.8119C44.3224 69.8332 44.3544 69.8692 44.3707 69.9129C44.387 69.9565 44.3864 70.0047 44.369 70.0479C44.3256 70.1024 44.2629 70.1381 44.194 70.1479C44.1691 70.145 44.1451 70.1365 44.124 70.1229Z" fill="#EAEAFF"/>
<path opacity="0.55" d="M39.5 78.7299L39.169 78.6299C39.3462 77.9783 39.3745 77.2951 39.2518 76.6311C39.129 75.9671 38.8584 75.3391 38.46 74.7939C37.1883 73.1815 35.4267 72.0264 33.441 71.5029C32.3151 71.1283 31.1375 70.9323 29.951 70.9219C29.1554 70.9173 28.3631 71.0257 27.598 71.2439C26.9461 71.4294 26.3322 71.729 25.785 72.1289C26.416 72.1909 27.085 72.2369 27.675 72.2769C31.075 72.5229 34.294 72.7539 35.058 75.0449C35.2269 75.4707 35.2599 75.9383 35.1525 76.3836C35.0451 76.8289 34.8025 77.23 34.458 77.5319C33.5624 78.2228 32.4534 78.579 31.323 78.5389H31.175C29.6821 78.5097 28.2117 78.1691 26.858 77.5389C25.8889 77.167 25.0638 76.4954 24.503 75.6219C24.3057 75.2924 24.1872 74.9218 24.1568 74.5389C24.1265 74.1561 24.185 73.7714 24.328 73.4149C24.4774 73.0357 24.6973 72.6883 24.976 72.3909C23.335 72.1909 21.304 71.7959 20.16 70.5909C19.8011 70.2029 19.5381 69.7362 19.3921 69.2283C19.2461 68.7204 19.221 68.1853 19.319 67.6659C18.5519 67.6465 17.7862 67.5881 17.025 67.4909C15.7654 67.3654 14.5471 66.9731 13.451 66.3399L13.627 66.0339C14.6786 66.643 15.8492 67.0182 17.059 67.1339C17.8289 67.231 18.6032 67.2894 19.379 67.3089C19.693 66.0671 20.3271 64.9293 21.218 64.0089C22.0224 63.1077 23.0529 62.4376 24.203 62.0679C24.5614 61.9613 24.9331 61.9058 25.307 61.9029C26.0389 61.8964 26.7488 62.1534 27.307 62.6269C27.5839 62.8422 27.7781 63.1462 27.857 63.488C27.9358 63.8297 27.8945 64.1881 27.74 64.5029C27.3678 65.12 26.8765 65.6568 26.2946 66.0819C25.7127 66.507 25.052 66.8119 24.351 66.9789C22.8485 67.4574 21.2787 67.6911 19.702 67.6709H19.676C19.5773 68.1432 19.5918 68.632 19.7181 69.0976C19.8445 69.5632 20.0791 69.9923 20.403 70.3499C21.521 71.5249 23.603 71.8929 25.288 72.0829C26.6184 71.048 28.2718 70.5167 29.956 70.5829C31.1795 70.5921 32.3941 70.7922 33.556 71.1759C35.6114 71.7294 37.4333 72.9313 38.751 74.6029C39.1728 75.1922 39.4585 75.8679 39.5873 76.5811C39.7162 77.2943 39.685 78.0272 39.496 78.7269L39.5 78.7299ZM25.4 72.4429C25.0671 72.7458 24.8067 73.1197 24.638 73.5369C24.104 74.9289 24.985 76.3069 26.994 77.2229C28.3279 77.8351 29.7736 78.166 31.241 78.1949C32.3092 78.263 33.3652 77.9359 34.208 77.2759C34.5036 77.0199 34.7115 76.6778 34.8026 76.2976C34.8938 75.9173 34.8635 75.5181 34.716 75.1559C34.023 73.0839 30.923 72.8619 27.641 72.6259C26.872 72.5809 26.118 72.5189 25.4 72.4419V72.4429ZM25.236 62.2679C24.501 62.3159 23.7843 62.5178 23.1322 62.8604C22.4802 63.203 21.9074 63.6788 21.451 64.2569C20.6266 65.1158 20.0341 66.1702 19.729 67.3209C21.2527 67.3418 22.7696 67.1141 24.22 66.6469C25.536 66.3265 26.6759 65.5072 27.399 64.3619C27.5247 64.1186 27.5602 63.8386 27.4992 63.5715C27.4383 63.3045 27.2848 63.0677 27.066 62.9029C26.5505 62.4811 25.902 62.2561 25.236 62.2679Z" fill="#EAEAFF"/>
<path d="M75.09 48.4489C74.855 48.2957 74.5849 48.2049 74.305 48.1849C74.0061 48.1404 73.7006 48.1864 73.428 48.3169C73.3991 48.3328 73.3654 48.3372 73.3334 48.3295C73.3014 48.3217 73.2734 48.3022 73.255 48.2749C73.2388 48.2477 73.2341 48.2152 73.2417 48.1845C73.2494 48.1537 73.2689 48.1273 73.296 48.1109C73.6155 47.9521 73.9759 47.8945 74.329 47.9459C74.6579 47.9699 74.9744 48.081 75.246 48.2679C75.2701 48.2893 75.2852 48.319 75.2884 48.3511C75.2915 48.3831 75.2825 48.4152 75.263 48.4409C75.238 48.463 75.2054 48.4748 75.172 48.4739C75.1429 48.4732 75.1146 48.4645 75.09 48.4489Z" fill="#1F1F39"/>
<path d="M68.576 48.4319C68.5566 48.4062 68.5475 48.3741 68.5507 48.3421C68.5538 48.31 68.5689 48.2803 68.593 48.2589C68.8637 48.0703 69.1808 47.9593 69.51 47.9379C69.8635 47.8863 70.2242 47.9438 70.544 48.1029C70.5719 48.1208 70.5918 48.1489 70.5995 48.1811C70.6071 48.2134 70.6019 48.2474 70.585 48.2759C70.5671 48.3041 70.5389 48.3242 70.5064 48.3318C70.4739 48.3395 70.4397 48.3341 70.411 48.3169C70.1383 48.1878 69.8337 48.1419 69.535 48.1849C69.2552 48.2049 68.9851 48.2957 68.75 48.4489C68.7284 48.4644 68.7026 48.4731 68.676 48.4739C68.6387 48.4726 68.6031 48.4576 68.576 48.4319Z" fill="#1F1F39"/>
<path d="M79.702 72.4799L82.14 78.9799C84.2593 77.9798 86.2316 76.6942 88.002 75.1589C87.572 73.9059 87.202 72.9589 87.202 72.9589L79.702 72.4799Z" fill="#F9D2DD"/>
<path d="M60.551 79.0999L63.097 72.3069L55.6 72.7849C55.592 72.7929 55.145 73.9389 54.666 75.3739C56.4479 76.8795 58.428 78.1332 60.551 79.0999Z" fill="#F9D2DD"/>
<path d="M79.702 72.4799L80.545 74.6889L87.984 75.1509C87.579 73.9889 87.202 72.9579 87.202 72.9579L79.702 72.4799Z" fill="#F9ACC0"/>
<path d="M63.173 72.0679L62.328 74.2769L54.773 75.0109C55.178 73.8569 55.673 72.5459 55.673 72.5459L63.173 72.0679Z" fill="#F9ACC0"/>
<path d="M62.865 62.3059C59.592 63.7819 55.996 68.3659 54.674 73.7409H60.526L59.559 78.6209C63.1631 80.4578 67.1518 81.413 71.197 81.4079C75.2596 81.4144 79.2654 80.4546 82.884 78.6079L81.859 74.3789L87.777 73.8509C87.777 73.8589 86.413 66.2749 80.177 62.6879C75.189 59.8079 67.474 60.2409 62.865 62.3059Z" fill="#3D5CFF"/>
<path d="M62.122 68.2179L58.642 73.7499L60.617 73.7419L62.122 68.2179Z" fill="#224BF4"/>
<path d="M81.868 74.3759L83.628 74.2249L79.702 67.5249L81.868 74.3759Z" fill="#224BF4"/>
<g opacity="0.451">
<g opacity="0.451">
<path opacity="0.451" d="M68.601 73.3779C68.3729 73.3773 68.1501 73.3091 67.9607 73.182C67.7713 73.0548 67.6239 72.8744 67.537 72.6635C67.4501 72.4525 67.4277 72.2206 67.4726 71.9969C67.5174 71.7733 67.6276 71.5679 67.7891 71.4069C67.9506 71.2458 68.1562 71.1362 68.38 71.0919C68.6038 71.0476 68.8356 71.0706 69.0463 71.158C69.257 71.2455 69.4371 71.3934 69.5637 71.5831C69.6904 71.7728 69.758 71.9958 69.758 72.2239C69.7575 72.5303 69.6353 72.824 69.4184 73.0404C69.2014 73.2568 68.9074 73.3782 68.601 73.3779Z" fill="#F9EDC7"/>
<path opacity="0.451" d="M74.015 71.1929C73.7869 71.1923 73.5641 71.1241 73.3747 70.997C73.1853 70.8698 73.0379 70.6894 72.951 70.4785C72.8641 70.2675 72.8417 70.0356 72.8866 69.8119C72.9314 69.5883 73.0416 69.3829 73.2031 69.2219C73.3646 69.0608 73.5702 68.9512 73.794 68.9069C74.0178 68.8626 74.2496 68.8856 74.4603 68.973C74.671 69.0605 74.8511 69.2084 74.9777 69.3981C75.1044 69.5878 75.172 69.8108 75.172 70.0389C75.1715 70.3453 75.0493 70.639 74.8324 70.8554C74.6154 71.0718 74.3214 71.1932 74.015 71.1929Z" fill="#F9EDC7"/>
<path opacity="0.451" d="M64.593 67.3189C64.3649 67.3183 64.1421 67.2501 63.9527 67.123C63.7633 66.9958 63.6159 66.8154 63.529 66.6045C63.4421 66.3935 63.4197 66.1616 63.4646 65.938C63.5094 65.7143 63.6196 65.509 63.7811 65.3479C63.9426 65.1868 64.1482 65.0772 64.372 65.0329C64.5958 64.9886 64.8276 65.0116 65.0383 65.0991C65.249 65.1865 65.4291 65.3344 65.5557 65.5241C65.6824 65.7138 65.75 65.9368 65.75 66.1649C65.7495 66.4713 65.6273 66.765 65.4104 66.9814C65.1934 67.1978 64.8994 67.3192 64.593 67.3189Z" fill="#F9EDC7"/>
<path opacity="0.451" d="M64.593 78.6959C64.3649 78.6953 64.1421 78.6271 63.9527 78.5C63.7633 78.3728 63.6159 78.1924 63.529 77.9814C63.4421 77.7705 63.4197 77.5386 63.4646 77.3149C63.5094 77.0913 63.6196 76.8859 63.7811 76.7248C63.9426 76.5638 64.1482 76.4541 64.372 76.4099C64.5958 76.3656 64.8276 76.3886 65.0383 76.476C65.249 76.5635 65.4291 76.7114 65.5557 76.9011C65.6824 77.0908 65.75 77.3138 65.75 77.5419C65.7495 77.8483 65.6273 78.142 65.4104 78.3584C65.1934 78.5748 64.8994 78.6962 64.593 78.6959Z" fill="#F9EDC7"/>
<path opacity="0.451" d="M74.759 79.8499C74.5309 79.8493 74.3081 79.7812 74.1187 79.654C73.9293 79.5268 73.7819 79.3464 73.695 79.1355C73.6081 78.9246 73.5857 78.6926 73.6306 78.469C73.6754 78.2453 73.7856 78.04 73.9471 77.8789C74.1086 77.7178 74.3142 77.6082 74.538 77.5639C74.7618 77.5196 74.9936 77.5426 75.2043 77.6301C75.415 77.7175 75.5951 77.8654 75.7218 78.0551C75.8484 78.2448 75.916 78.4678 75.916 78.6959C75.9155 79.0023 75.7933 79.296 75.5764 79.5124C75.3594 79.7288 75.0654 79.8502 74.759 79.8499Z" fill="#F9EDC7"/>
<path opacity="0.451" d="M84.016 74.9859C83.7879 74.9853 83.5651 74.9171 83.3757 74.79C83.1863 74.6628 83.0389 74.4824 82.952 74.2715C82.8651 74.0605 82.8427 73.8286 82.8875 73.6049C82.9324 73.3813 83.0425 73.1759 83.204 73.0149C83.3656 72.8538 83.5712 72.7442 83.795 72.6999C84.0187 72.6556 84.2506 72.6786 84.4613 72.766C84.672 72.8535 84.852 73.0014 84.9787 73.1911C85.1054 73.3808 85.173 73.6038 85.173 73.8319C85.1725 74.1383 85.0503 74.432 84.8333 74.6484C84.6164 74.8648 84.3224 74.9862 84.016 74.9859Z" fill="#F9EDC7"/>
<path opacity="0.451" d="M56.906 70.6159C56.6779 70.6153 56.4551 70.5471 56.2657 70.42C56.0763 70.2928 55.9289 70.1124 55.842 69.9015C55.7551 69.6905 55.7327 69.4586 55.7775 69.235C55.8224 69.0113 55.9326 68.806 56.0941 68.6449C56.2556 68.4838 56.4612 68.3742 56.685 68.3299C56.9087 68.2856 57.1406 68.3086 57.3513 68.3961C57.562 68.4835 57.7421 68.6314 57.8687 68.8211C57.9954 69.0108 58.063 69.2338 58.063 69.4619C58.0625 69.7683 57.9403 70.062 57.7234 70.2784C57.5064 70.4948 57.2124 70.6162 56.906 70.6159Z" fill="#F9EDC7"/>
<path opacity="0.451" d="M84.429 68.2259C84.2009 68.2253 83.9781 68.1571 83.7887 68.03C83.5993 67.9028 83.4519 67.7224 83.365 67.5114C83.2781 67.3005 83.2557 67.0686 83.3006 66.8449C83.3454 66.6213 83.4556 66.4159 83.6171 66.2548C83.7786 66.0938 83.9842 65.9841 84.208 65.9399C84.4318 65.8956 84.6636 65.9186 84.8743 66.006C85.085 66.0935 85.2651 66.2414 85.3917 66.4311C85.5184 66.6208 85.586 66.8438 85.586 67.0719C85.5855 67.3783 85.4633 67.672 85.2464 67.8884C85.0294 68.1048 84.7354 68.2262 84.429 68.2259Z" fill="#F9EDC7"/>
<path opacity="0.451" d="M77.321 63.2789C77.0929 63.2783 76.8701 63.2101 76.6807 63.083C76.4913 62.9558 76.3439 62.7754 76.257 62.5645C76.1701 62.3535 76.1477 62.1216 76.1925 61.8979C76.2374 61.6743 76.3475 61.4689 76.509 61.3079C76.6706 61.1468 76.8762 61.0372 77.1 60.9929C77.3237 60.9486 77.5556 60.9716 77.7663 61.059C77.977 61.1465 78.157 61.2944 78.2837 61.4841C78.4104 61.6738 78.478 61.8968 78.478 62.1249C78.4775 62.4313 78.3553 62.725 78.1383 62.9414C77.9214 63.1578 77.6274 63.2792 77.321 63.2789Z" fill="#F9EDC7"/>
</g>
</g>
<path d="M60.6 73.8319C60.5795 73.8258 60.5621 73.8123 60.5512 73.7939C60.5402 73.7756 60.5366 73.7538 60.541 73.7329L62.196 67.6159C62.2021 67.5954 62.2156 67.578 62.234 67.5671C62.2523 67.5561 62.2741 67.5525 62.295 67.5569C62.3155 67.5632 62.3329 67.577 62.3436 67.5955C62.3544 67.6141 62.3577 67.636 62.353 67.6569L60.7 73.7749C60.6955 73.7912 60.6859 73.8057 60.6726 73.8161C60.6593 73.8266 60.6429 73.8324 60.626 73.8329L60.6 73.8319Z" fill="#1F1F39"/>
<path d="M81.71 74.3759L79.594 67.5209C79.5904 67.5111 79.5889 67.5006 79.5895 67.4902C79.5901 67.4797 79.5928 67.4695 79.5975 67.4602C79.6022 67.4508 79.6087 67.4425 79.6167 67.4357C79.6247 67.429 79.634 67.4239 79.644 67.4209C79.6538 67.4173 79.6642 67.4157 79.6746 67.4163C79.6849 67.4168 79.6951 67.4194 79.7045 67.424C79.7138 67.4286 79.7221 67.435 79.7289 67.4429C79.7357 67.4508 79.7408 67.46 79.744 67.4699L81.867 74.3259C81.8706 74.3357 81.8721 74.3462 81.8715 74.3566C81.8709 74.3671 81.8682 74.3773 81.8635 74.3867C81.8588 74.396 81.8523 74.4043 81.8443 74.4111C81.8363 74.4178 81.827 74.4229 81.817 74.4259C81.8 74.4259 81.792 74.4339 81.784 74.4339C81.7671 74.4334 81.7507 74.4276 81.7374 74.4171C81.7241 74.4067 81.7145 74.3922 81.71 74.3759Z" fill="#1F1F39"/>
<path d="M63.353 43.4109C64.427 41.2679 65.915 41.1029 65.915 41.1029C66.4696 39.9734 67.3467 39.0338 68.4353 38.4028C69.524 37.7718 70.7753 37.4777 72.031 37.5579C76.742 37.5579 77.817 42.1749 77.817 42.1749C78.4142 42.3616 78.9363 42.7337 79.3078 43.2371C79.6793 43.7406 79.8807 44.3493 79.883 44.9749C79.8 47.1179 77.8 52.0399 77.8 52.0399L64.592 49.4299C64.592 49.4299 62.278 45.5579 63.353 43.4109Z" fill="white"/>
<path d="M63.593 48.5719C63.2845 48.7501 63.0213 48.997 62.8238 49.2935C62.6263 49.5899 62.4998 49.9279 62.4541 50.2812C62.4084 50.6345 62.4449 50.9936 62.5605 51.3305C62.6762 51.6674 62.868 51.9731 63.121 52.2239C64.138 53.3949 66.7 53.1239 66.7 53.1239L66.014 48.8769C65.6772 48.609 65.2732 48.4388 64.8463 48.385C64.4193 48.3313 63.9857 48.3959 63.593 48.5719Z" fill="#F9ACC0"/>
<path d="M79.743 48.5719C80.0506 48.7509 80.3129 48.9982 80.5098 49.2947C80.7066 49.5912 80.8326 49.9289 80.8782 50.2819C80.9237 50.6348 80.8875 50.9935 80.7723 51.3303C80.6571 51.667 80.4661 51.9728 80.214 52.2239C79.197 53.3949 76.635 53.1229 76.635 53.1229L77.321 48.8769C77.6579 48.6088 78.0621 48.4386 78.4892 48.3848C78.9164 48.331 79.3502 48.3957 79.743 48.5719Z" fill="#F9ACC0"/>
<path d="M66.229 52.2569C66.1653 51.8016 65.9859 51.3702 65.708 51.0039C65.3373 50.499 64.8121 50.1286 64.212 49.9489C64.1862 49.9414 64.1641 49.9246 64.15 49.9016C64.136 49.8787 64.131 49.8513 64.136 49.8249C64.1435 49.7987 64.1607 49.7762 64.1841 49.7621C64.2074 49.748 64.2353 49.7433 64.262 49.7489C64.9114 49.9419 65.4781 50.3454 65.873 50.8959C66.1779 51.2905 66.3694 51.7607 66.427 52.2559C66.427 52.2824 66.4165 52.3079 66.3977 52.3266C66.379 52.3454 66.3535 52.3559 66.327 52.3559C66.3005 52.3559 66.2751 52.3454 66.2563 52.3266C66.2376 52.3079 66.227 52.2824 66.227 52.2559L66.229 52.2569Z" fill="#1F1F39"/>
<path d="M77.428 52.1409C77.403 52.1288 77.3837 52.1073 77.3743 52.0811C77.365 52.055 77.3663 52.0261 77.378 52.0009C77.6526 51.4634 78.0006 50.9666 78.412 50.5249C78.6894 50.1864 79.06 49.9367 79.478 49.8069C79.491 49.8046 79.5043 49.8049 79.5172 49.8078C79.5301 49.8107 79.5423 49.8161 79.5531 49.8237C79.5639 49.8314 79.573 49.841 79.5801 49.8522C79.5871 49.8634 79.5918 49.8759 79.594 49.8889C79.5966 49.9021 79.5965 49.9157 79.5936 49.9289C79.5908 49.9421 79.5854 49.9546 79.5776 49.9656C79.5699 49.9766 79.56 49.986 79.5485 49.9931C79.5371 50.0002 79.5243 50.0049 79.511 50.0069C79.1363 50.1337 78.8042 50.3622 78.552 50.6669C78.1574 51.0909 77.8238 51.5678 77.561 52.0839C77.5536 52.1026 77.541 52.1187 77.5247 52.1304C77.5083 52.1421 77.489 52.1488 77.469 52.1499C77.4547 52.1518 77.4402 52.1486 77.428 52.1409Z" fill="#1F1F39"/>
<path d="M66.427 53.1139C66.8559 54.5829 67.6996 55.8968 68.857 56.8979L68.518 61.5809C68.518 61.5809 68.989 62.6119 71.485 62.6119C74.185 62.6119 74.932 61.5809 74.932 61.5809L74.8 56.9729C74.8 56.9729 76.486 56.7009 77.3 53.6669C77.787 51.804 77.9243 49.8669 77.705 47.9539C77.705 47.9539 73.717 48.5719 72.37 46.9229C71.023 45.2739 69.667 43.6169 67.708 44.4419C67.1475 44.7168 66.6927 45.1681 66.4136 45.7265C66.1345 46.285 66.0465 46.9196 66.163 47.5329C65.9358 49.3948 66.025 51.2818 66.427 53.1139Z" fill="#F9D2DD"/>
<path d="M69.734 50.9129C69.557 50.8966 69.3936 50.8113 69.2791 50.6755C69.1645 50.5396 69.1081 50.3641 69.122 50.1869C69.1084 50.0099 69.1649 49.8347 69.2795 49.699C69.394 49.5634 69.5572 49.4782 69.734 49.4619C69.9108 49.4782 70.074 49.5634 70.1886 49.699C70.3031 49.8347 70.3596 50.0099 70.346 50.1869C70.3599 50.3641 70.3035 50.5396 70.1889 50.6755C70.0744 50.8113 69.911 50.8966 69.734 50.9129Z" fill="#1F1F39"/>
<path d="M74.189 50.9129C74.0121 50.8966 73.8486 50.8113 73.7341 50.6755C73.6196 50.5396 73.5631 50.3641 73.577 50.1869C73.5634 50.0099 73.62 49.8347 73.7345 49.699C73.849 49.5634 74.0122 49.4782 74.189 49.4619C74.3658 49.4782 74.5291 49.5634 74.6436 49.699C74.7581 49.8347 74.8146 50.0099 74.801 50.1869C74.8149 50.3641 74.7585 50.5396 74.6439 50.6755C74.5294 50.8113 74.366 50.8966 74.189 50.9129Z" fill="#1F1F39"/>
<path d="M71.493 51.1849C71.7 51.5969 72.237 51.3909 72.237 51.3909C72.237 51.3909 71.7 51.2509 71.7 50.8389C71.7 50.4269 71.659 49.0169 71.659 49.0169C71.4835 49.7253 71.4274 50.458 71.493 51.1849Z" fill="#1F1F39"/>
<path d="M68.667 60.3109C68.708 60.2979 73.139 58.5879 73.973 57.8049C73.973 57.3269 73.99 56.9719 73.99 56.9719C73.1176 57.3445 72.1641 57.4864 71.221 57.3839C70.4078 57.3878 69.6027 57.2223 68.857 56.8979C68.867 57.3179 68.708 60.1459 68.667 60.3109Z" fill="#F9ACC0"/>
<path d="M75.304 52.7019C74.578 52.7019 73.99 52.3329 73.99 51.8769C73.99 51.4209 74.578 51.0529 75.304 51.0529C76.03 51.0529 76.618 51.4219 76.618 51.8769C76.618 52.3319 76.03 52.7019 75.304 52.7019Z" fill="#F9ACC0"/>
<path d="M68.353 52.7019C67.627 52.7019 67.039 52.3329 67.039 51.8769C67.039 51.4209 67.627 51.0529 68.353 51.0529C69.079 51.0529 69.667 51.4219 69.667 51.8769C69.667 52.3319 69.079 52.7019 68.353 52.7019Z" fill="#F9ACC0"/>
<path d="M69.684 53.7439C70.7478 54.07 71.88 54.1027 72.9609 53.8387C74.0418 53.5747 75.0313 53.0237 75.825 52.2439C76.792 51.1639 76.825 47.6929 76.825 47.6929L77.833 47.3629C77.833 47.3629 78.102 53.8239 76.792 55.5629C76.1825 56.3414 75.3843 56.9513 74.4731 57.3351C73.5619 57.7189 72.5678 57.8637 71.585 57.7559C70.7446 57.742 69.9196 57.5285 69.1781 57.133C68.4365 56.7374 67.7996 56.1711 67.32 55.4809C66.002 53.7439 65.502 47.6979 65.502 47.6979L66.163 46.5439C66.163 46.5439 66.702 52.9909 69.684 53.7439Z" fill="white"/>
<path d="M71.947 52.4799C72.3017 52.3315 72.6355 52.1375 72.94 51.9029C72.94 51.9029 73.105 51.8209 73.188 51.9029C73.1249 52.1478 73.0115 52.3769 72.855 52.5756C72.6985 52.7742 72.5023 52.9382 72.279 53.0569C72.0555 53.1309 71.8141 53.1308 71.5907 53.0566C71.3672 52.9824 71.1738 52.838 71.039 52.6449C70.791 52.3149 71.122 52.3969 71.122 52.3969C71.3873 52.4863 71.6693 52.5147 71.947 52.4799Z" fill="#F95368"/>
</svg>
