<svg width="164" height="119" viewBox="0 0 164 119" fill="none" xmlns="http://www.w3.org/2000/svg">
<path d="M106.196 98.581C106.145 98.5796 106.096 98.5661 106.051 98.5415C106.007 98.517 105.969 98.4822 105.941 98.44C105.923 98.4076 105.912 98.3719 105.908 98.335C105.903 98.2982 105.907 98.2608 105.917 98.2253C105.928 98.1897 105.945 98.1566 105.969 98.1279C105.992 98.0991 106.021 98.0754 106.054 98.058L107.539 97.252C107.582 97.23 107.63 97.2183 107.679 97.218C107.729 97.217 107.778 97.2302 107.821 97.256C107.864 97.2819 107.899 97.3193 107.921 97.364C107.939 97.3965 107.95 97.4321 107.954 97.469C107.958 97.5058 107.954 97.543 107.944 97.5785C107.933 97.614 107.916 97.647 107.893 97.6758C107.869 97.7045 107.841 97.7284 107.808 97.746L106.324 98.553C106.285 98.5754 106.241 98.5852 106.196 98.581ZM109.18 96.954C109.129 96.9527 109.08 96.9392 109.036 96.9146C108.991 96.8901 108.954 96.8552 108.926 96.813C108.908 96.7805 108.897 96.7449 108.893 96.708C108.889 96.6712 108.892 96.6339 108.903 96.5984C108.913 96.5629 108.931 96.5298 108.954 96.501C108.977 96.4723 109.006 96.4485 109.039 96.431L110.525 95.624C110.568 95.6025 110.616 95.5912 110.664 95.591C110.714 95.5897 110.764 95.6029 110.807 95.6289C110.851 95.655 110.886 95.6928 110.908 95.738C110.943 95.8059 110.951 95.8845 110.93 95.958C110.92 95.9927 110.903 96.025 110.879 96.0527C110.856 96.0804 110.827 96.103 110.795 96.119L109.308 96.926C109.269 96.949 109.225 96.9588 109.18 96.954Z" fill="#EAEAFF"/>
<path d="M69.364 92.254C69.3277 92.2553 69.2916 92.2494 69.2576 92.2366C69.2237 92.2238 69.1926 92.2044 69.1663 92.1794C69.1399 92.1544 69.1188 92.1245 69.1042 92.0913C69.0895 92.0581 69.0817 92.0223 69.081 91.986C69.0806 91.9115 69.1079 91.8396 69.1576 91.7841C69.2074 91.7287 69.2759 91.6937 69.35 91.686C69.9 91.671 70.462 91.628 71.019 91.558H71.046C71.1 91.5578 71.1529 91.573 71.1986 91.6017C71.2443 91.6305 71.2808 91.6717 71.3039 91.7205C71.327 91.7693 71.3357 91.8237 71.329 91.8773C71.3223 91.9308 71.3004 91.9814 71.266 92.023C71.2424 92.0515 71.2134 92.0751 71.1806 92.0923C71.1478 92.1094 71.1119 92.1199 71.075 92.123C70.485 92.189 69.925 92.23 69.364 92.254ZM67.664 92.24H67.652C67.0814 92.2124 66.5134 92.1456 65.952 92.04H65.938C65.9015 92.0341 65.8666 92.021 65.8353 92.0013C65.8041 91.9816 65.7771 91.9558 65.756 91.9255C65.7349 91.8952 65.7201 91.8609 65.7126 91.8247C65.705 91.7886 65.7048 91.7512 65.712 91.715C65.7225 91.6503 65.7558 91.5914 65.8058 91.5491C65.8559 91.5067 65.9194 91.4836 65.985 91.484C66.0023 91.4825 66.0197 91.4825 66.037 91.484H66.066C66.6027 91.5854 67.1462 91.6473 67.692 91.669C67.7667 91.6751 67.8362 91.7096 67.8863 91.7654C67.9363 91.8212 67.9631 91.8941 67.961 91.969C67.9537 92.0429 67.9198 92.1116 67.8655 92.1622C67.8111 92.2128 67.7402 92.2419 67.666 92.244L67.664 92.24ZM72.742 91.887C72.6713 91.8867 72.6033 91.8602 72.551 91.8127C72.4987 91.7652 72.4658 91.7 72.4587 91.6297C72.4516 91.5593 72.4708 91.4889 72.5126 91.4319C72.5544 91.3749 72.6158 91.3354 72.685 91.321C73.168 91.245 73.655 91.147 74.17 91.044L74.34 91.01C74.3576 91.0084 74.3754 91.0084 74.393 91.01C74.4579 91.0103 74.5209 91.0316 74.5727 91.0707C74.6244 91.1098 74.6621 91.1647 74.68 91.227C74.6925 91.2997 74.6778 91.3744 74.6387 91.437C74.5996 91.4995 74.5388 91.5454 74.468 91.566C73.968 91.679 73.433 91.778 72.785 91.877C72.7796 91.8822 72.7732 91.8861 72.7661 91.8886C72.759 91.891 72.7515 91.8918 72.744 91.891L72.742 91.887ZM64.332 91.678C64.3075 91.6804 64.2828 91.6756 64.261 91.664C63.731 91.532 63.179 91.364 62.62 91.169C62.5513 91.1414 62.4949 91.0899 62.461 91.024C62.4443 90.992 62.4346 90.9568 62.4327 90.9207C62.4308 90.8846 62.4367 90.8486 62.45 90.815C62.4705 90.7614 62.5064 90.715 62.5532 90.6817C62.6 90.6484 62.6556 90.6297 62.713 90.628C62.7441 90.6279 62.775 90.6336 62.804 90.645C63.271 90.81 63.779 90.963 64.404 91.127C64.4408 91.1366 64.4752 91.1534 64.5053 91.1766C64.5354 91.1998 64.5604 91.2289 64.579 91.262C64.5958 91.2922 64.6065 91.3254 64.6105 91.3597C64.6144 91.394 64.6116 91.4288 64.602 91.462C64.5892 91.5238 64.5552 91.5792 64.5059 91.6187C64.4566 91.6581 64.3951 91.6791 64.332 91.678ZM76.143 91.196H76.072C76.0014 91.1986 75.9325 91.1742 75.8793 91.1278C75.8261 91.0814 75.7925 91.0165 75.7853 90.9462C75.7782 90.876 75.7981 90.8057 75.8409 90.7495C75.8838 90.6934 75.9464 90.6557 76.016 90.644C76.539 90.517 77.099 90.359 77.641 90.206C77.6677 90.1987 77.6953 90.1949 77.723 90.195C77.7853 90.1945 77.8459 90.2148 77.8954 90.2527C77.9448 90.2905 77.9802 90.3438 77.996 90.404C78.0166 90.4775 78.0076 90.5561 77.971 90.623C77.9526 90.6558 77.9279 90.6846 77.8981 90.7076C77.8684 90.7306 77.8344 90.7474 77.798 90.757C77.263 90.908 76.693 91.065 76.143 91.195V91.196ZM61.132 90.561C61.0928 90.5598 61.0543 90.5503 61.019 90.533C60.394 90.246 59.904 89.999 59.477 89.755C59.4449 89.7387 59.4164 89.716 59.3934 89.6884C59.3703 89.6607 59.3532 89.6286 59.343 89.594C59.3315 89.5578 59.3275 89.5197 59.3311 89.4819C59.3347 89.4441 59.3459 89.4074 59.364 89.374C59.4001 89.3088 59.4604 89.2604 59.5319 89.2393C59.6033 89.2181 59.6802 89.226 59.746 89.261C60.275 89.561 60.761 89.802 61.232 90.011C61.2659 90.0254 61.2964 90.0465 61.322 90.0729C61.3475 90.0994 61.3674 90.1307 61.3806 90.1651C61.3937 90.1994 61.3999 90.2361 61.3986 90.2728C61.3973 90.3096 61.3886 90.3457 61.373 90.379C61.3577 90.4312 61.3261 90.4771 61.2826 90.5099C61.2392 90.5427 61.1864 90.5606 61.132 90.561ZM79.332 90.261C79.2718 90.2604 79.2133 90.2407 79.165 90.2047C79.1167 90.1688 79.081 90.1185 79.063 90.061C79.051 90.0256 79.0463 89.9882 79.0492 89.951C79.052 89.9137 79.0624 89.8775 79.0797 89.8444C79.097 89.8113 79.1209 89.7821 79.1498 89.7584C79.1787 89.7348 79.2121 89.7173 79.248 89.707L79.466 89.637C79.918 89.491 80.385 89.337 80.86 89.17C80.8896 89.1581 80.9211 89.152 80.953 89.152C81.0106 89.152 81.0667 89.1702 81.1134 89.204C81.1601 89.2377 81.1949 89.2853 81.213 89.34C81.2352 89.4093 81.2301 89.4845 81.1987 89.5501C81.1673 89.6157 81.1119 89.6669 81.044 89.693C80.461 89.893 79.914 90.074 79.417 90.231C79.3915 90.2481 79.3624 90.2594 79.332 90.264V90.261ZM82.543 89.144C82.4849 89.1437 82.4283 89.126 82.3803 89.0932C82.3324 89.0604 82.2954 89.014 82.274 88.96C82.2603 88.9255 82.2537 88.8886 82.2546 88.8515C82.2554 88.8144 82.2638 88.7778 82.279 88.744C82.2948 88.7089 82.3176 88.6775 82.346 88.6515C82.3743 88.6255 82.4077 88.6056 82.444 88.593L82.5 88.572C83 88.384 83.51 88.19 84.028 87.985C84.0598 87.9722 84.0937 87.9654 84.128 87.965C84.1747 87.9643 84.2209 87.9754 84.2623 87.9971C84.3036 88.0189 84.3389 88.0506 84.3648 88.0895C84.3908 88.1284 84.4066 88.1731 84.4108 88.2197C84.415 88.2662 84.4075 88.3131 84.389 88.356C84.375 88.39 84.3543 88.4209 84.3282 88.4468C84.3021 88.4727 84.2711 88.4932 84.237 88.507C83.849 88.66 83.457 88.807 83.079 88.95L82.639 89.116C82.6133 89.1375 82.5805 89.1485 82.547 89.147L82.543 89.144ZM58.189 88.892C58.1276 88.8925 58.0677 88.8725 58.019 88.835C57.519 88.468 57.07 88.117 56.661 87.76C56.6053 87.71 56.5712 87.6403 56.566 87.5657C56.5607 87.491 56.5848 87.4172 56.633 87.36C56.6599 87.33 56.6929 87.3061 56.7299 87.2899C56.7668 87.2737 56.8067 87.2655 56.847 87.266C56.9137 87.2653 56.9783 87.2887 57.029 87.332C57.4435 87.6991 57.8775 88.0436 58.329 88.364C58.3584 88.3841 58.3836 88.4098 58.403 88.4397C58.4224 88.4695 58.4356 88.503 58.442 88.538C58.4572 88.6148 58.4418 88.6944 58.399 88.76C58.3799 88.7995 58.3501 88.8328 58.3129 88.8561C58.2758 88.8794 58.2329 88.8919 58.189 88.892ZM150.216 88.736C149.884 88.7358 149.553 88.7073 149.226 88.651C149.19 88.6451 149.155 88.632 149.123 88.6123C149.092 88.5926 149.065 88.5669 149.044 88.5366C149.023 88.5062 149.008 88.472 149 88.4358C148.992 88.3996 148.992 88.3623 148.999 88.326C149.01 88.2614 149.043 88.2028 149.093 88.1605C149.143 88.1183 149.207 88.095 149.272 88.095C149.289 88.0935 149.307 88.0935 149.324 88.095C149.624 88.144 149.927 88.1688 150.23 88.169C150.466 88.1691 150.702 88.154 150.936 88.124H150.966C151.035 88.1208 151.102 88.1441 151.155 88.1891C151.207 88.2341 151.24 88.2974 151.247 88.366C151.255 88.4411 151.234 88.5165 151.189 88.577C151.167 88.6054 151.14 88.6289 151.109 88.6461C151.077 88.6633 151.043 88.6738 151.007 88.677H150.979C150.726 88.7095 150.471 88.7292 150.216 88.736ZM152.606 88.255C152.539 88.2557 152.475 88.2331 152.423 88.1913C152.371 88.1494 152.335 88.0908 152.322 88.0256C152.309 87.9603 152.318 87.8924 152.35 87.8336C152.381 87.7747 152.432 87.7286 152.493 87.703C153.007 87.5017 153.5 87.2505 153.965 86.953C154.009 86.9239 154.061 86.9086 154.114 86.909C154.163 86.9089 154.21 86.9206 154.253 86.9431C154.296 86.9655 154.333 86.9981 154.361 87.038C154.381 87.0694 154.395 87.1045 154.401 87.1413C154.408 87.178 154.406 87.2157 154.398 87.252C154.382 87.3259 154.338 87.3909 154.276 87.434C153.783 87.7449 153.262 88.01 152.72 88.226L152.668 88.241C152.648 88.2483 152.627 88.2526 152.606 88.254V88.255ZM147.67 88.114C147.63 88.1117 147.59 88.1032 147.552 88.089H147.542C147.018 87.8224 146.525 87.4999 146.071 87.127C146.041 87.104 146.016 87.0751 145.998 87.042C145.98 87.009 145.969 86.9726 145.965 86.935C145.962 86.8991 145.966 86.8629 145.977 86.8285C145.988 86.7942 146.006 86.7624 146.029 86.735C146.055 86.7015 146.088 86.6744 146.127 86.6559C146.165 86.6373 146.207 86.6278 146.249 86.628C146.314 86.6277 146.376 86.6508 146.425 86.693C146.841 87.0421 147.297 87.3411 147.783 87.584C147.817 87.6006 147.847 87.6236 147.871 87.6519C147.896 87.6801 147.914 87.7129 147.926 87.7485C147.938 87.784 147.943 87.8215 147.94 87.8589C147.937 87.8962 147.927 87.9326 147.91 87.966C147.888 88.0109 147.854 88.0487 147.812 88.0748C147.769 88.1008 147.72 88.1141 147.67 88.113V88.114ZM85.7 87.902C85.6459 87.9014 85.5931 87.8851 85.548 87.8551C85.5029 87.8251 85.4675 87.7827 85.446 87.733C85.4179 87.6637 85.4179 87.5863 85.446 87.517C85.4599 87.4828 85.4805 87.4517 85.5066 87.4256C85.5327 87.3995 85.5638 87.3789 85.598 87.365C86.063 87.177 86.557 86.965 87.154 86.701C87.1899 86.6864 87.2283 86.679 87.267 86.679C87.321 86.6775 87.3741 86.6922 87.4196 86.7212C87.4651 86.7503 87.5008 86.7924 87.522 86.842C87.5486 86.9112 87.5486 86.9878 87.522 87.057C87.51 87.0911 87.4908 87.1224 87.4658 87.1486C87.4408 87.1748 87.4106 87.1954 87.377 87.209C86.895 87.418 86.349 87.654 85.807 87.874C85.776 87.8961 85.7378 87.9057 85.7 87.901V87.902ZM55.643 86.643C55.6025 86.6431 55.5624 86.6341 55.5258 86.6168C55.4891 86.5995 55.4568 86.5743 55.431 86.543C55.0451 86.1144 54.6816 85.6661 54.342 85.2C54.3188 85.1709 54.3017 85.1373 54.2919 85.1014C54.2821 85.0655 54.2798 85.0279 54.285 84.991C54.2972 84.9164 54.3376 84.8494 54.398 84.804C54.446 84.7656 54.5055 84.7445 54.567 84.744C54.6112 84.7446 54.6547 84.7554 54.694 84.7755C54.7334 84.7956 54.7676 84.8245 54.794 84.86C55.1194 85.308 55.4689 85.738 55.841 86.148C55.8922 86.2075 55.9181 86.2847 55.913 86.363C55.9114 86.3974 55.9029 86.431 55.8882 86.4621C55.8734 86.4932 55.8526 86.521 55.827 86.544C55.8078 86.5753 55.7807 86.6009 55.7483 86.6183C55.716 86.6357 55.6797 86.6442 55.643 86.643ZM88.813 86.543C88.758 86.5453 88.7036 86.5301 88.6578 86.4996C88.612 86.469 88.577 86.4247 88.558 86.373C88.5415 86.3395 88.5321 86.3028 88.5305 86.2654C88.529 86.2281 88.5353 86.1908 88.549 86.156C88.5769 86.0846 88.6304 86.0262 88.699 85.992L89.185 85.764C89.533 85.601 89.885 85.434 90.227 85.27C90.2605 85.2531 90.2969 85.2429 90.3343 85.2402C90.3717 85.2375 90.4092 85.2422 90.4448 85.2541C90.4803 85.266 90.5131 85.2849 90.5413 85.3096C90.5695 85.3343 90.5925 85.3643 90.609 85.398C90.626 85.4314 90.6362 85.4678 90.6389 85.5051C90.6417 85.5425 90.6371 85.58 90.6253 85.6155C90.6135 85.651 90.5947 85.6839 90.5701 85.7121C90.5455 85.7403 90.5156 85.7634 90.482 85.78L90.076 85.973C89.701 86.151 89.314 86.335 88.94 86.502C88.9027 86.5282 88.8586 86.5428 88.813 86.544V86.543ZM155.492 86.501C155.452 86.5008 155.412 86.4917 155.375 86.4744C155.338 86.4572 155.306 86.4321 155.28 86.401C155.256 86.3711 155.238 86.3367 155.227 86.2998C155.216 86.2629 155.213 86.2242 155.217 86.186C155.222 86.1503 155.234 86.1159 155.252 86.0849C155.27 86.0538 155.294 86.0266 155.323 86.005C155.67 85.717 156.123 85.331 156.568 84.888C156.594 84.8617 156.625 84.8409 156.66 84.8267C156.694 84.8125 156.731 84.8052 156.768 84.8052C156.805 84.8052 156.842 84.8125 156.876 84.8267C156.911 84.8409 156.942 84.8617 156.968 84.888C156.994 84.9143 157.015 84.9454 157.029 84.9798C157.044 85.0141 157.051 85.0509 157.051 85.088C157.051 85.1251 157.044 85.1619 157.029 85.1962C157.015 85.2306 156.994 85.2617 156.968 85.288C156.562 85.693 156.145 86.073 155.694 86.448C155.63 86.4777 155.562 86.496 155.492 86.502V86.501ZM145.039 86.001C144.998 86.0028 144.958 85.9946 144.921 85.9771C144.884 85.9597 144.852 85.9336 144.827 85.901C144.534 85.564 144.253 85.212 143.993 84.854L143.88 84.699L143.766 84.543C143.724 84.4801 143.708 84.4033 143.721 84.3287C143.734 84.2541 143.776 84.1876 143.837 84.143C143.885 84.1107 143.942 84.0937 144 84.094C144.046 84.0933 144.091 84.1038 144.131 84.1245C144.172 84.1452 144.207 84.1756 144.233 84.213C144.294 84.299 144.368 84.403 144.459 84.524C144.702 84.8775 144.971 85.2118 145.265 85.524C145.313 85.5813 145.337 85.6551 145.332 85.7296C145.326 85.8042 145.293 85.8739 145.237 85.924C145.182 85.9719 145.112 86.0006 145.039 86.006V86.001ZM91.882 85.072C91.8296 85.0706 91.7784 85.0554 91.7337 85.028C91.689 85.0006 91.6522 84.962 91.627 84.916C91.61 84.8826 91.5999 84.8462 91.5971 84.8089C91.5943 84.7715 91.5989 84.734 91.6107 84.6985C91.6226 84.6629 91.6413 84.6301 91.6659 84.6019C91.6905 84.5736 91.7204 84.5506 91.754 84.534C92.254 84.278 92.768 84.02 93.268 83.77C93.3078 83.7502 93.3516 83.7399 93.396 83.74C93.4602 83.7401 93.5225 83.7618 93.5728 83.8017C93.6231 83.8416 93.6585 83.8973 93.6732 83.9597C93.6879 84.0222 93.681 84.0879 93.6538 84.146C93.6265 84.2041 93.5805 84.2513 93.523 84.28C93.192 84.445 92.859 84.618 92.537 84.78L92.009 85.053C91.9879 85.0536 91.9668 85.056 91.946 85.06C91.9251 85.0658 91.9036 85.0698 91.882 85.072ZM157.911 84.11C157.844 84.108 157.779 84.0834 157.727 84.04C157.672 83.9902 157.639 83.921 157.634 83.847C157.629 83.7744 157.652 83.7026 157.699 83.647C158.112 83.147 158.445 82.732 158.746 82.331C158.773 82.2957 158.807 82.2668 158.846 82.2467C158.885 82.2266 158.929 82.2158 158.973 82.215C159.034 82.2153 159.093 82.236 159.141 82.274C159.172 82.2972 159.198 82.3263 159.217 82.3596C159.237 82.3929 159.25 82.4297 159.255 82.468C159.259 82.5035 159.256 82.5395 159.246 82.5738C159.236 82.6081 159.219 82.6401 159.197 82.668C158.887 83.095 158.525 83.547 158.121 84.012C158.065 84.0694 157.991 84.1043 157.911 84.11ZM53.649 83.91C53.6 83.9098 53.5519 83.8967 53.5095 83.8719C53.4672 83.8472 53.4322 83.8117 53.408 83.769C53.1184 83.2719 52.8592 82.7576 52.632 82.229C52.6052 82.1595 52.6052 82.0825 52.632 82.013C52.6441 81.9789 52.6632 81.9476 52.6882 81.9214C52.7132 81.8952 52.7435 81.8746 52.777 81.861C52.8127 81.8469 52.8507 81.8398 52.889 81.84C52.9432 81.8383 52.9967 81.8531 53.0424 81.8824C53.0881 81.9116 53.1239 81.954 53.145 82.004C53.356 82.48 53.602 82.966 53.895 83.489C53.9299 83.5535 53.939 83.6288 53.9204 83.6997C53.9019 83.7707 53.857 83.8319 53.795 83.871C53.7513 83.8984 53.7006 83.9126 53.649 83.912V83.91ZM94.91 83.501C94.865 83.5004 94.8208 83.4895 94.7807 83.469C94.7407 83.4486 94.7058 83.4192 94.6789 83.3831C94.6521 83.347 94.6339 83.3053 94.6257 83.261C94.6176 83.2168 94.6197 83.1713 94.632 83.128C94.6419 83.0925 94.6591 83.0595 94.6825 83.0311C94.7059 83.0026 94.7351 82.9794 94.768 82.963L95.51 82.563L95.567 82.532L96.252 82.16C96.2954 82.138 96.3433 82.1263 96.392 82.126C96.4419 82.125 96.491 82.1382 96.5337 82.164C96.5764 82.1898 96.6108 82.2273 96.633 82.272C96.6679 82.3392 96.6761 82.417 96.656 82.49C96.6462 82.5255 96.629 82.5586 96.6056 82.587C96.5822 82.6154 96.553 82.6386 96.52 82.655C96.354 82.745 96.187 82.837 96.02 82.929C95.696 83.108 95.361 83.292 95.033 83.461C95.0167 83.4767 94.9971 83.4886 94.9757 83.4958C94.9543 83.5031 94.9315 83.5055 94.909 83.503L94.91 83.501ZM143.059 83.26C143.011 83.2612 142.964 83.2502 142.922 83.2279C142.88 83.2057 142.845 83.173 142.819 83.133C142.51 82.648 142.186 82.133 141.928 81.662C141.893 81.5951 141.885 81.5177 141.905 81.445C141.915 81.4097 141.932 81.3769 141.956 81.3486C141.979 81.3204 142.008 81.2973 142.041 81.281C142.084 81.259 142.132 81.2474 142.18 81.247C142.23 81.2461 142.279 81.2595 142.322 81.2855C142.365 81.3115 142.4 81.3491 142.422 81.394C142.715 81.915 142.998 82.387 143.285 82.837C143.305 82.8676 143.318 82.9018 143.325 82.9377C143.332 82.9736 143.331 83.0104 143.323 83.046C143.307 83.122 143.263 83.189 143.199 83.233C143.154 83.2494 143.106 83.2592 143.058 83.262L143.059 83.26ZM97.866 81.86C97.8171 81.8601 97.769 81.847 97.7268 81.8222C97.6846 81.7974 97.6498 81.7618 97.626 81.719C97.5901 81.6547 97.5805 81.5791 97.5991 81.5079C97.6178 81.4367 97.6632 81.3754 97.726 81.337C98.217 81.048 98.726 80.759 99.197 80.488C99.2402 80.462 99.2896 80.4482 99.34 80.448C99.4016 80.4477 99.4615 80.4679 99.5105 80.5052C99.5594 80.5426 99.5946 80.5951 99.6106 80.6546C99.6266 80.7141 99.6225 80.7772 99.5988 80.834C99.5752 80.8909 99.5334 80.9383 99.48 80.969C99.162 81.16 98.84 81.347 98.529 81.529L98.01 81.829C97.9643 81.8483 97.9156 81.8591 97.866 81.861V81.86ZM52.276 80.814C52.2157 80.8137 52.1571 80.7941 52.1087 80.7581C52.0603 80.7221 52.0247 80.6716 52.007 80.614C51.822 80.0715 51.6665 79.5193 51.541 78.96C51.5323 78.9237 51.5309 78.8861 51.5368 78.8493C51.5428 78.8125 51.556 78.7772 51.5758 78.7456C51.5955 78.7139 51.6213 78.6865 51.6518 78.665C51.6822 78.6434 51.7166 78.6281 51.753 78.62C51.7725 78.6166 51.7922 78.6149 51.812 78.615C51.8771 78.6122 51.941 78.6325 51.9925 78.6725C52.044 78.7124 52.0796 78.7693 52.093 78.833C52.209 79.333 52.357 79.865 52.546 80.446C52.5679 80.522 52.5589 80.6036 52.521 80.673C52.5043 80.7036 52.4816 80.7305 52.4543 80.7521C52.427 80.7738 52.3956 80.7897 52.362 80.799C52.3349 80.8107 52.3055 80.8159 52.276 80.814ZM141.417 80.291C141.363 80.2904 141.31 80.274 141.264 80.2438C141.219 80.2136 141.183 80.171 141.162 80.121C140.931 79.586 140.747 79.0323 140.61 78.466C140.595 78.393 140.608 78.3169 140.648 78.2537C140.687 78.1905 140.75 78.1451 140.822 78.127C140.841 78.1236 140.861 78.122 140.88 78.122C140.945 78.1213 141.007 78.1424 141.059 78.182C141.11 78.2216 141.146 78.2773 141.161 78.34C141.287 78.8739 141.462 79.3948 141.685 79.896C141.7 79.9319 141.708 79.9705 141.708 80.0095C141.708 80.0485 141.7 80.0871 141.685 80.123C141.67 80.1555 141.649 80.1847 141.623 80.2088C141.597 80.2328 141.566 80.2513 141.532 80.263C141.497 80.2809 141.458 80.2908 141.418 80.292L141.417 80.291ZM100.793 80.135C100.744 80.1364 100.695 80.1239 100.653 80.099C100.61 80.0741 100.576 80.0377 100.553 79.994C100.533 79.9633 100.52 79.9288 100.513 79.8927C100.507 79.8566 100.508 79.8196 100.517 79.784C100.526 79.7455 100.542 79.7092 100.566 79.6773C100.589 79.6453 100.618 79.6183 100.652 79.598L101.373 79.152L102.094 78.707C102.138 78.6773 102.191 78.6617 102.244 78.662C102.292 78.6621 102.34 78.6739 102.383 78.6963C102.426 78.7188 102.462 78.7513 102.49 78.791C102.51 78.8224 102.524 78.8575 102.53 78.8942C102.537 78.931 102.535 78.9687 102.527 79.005C102.511 79.0789 102.467 79.1439 102.405 79.187C102.241 79.287 102.076 79.387 101.912 79.494C101.599 79.694 101.278 79.894 100.962 80.078C100.913 80.1137 100.854 80.1339 100.793 80.136V80.135ZM103.678 78.324C103.63 78.3252 103.583 78.3142 103.541 78.2919C103.499 78.2697 103.464 78.237 103.438 78.197C103.399 78.1319 103.386 78.0545 103.402 77.9803C103.418 77.9061 103.461 77.8406 103.523 77.797C103.978 77.503 104.423 77.204 104.86 76.915L104.938 76.863C104.986 76.8313 105.042 76.8146 105.1 76.815C105.146 76.814 105.191 76.8244 105.232 76.8451C105.273 76.8659 105.308 76.8964 105.334 76.934C105.375 76.9973 105.391 77.0737 105.378 77.148C105.372 77.1846 105.359 77.2197 105.34 77.251C105.32 77.2823 105.294 77.3092 105.263 77.33C105.019 77.493 104.763 77.659 104.523 77.819C104.297 77.968 104.071 78.119 103.849 78.264C103.799 78.2995 103.74 78.3206 103.679 78.325L103.678 78.324ZM51.554 77.519C51.5484 77.514 51.5417 77.5102 51.5344 77.5079C51.5272 77.5057 51.5195 77.505 51.512 77.506C51.444 77.5062 51.3782 77.4821 51.3263 77.4381C51.2744 77.3941 51.24 77.3331 51.229 77.266C51.1433 76.6986 51.0865 76.1272 51.059 75.554C51.0562 75.5162 51.0612 75.4782 51.0738 75.4424C51.0863 75.4066 51.1062 75.3738 51.132 75.346C51.1572 75.3179 51.188 75.2955 51.2225 75.2801C51.257 75.2648 51.2943 75.2569 51.332 75.257H51.352C51.4236 75.2575 51.4921 75.2859 51.5431 75.3361C51.5941 75.3863 51.6235 75.4545 51.625 75.526C51.6522 76.0853 51.709 76.6427 51.795 77.196C51.8059 77.271 51.7867 77.3473 51.7415 77.4082C51.6964 77.4691 51.629 77.5096 51.554 77.521V77.519ZM140.724 76.996H140.71C140.633 76.9889 140.562 76.9532 140.51 76.896C140.485 76.8695 140.466 76.838 140.454 76.8035C140.441 76.769 140.437 76.7324 140.44 76.696C140.47 76.1016 140.59 75.515 140.794 74.956C140.815 74.9012 140.851 74.854 140.899 74.8205C140.947 74.7869 141.004 74.7686 141.063 74.768C141.109 74.7681 141.155 74.7793 141.196 74.8007C141.237 74.8221 141.272 74.853 141.298 74.8909C141.324 74.9288 141.341 74.9725 141.347 75.0183C141.353 75.0641 141.348 75.1106 141.332 75.154C141.145 75.6579 141.035 76.1872 141.006 76.724C141.004 76.797 140.973 76.8661 140.921 76.9169C140.868 76.9677 140.798 76.996 140.725 76.996H140.724ZM106.493 76.43C106.447 76.4309 106.402 76.4197 106.362 76.3973C106.322 76.375 106.289 76.3425 106.266 76.303C106.225 76.2397 106.209 76.1633 106.222 76.089C106.228 76.0524 106.241 76.0173 106.26 75.9859C106.28 75.9546 106.306 75.9277 106.337 75.907L106.372 75.883C106.819 75.571 107.282 75.248 107.723 74.931C107.77 74.8997 107.825 74.883 107.882 74.883C107.928 74.8835 107.973 74.8945 108.015 74.9153C108.056 74.9361 108.091 74.9661 108.119 75.003C108.162 75.0657 108.178 75.1425 108.165 75.2172C108.152 75.2918 108.11 75.3584 108.049 75.403L107.854 75.543C107.465 75.823 107.063 76.112 106.662 76.379C106.614 76.4147 106.554 76.4327 106.494 76.43H106.493ZM109.252 74.454C109.208 74.4529 109.165 74.4422 109.126 74.4227C109.087 74.4031 109.052 74.3753 109.025 74.341C109.002 74.312 108.985 74.2786 108.975 74.2428C108.966 74.207 108.964 74.1697 108.969 74.133C108.982 74.0583 109.022 73.9912 109.082 73.945C109.528 73.611 109.988 73.266 110.426 72.927C110.474 72.8886 110.534 72.8675 110.595 72.867C110.639 72.8676 110.683 72.8784 110.722 72.8985C110.761 72.9186 110.796 72.9475 110.822 72.983C110.846 73.0125 110.863 73.0466 110.873 73.0831C110.883 73.1197 110.885 73.1579 110.88 73.1953C110.875 73.2328 110.862 73.2688 110.842 73.3011C110.822 73.3334 110.796 73.3612 110.765 73.383C110.379 73.683 109.935 74.02 109.407 74.416L109.377 74.427C109.337 74.4434 109.295 74.4525 109.252 74.454ZM51.301 74.124C51.2638 74.1241 51.2269 74.1169 51.1924 74.1027C51.158 74.0886 51.1266 74.0678 51.1003 74.0415C51.0739 74.0152 51.0529 73.9839 51.0387 73.9495C51.0244 73.9151 51.017 73.8782 51.017 73.841C51.031 73.285 51.046 72.71 51.103 72.129C51.1076 72.0582 51.1397 71.9919 51.1923 71.9443C51.245 71.8967 51.3141 71.8715 51.385 71.874H51.414C51.4506 71.8773 51.4861 71.8878 51.5186 71.905C51.551 71.9221 51.5797 71.9456 51.603 71.974C51.6275 72.003 51.6459 72.0366 51.6572 72.0729C51.6686 72.1091 51.6726 72.1472 51.669 72.185C51.628 72.737 51.599 73.299 51.584 73.854C51.5807 73.9268 51.5494 73.9955 51.4967 74.0458C51.444 74.096 51.3739 74.1241 51.301 74.124ZM141.801 73.814C141.751 73.8132 141.702 73.7987 141.659 73.772C141.625 73.7523 141.596 73.7259 141.572 73.6945C141.549 73.663 141.532 73.6271 141.523 73.589C141.515 73.5549 141.514 73.5196 141.521 73.4852C141.527 73.4508 141.541 73.418 141.56 73.389C141.825 72.938 142.131 72.466 142.494 71.946C142.52 71.9085 142.555 71.878 142.596 71.8573C142.636 71.8365 142.681 71.8261 142.727 71.827C142.785 71.8268 142.842 71.8438 142.89 71.876C142.919 71.8961 142.945 71.9218 142.964 71.9517C142.983 71.9815 142.997 72.015 143.003 72.05C143.018 72.1268 143.003 72.2064 142.96 72.272L142.932 72.314C142.565 72.857 142.276 73.286 142.055 73.673C142.029 73.7174 141.992 73.7539 141.947 73.7786C141.902 73.8032 141.851 73.8151 141.8 73.813L141.801 73.814ZM111.941 72.371C111.897 72.3699 111.854 72.3592 111.815 72.3397C111.776 72.3201 111.741 72.2923 111.714 72.258C111.689 72.2295 111.671 72.1962 111.66 72.1602C111.648 72.1243 111.645 72.0864 111.649 72.0489C111.652 72.0114 111.664 71.9752 111.683 71.9423C111.701 71.9095 111.726 71.8808 111.756 71.858C112.274 71.441 112.704 71.089 113.072 70.783C113.124 70.7419 113.188 70.719 113.254 70.718C113.296 70.718 113.336 70.7277 113.374 70.7463C113.411 70.7649 113.443 70.7918 113.468 70.825C113.491 70.8524 113.509 70.8842 113.52 70.9185C113.531 70.9529 113.535 70.9891 113.532 71.025C113.529 71.0629 113.518 71.0997 113.499 71.1331C113.481 71.1665 113.456 71.1957 113.426 71.219C113.032 71.546 112.59 71.907 112.11 72.294C112.088 72.3178 112.062 72.3369 112.033 72.3501C112.004 72.3633 111.972 72.3705 111.94 72.371H111.941ZM143.697 71.013C143.636 71.0135 143.576 70.9935 143.527 70.956C143.498 70.9361 143.472 70.9106 143.453 70.8809C143.433 70.8512 143.42 70.8179 143.413 70.783C143.397 70.706 143.412 70.626 143.455 70.56C143.745 70.146 144.072 69.677 144.417 69.174C144.443 69.1363 144.478 69.1055 144.518 69.0846C144.559 69.0636 144.604 69.0531 144.65 69.054C144.708 69.0535 144.765 69.0702 144.813 69.102C144.843 69.1219 144.868 69.1474 144.887 69.1771C144.907 69.2068 144.92 69.2401 144.927 69.275C144.943 69.352 144.928 69.432 144.885 69.498C144.644 69.86 144.406 70.198 144.176 70.52C144.084 70.65 143.995 70.7763 143.909 70.899C143.889 70.9371 143.858 70.9684 143.819 70.9887C143.781 71.009 143.738 71.0175 143.695 71.013H143.697ZM51.583 70.743H51.541C51.4677 70.7284 51.4025 70.6871 51.3581 70.627C51.3137 70.5668 51.2934 70.4923 51.301 70.418C51.388 69.848 51.488 69.282 51.601 68.734C51.6141 68.6681 51.6499 68.6089 51.7022 68.5667C51.7544 68.5245 51.8198 68.5019 51.887 68.503C51.9046 68.5014 51.9224 68.5014 51.94 68.503C51.9759 68.5096 52.0101 68.5232 52.0407 68.5431C52.0712 68.563 52.0975 68.5888 52.118 68.619C52.163 68.6844 52.1803 68.7649 52.166 68.843C52.054 69.392 51.954 69.949 51.866 70.498C51.8536 70.5649 51.8188 70.6255 51.7674 70.6701C51.716 70.7146 51.651 70.7403 51.583 70.743ZM114.556 70.191C114.515 70.1927 114.475 70.1846 114.438 70.1671C114.401 70.1497 114.369 70.1236 114.344 70.091C114.297 70.0355 114.273 69.9637 114.278 69.891C114.283 69.8168 114.317 69.7475 114.372 69.698C114.783 69.342 115.207 68.961 115.631 68.567C115.687 68.519 115.758 68.4931 115.831 68.494C115.869 68.4934 115.906 68.5009 115.94 68.5159C115.975 68.5309 116.006 68.5531 116.031 68.581C116.082 68.6405 116.108 68.7177 116.103 68.796C116.101 68.8304 116.093 68.8641 116.078 68.8951C116.063 68.9262 116.043 68.954 116.017 68.977C115.549 69.412 115.133 69.777 114.744 70.108C114.695 70.1592 114.627 70.1893 114.556 70.192V70.191ZM145.604 68.197C145.549 68.1962 145.496 68.1818 145.448 68.155C145.384 68.1131 145.339 68.0475 145.323 67.9725C145.307 67.8976 145.321 67.8194 145.363 67.755C145.641 67.326 145.915 66.868 146.226 66.312C146.255 66.2654 146.296 66.228 146.346 66.2044C146.395 66.1808 146.45 66.172 146.505 66.179C146.559 66.1859 146.61 66.2084 146.652 66.2437C146.694 66.279 146.725 66.3256 146.741 66.378C146.751 66.4144 146.753 66.4524 146.747 66.4897C146.741 66.5269 146.728 66.5625 146.707 66.594C146.46 67.027 146.162 67.54 145.83 68.051C145.812 68.0959 145.781 68.1341 145.74 68.1603C145.7 68.1865 145.652 68.1993 145.604 68.197ZM117.06 67.897C117.023 67.8969 116.986 67.8893 116.951 67.8747C116.917 67.8601 116.886 67.8388 116.86 67.812C116.834 67.7859 116.813 67.7547 116.8 67.7202C116.787 67.6858 116.78 67.6489 116.782 67.612C116.783 67.5741 116.791 67.5368 116.807 67.5023C116.823 67.4679 116.846 67.4372 116.874 67.412C117.252 67.047 117.681 66.633 118.074 66.224C118.127 66.171 118.199 66.1412 118.274 66.1412C118.349 66.1412 118.421 66.171 118.474 66.224C118.527 66.277 118.557 66.349 118.557 66.424C118.557 66.499 118.527 66.571 118.474 66.624C118.029 67.084 117.631 67.478 117.257 67.824C117.201 67.8698 117.132 67.8964 117.06 67.9V67.897ZM52.26 67.416C52.2358 67.4184 52.2114 67.4135 52.19 67.402C52.1533 67.3924 52.1188 67.3756 52.0887 67.3524C52.0587 67.3292 52.0336 67.3001 52.015 67.267C51.9982 67.2368 51.9875 67.2036 51.9835 67.1693C51.9796 67.135 51.9825 67.1002 51.992 67.067C52.128 66.551 52.283 66.04 52.473 65.426C52.4895 65.3672 52.5251 65.3157 52.5742 65.2794C52.6232 65.2432 52.683 65.2244 52.744 65.226C52.7721 65.226 52.8001 65.23 52.827 65.238C52.8607 65.2474 52.8921 65.2635 52.9194 65.2854C52.9467 65.3072 52.9694 65.3343 52.986 65.365C53.0236 65.4345 53.0322 65.5161 53.01 65.592L52.99 65.655C52.83 66.164 52.665 66.688 52.529 67.204C52.516 67.2651 52.4823 67.3199 52.4337 67.3592C52.3851 67.3986 52.3245 67.42 52.262 67.42L52.26 67.416ZM119.432 65.468C119.359 65.4664 119.289 65.4415 119.232 65.397C119.204 65.3718 119.181 65.3411 119.165 65.3066C119.149 65.2722 119.141 65.2349 119.14 65.197C119.138 65.1601 119.145 65.1232 119.158 65.0888C119.171 65.0543 119.192 65.0231 119.218 64.997C119.626 64.544 119.991 64.137 120.335 63.738C120.362 63.708 120.395 63.6841 120.432 63.6678C120.469 63.6516 120.51 63.6435 120.55 63.644C120.616 63.6433 120.681 63.6667 120.731 63.71C120.786 63.7596 120.82 63.8289 120.825 63.903C120.83 63.9756 120.807 64.0474 120.76 64.103C120.417 64.515 120.06 64.913 119.629 65.39C119.575 65.4384 119.505 65.466 119.432 65.468ZM147.288 65.254C147.247 65.2516 147.206 65.2428 147.168 65.228H147.161C147.127 65.2115 147.097 65.1885 147.073 65.1603C147.048 65.1321 147.029 65.0992 147.017 65.0637C147.006 65.0281 147.001 64.9905 147.004 64.9531C147.007 64.9158 147.017 64.8793 147.034 64.846C147.097 64.718 147.172 64.569 147.26 64.408C147.427 64.075 147.598 63.708 147.76 63.333C147.782 63.2808 147.819 63.2364 147.867 63.2052C147.914 63.1741 147.969 63.1577 148.026 63.158C148.06 63.1583 148.094 63.1651 148.126 63.178C148.16 63.192 148.191 63.2126 148.217 63.2387C148.243 63.2648 148.264 63.2958 148.278 63.33C148.306 63.3989 148.306 63.4761 148.278 63.545C148.107 63.965 147.936 64.345 147.769 64.663C147.726 64.763 147.677 64.849 147.63 64.936C147.6 64.992 147.57 65.047 147.543 65.101C147.517 65.1465 147.481 65.1845 147.436 65.2113C147.391 65.2382 147.34 65.2529 147.288 65.254ZM53.308 64.194C53.2741 64.1961 53.2401 64.1913 53.208 64.18C53.1374 64.1528 53.0802 64.0991 53.0486 64.0304C53.0171 63.9616 53.0136 63.8833 53.039 63.812C53.268 63.206 53.476 62.688 53.675 62.228C53.6954 62.1781 53.7302 62.1355 53.7748 62.1054C53.8195 62.0753 53.8721 62.0592 53.926 62.059C53.967 62.0589 54.0074 62.0685 54.044 62.087C54.0785 62.1008 54.1097 62.1216 54.1357 62.1481C54.1617 62.1746 54.1819 62.2063 54.195 62.241C54.2086 62.2753 54.2148 62.3121 54.2133 62.349C54.2117 62.3858 54.2024 62.422 54.186 62.455C53.979 62.933 53.771 63.442 53.55 64.011C53.5363 64.0643 53.5049 64.1115 53.4609 64.1447C53.417 64.1779 53.3631 64.1953 53.308 64.194ZM121.632 62.879C121.57 62.8822 121.509 62.8618 121.462 62.822C121.402 62.7761 121.362 62.7085 121.352 62.6337C121.341 62.5588 121.36 62.4828 121.405 62.422C121.749 61.982 122.091 61.512 122.395 61.064C122.421 61.0265 122.456 60.996 122.497 60.9753C122.538 60.9545 122.583 60.9441 122.629 60.945C122.681 60.9441 122.732 60.9577 122.777 60.9843C122.822 61.0109 122.859 61.0494 122.883 61.0956C122.907 61.1418 122.918 61.1938 122.914 61.2458C122.91 61.2977 122.892 61.3477 122.862 61.39C122.517 61.89 122.184 62.344 121.843 62.776C121.818 62.8078 121.786 62.8335 121.749 62.8513C121.713 62.8692 121.673 62.8786 121.632 62.879ZM148.606 62.129C148.577 62.1314 148.548 62.1266 148.521 62.115C148.487 62.1058 148.455 62.0898 148.428 62.0679C148.4 62.0461 148.378 62.0189 148.361 61.988C148.342 61.9537 148.33 61.9159 148.326 61.8769C148.322 61.8379 148.326 61.7985 148.337 61.761C148.524 61.182 148.672 60.654 148.79 60.148C148.805 60.0855 148.841 60.0301 148.892 59.9907C148.943 59.9513 149.006 59.9303 149.07 59.931C149.09 59.9312 149.11 59.9332 149.129 59.937C149.202 59.9546 149.264 59.9999 149.304 60.0633C149.344 60.1267 149.357 60.203 149.341 60.276C149.201 60.835 149.041 61.392 148.875 61.931C148.857 61.9888 148.82 62.0392 148.772 62.075C148.723 62.1108 148.664 62.1301 148.603 62.13L148.606 62.129ZM54.652 61.083C54.6084 61.0802 54.5655 61.0704 54.525 61.054C54.4914 61.0374 54.4615 61.0144 54.4369 60.9861C54.4123 60.9579 54.3936 60.9251 54.3817 60.8895C54.3699 60.854 54.3653 60.8165 54.3681 60.7791C54.3709 60.7418 54.381 60.7054 54.398 60.672C54.486 60.486 54.581 60.299 54.673 60.119L54.794 59.88L54.814 59.841C54.933 59.616 55.055 59.384 55.19 59.141C55.207 59.1078 55.2308 59.0787 55.2599 59.0553C55.289 59.032 55.3226 59.0151 55.3587 59.0056C55.3947 58.9962 55.4323 58.9945 55.4691 59.0006C55.5059 59.0067 55.5409 59.0204 55.572 59.041C55.6048 59.0573 55.6336 59.0805 55.6565 59.109C55.6795 59.1374 55.696 59.1705 55.705 59.206C55.7151 59.2425 55.7172 59.2807 55.7114 59.3182C55.7055 59.3556 55.6917 59.3913 55.671 59.423C55.541 59.644 55.412 59.883 55.289 60.13C55.23 60.248 55.167 60.369 55.105 60.491C55.032 60.633 54.96 60.772 54.893 60.908C54.8737 60.9571 54.8407 60.9996 54.798 61.0306C54.7553 61.0616 54.7047 61.0798 54.652 61.083ZM123.552 60.083C123.502 60.0821 123.453 60.0675 123.411 60.041C123.347 60.0031 123.301 59.9417 123.283 59.87C123.264 59.7983 123.274 59.7222 123.311 59.658C123.599 59.1812 123.864 58.6902 124.103 58.187C124.119 58.1517 124.141 58.1199 124.169 58.0935C124.198 58.0672 124.231 58.0468 124.267 58.0338C124.304 58.0207 124.342 58.0151 124.381 58.0174C124.419 58.0197 124.457 58.0298 124.491 58.0471C124.526 58.0644 124.557 58.0885 124.582 58.118C124.606 58.1475 124.625 58.1818 124.636 58.2187C124.648 58.2556 124.651 58.2945 124.647 58.3329C124.643 58.3712 124.631 58.4084 124.612 58.442C124.34 59.002 124.072 59.497 123.791 59.955C123.763 59.9918 123.727 60.0219 123.686 60.0432C123.645 60.0644 123.599 60.0763 123.553 60.078L123.552 60.083ZM149.41 58.834H149.368C149.332 58.8277 149.297 58.8143 149.266 58.7945C149.234 58.7746 149.207 58.7488 149.186 58.7185C149.165 58.6881 149.15 58.6539 149.143 58.6178C149.135 58.5817 149.134 58.5443 149.141 58.508C149.232 58.003 149.306 57.457 149.368 56.839C149.375 56.7686 149.409 56.7035 149.461 56.6562C149.514 56.609 149.582 56.5829 149.653 56.583H149.68C149.755 56.5908 149.824 56.6279 149.871 56.6861C149.919 56.7443 149.942 56.819 149.935 56.894C149.869 57.555 149.794 58.111 149.708 58.594C149.69 58.6602 149.651 58.7191 149.598 58.7621C149.544 58.8052 149.479 58.8304 149.41 58.834ZM56.332 58.141C56.2771 58.1421 56.223 58.1275 56.176 58.099C56.1437 58.0772 56.1163 58.0489 56.0953 58.0161C56.0743 57.9833 56.0603 57.9465 56.054 57.908C56.0479 57.8722 56.0492 57.8354 56.058 57.8002C56.0668 57.7649 56.0828 57.7318 56.105 57.703C56.405 57.263 56.746 56.796 57.105 56.317C57.1312 56.2825 57.1651 56.2547 57.204 56.2356C57.2429 56.2165 57.2857 56.2067 57.329 56.207C57.3903 56.2073 57.4502 56.2257 57.501 56.26C57.5611 56.3059 57.6008 56.3735 57.6114 56.4483C57.6221 56.5232 57.6029 56.5992 57.558 56.66C57.258 57.045 56.979 57.438 56.709 57.819L56.568 58.019C56.5407 58.0561 56.5052 58.0864 56.4643 58.1075C56.4233 58.1287 56.3781 58.1402 56.332 58.141ZM125.02 57.023C124.986 57.0256 124.952 57.0208 124.92 57.009C124.849 56.9829 124.791 56.9295 124.759 56.8607C124.727 56.7919 124.724 56.7132 124.75 56.642C124.901 56.2161 125.029 55.7821 125.132 55.342C125.146 55.293 125.157 55.242 125.168 55.194C125.179 55.146 125.189 55.094 125.204 55.045C125.219 54.9823 125.255 54.9266 125.307 54.887C125.358 54.8474 125.42 54.8263 125.485 54.827C125.504 54.827 125.524 54.8286 125.543 54.832C125.615 54.8501 125.678 54.8955 125.717 54.9587C125.757 55.0219 125.77 55.098 125.755 55.171C125.741 55.22 125.73 55.271 125.72 55.319C125.71 55.367 125.699 55.419 125.684 55.468C125.576 55.9337 125.439 56.3923 125.274 56.841C125.257 56.8941 125.224 56.9404 125.179 56.9732C125.134 57.006 125.08 57.0234 125.024 57.023H125.02ZM149.732 55.454C149.695 55.454 149.658 55.4467 149.623 55.4324C149.589 55.4181 149.558 55.3972 149.531 55.3708C149.505 55.3444 149.484 55.3131 149.47 55.2787C149.455 55.2442 149.448 55.2073 149.448 55.17V54.704C149.448 54.316 149.435 53.936 149.422 53.568V53.502C149.419 53.4679 149.423 53.4336 149.433 53.401C149.443 53.3684 149.46 53.3381 149.482 53.312C149.534 53.2502 149.609 53.2117 149.69 53.205H149.714C149.785 53.2081 149.852 53.2373 149.902 53.287C149.953 53.3367 149.983 53.4033 149.987 53.474C150.016 53.882 150.03 54.297 150.03 54.705V55.186C150.022 55.2596 149.987 55.3276 149.932 55.3771C149.877 55.4265 149.806 55.4539 149.732 55.454ZM58.401 55.439C58.3334 55.4367 58.2686 55.4117 58.217 55.368C58.1613 55.318 58.1272 55.2483 58.122 55.1737C58.1167 55.099 58.1408 55.0252 58.189 54.968C58.53 54.558 58.889 54.16 59.32 53.681C59.3458 53.6519 59.3775 53.6286 59.4131 53.6127C59.4486 53.5969 59.4871 53.5888 59.526 53.589C59.5613 53.5889 59.5962 53.5957 59.6288 53.6091C59.6614 53.6225 59.691 53.6421 59.716 53.667C59.7443 53.6922 59.7671 53.7229 59.783 53.7574C59.7988 53.7918 59.8073 53.8291 59.808 53.867C59.8096 53.9039 59.8035 53.9408 59.7901 53.9752C59.7767 54.0097 59.7562 54.0409 59.73 54.067C59.33 54.495 58.959 54.924 58.612 55.326C58.5903 55.3621 58.5592 55.3916 58.5221 55.4115C58.4849 55.4314 58.4431 55.4409 58.401 55.439ZM125.901 53.754C125.876 53.7577 125.851 53.7528 125.83 53.74C125.793 53.7303 125.759 53.7134 125.729 53.6902C125.699 53.6671 125.674 53.6381 125.655 53.6052C125.637 53.5722 125.625 53.5358 125.621 53.4981C125.616 53.4605 125.619 53.4224 125.63 53.386C125.767 52.886 125.93 52.352 126.13 51.745C126.149 51.6866 126.187 51.6359 126.237 51.6C126.287 51.5641 126.347 51.5448 126.408 51.545C126.433 51.545 126.459 51.5487 126.483 51.556C126.553 51.5811 126.61 51.6314 126.644 51.697C126.678 51.7626 126.686 51.8387 126.667 51.91C126.499 52.41 126.328 52.972 126.167 53.523C126.157 53.5868 126.125 53.6451 126.076 53.6874C126.028 53.7297 125.966 53.7533 125.901 53.754ZM60.692 52.935C60.6547 52.9349 60.6178 52.9273 60.5834 52.9127C60.5491 52.8981 60.518 52.8768 60.492 52.85C60.4648 52.8243 60.4431 52.7933 60.4282 52.7589C60.4134 52.7245 60.4058 52.6875 60.4058 52.65C60.4058 52.6125 60.4134 52.5755 60.4282 52.5411C60.4431 52.5067 60.4648 52.4757 60.492 52.45C60.746 52.187 61.007 51.929 61.283 51.656C61.4163 51.5227 61.5533 51.3867 61.694 51.248C61.7471 51.1948 61.8189 51.1643 61.894 51.163C61.9304 51.1626 61.9664 51.17 61.9997 51.1846C62.033 51.1993 62.0628 51.2209 62.087 51.248C62.1149 51.2756 62.1369 51.3087 62.1515 51.3452C62.1661 51.3816 62.1731 51.4207 62.172 51.46C62.1714 51.4949 62.1635 51.5293 62.1488 51.5609C62.1342 51.5926 62.1131 51.6209 62.087 51.644C61.941 51.7907 61.7953 51.9353 61.65 52.078C61.383 52.342 61.131 52.591 60.885 52.846C60.8603 52.8728 60.8305 52.8945 60.7974 52.9097C60.7643 52.925 60.7285 52.9336 60.692 52.935ZM149.551 52.086C149.551 52.073 149.537 52.073 149.523 52.073C149.455 52.0728 149.389 52.0486 149.338 52.0047C149.286 51.9607 149.251 51.8999 149.24 51.833C149.164 51.323 149.06 50.806 148.915 50.207C148.905 50.1699 148.903 50.1312 148.908 50.0932C148.914 50.0552 148.927 50.0187 148.947 49.986C148.965 49.9559 148.989 49.9298 149.018 49.9094C149.046 49.8889 149.079 49.8745 149.113 49.867C149.137 49.8605 149.161 49.8571 149.186 49.857C149.248 49.8563 149.307 49.8767 149.356 49.9147C149.404 49.9527 149.438 50.0061 149.452 50.066C149.597 50.6259 149.71 51.1935 149.791 51.766C149.797 51.8006 149.797 51.8361 149.789 51.8704C149.781 51.9047 149.767 51.9372 149.747 51.966C149.724 51.9989 149.694 52.0268 149.659 52.0481C149.625 52.0694 149.587 52.0836 149.547 52.09L149.551 52.086ZM63.126 50.559C63.047 50.5584 62.9711 50.5277 62.914 50.473C62.8877 50.447 62.8672 50.4157 62.8538 50.3813C62.8403 50.3468 62.8343 50.3099 62.836 50.273C62.8367 50.2351 62.8452 50.1978 62.861 50.1634C62.8769 50.1289 62.8997 50.0982 62.928 50.073L63.154 49.863C63.486 49.555 63.829 49.236 64.186 48.913C64.2415 48.865 64.3127 48.8391 64.386 48.84C64.4236 48.8394 64.4609 48.8469 64.4954 48.8619C64.5299 48.8769 64.5608 48.8991 64.586 48.927C64.6371 48.9819 64.6644 49.0547 64.6619 49.1297C64.6595 49.2046 64.6275 49.2755 64.573 49.327C64.339 49.545 64.103 49.761 63.873 49.969C63.685 50.141 63.5023 50.3077 63.325 50.469C63.2704 50.5201 63.2005 50.5518 63.126 50.559ZM126.976 50.53C126.942 50.5325 126.908 50.5277 126.876 50.516C126.842 50.5023 126.812 50.4821 126.786 50.4566C126.76 50.431 126.74 50.4005 126.726 50.367C126.697 50.2972 126.697 50.2188 126.726 50.149C126.926 49.624 127.153 49.129 127.372 48.649L127.405 48.577C127.421 48.5417 127.443 48.5099 127.471 48.4835C127.5 48.4572 127.533 48.4369 127.569 48.4238C127.606 48.4107 127.644 48.4051 127.683 48.4074C127.721 48.4097 127.759 48.4198 127.793 48.4371C127.828 48.4544 127.859 48.4785 127.884 48.508C127.908 48.5375 127.927 48.5718 127.938 48.6087C127.95 48.6456 127.953 48.6845 127.949 48.7229C127.945 48.7612 127.933 48.7984 127.914 48.832C127.684 49.32 127.461 49.838 127.249 50.374C127.221 50.4219 127.181 50.4615 127.133 50.4889C127.085 50.5163 127.03 50.5305 126.975 50.53H126.976ZM148.676 48.79C148.618 48.7897 148.561 48.772 148.513 48.7392C148.465 48.7064 148.428 48.66 148.407 48.606C148.212 48.0878 147.976 47.5861 147.7 47.106C147.682 47.0736 147.671 47.0379 147.667 47.001C147.663 46.9642 147.666 46.9269 147.677 46.8914C147.687 46.8559 147.705 46.8228 147.728 46.794C147.751 46.7653 147.78 46.7415 147.813 46.724C147.856 46.7025 147.904 46.6912 147.952 46.691C148.002 46.69 148.052 46.7033 148.094 46.7293C148.137 46.7553 148.172 46.793 148.194 46.838C148.473 47.3447 148.719 47.8692 148.93 48.408C148.958 48.4769 148.958 48.5541 148.93 48.623C148.916 48.6572 148.895 48.6882 148.869 48.7143C148.843 48.7404 148.812 48.761 148.778 48.775C148.745 48.7892 148.709 48.7947 148.674 48.791L148.676 48.79ZM65.632 48.267C65.5912 48.2688 65.5506 48.2606 65.5137 48.2432C65.4767 48.2257 65.4446 48.1996 65.42 48.167C65.3943 48.1376 65.3748 48.1034 65.3627 48.0662C65.3507 48.0291 65.3464 47.9899 65.35 47.951C65.3533 47.9157 65.3639 47.8815 65.3811 47.8505C65.3983 47.8195 65.4218 47.7924 65.45 47.771C65.6053 47.6377 65.7607 47.502 65.916 47.364C66.183 47.129 66.459 46.887 66.737 46.654C66.7877 46.6107 66.8524 46.5873 66.919 46.588C66.9757 46.5884 67.031 46.6059 67.0775 46.6382C67.1241 46.6706 67.1598 46.7163 67.1799 46.7693C67.2 46.8223 67.2036 46.8801 67.1903 46.9352C67.1769 46.9903 67.1472 47.0401 67.105 47.078C66.705 47.427 66.248 47.822 65.832 48.196C65.7746 48.2403 65.7045 48.2652 65.632 48.267ZM128.449 47.475C128.399 47.4744 128.35 47.4598 128.308 47.433C128.274 47.4135 128.245 47.3873 128.221 47.356C128.198 47.3247 128.181 47.289 128.172 47.251C128.164 47.2169 128.163 47.1816 128.17 47.1472C128.176 47.1127 128.189 47.08 128.209 47.051C128.473 46.599 128.774 46.14 129.157 45.608C129.183 45.5725 129.218 45.5436 129.257 45.5235C129.296 45.5034 129.34 45.4926 129.384 45.492C129.445 45.4926 129.505 45.5137 129.553 45.552C129.613 45.5982 129.653 45.6653 129.666 45.74C129.671 45.7767 129.669 45.814 129.66 45.8498C129.65 45.8856 129.633 45.919 129.61 45.948C129.291 46.383 128.981 46.848 128.69 47.334C128.666 47.3772 128.631 47.4131 128.588 47.4379C128.545 47.4627 128.496 47.4755 128.447 47.475H128.449ZM68.203 46.047C68.1623 46.0485 68.1217 46.0402 68.0848 46.0228C68.048 46.0054 68.0158 45.9794 67.991 45.947C67.9441 45.8914 67.9208 45.8196 67.926 45.747C67.931 45.6729 67.9647 45.6036 68.02 45.554C68.439 45.191 68.879 44.821 69.305 44.465L69.322 44.451C69.3723 44.4077 69.4367 44.3843 69.503 44.385C69.5435 44.3845 69.5836 44.3926 69.6206 44.4088C69.6577 44.4251 69.6909 44.449 69.718 44.479C69.7656 44.5366 69.7892 44.6103 69.7838 44.6848C69.7784 44.7593 69.7444 44.8289 69.689 44.879C69.473 45.06 69.256 45.245 69.047 45.423L69.039 45.43C68.828 45.61 68.609 45.796 68.388 45.982C68.3358 46.0245 68.2704 46.0475 68.203 46.047ZM147.033 45.847C146.989 45.8459 146.946 45.8352 146.907 45.8157C146.868 45.7961 146.833 45.7683 146.806 45.734C146.471 45.2955 146.098 44.8885 145.689 44.518C145.661 44.4928 145.638 44.462 145.622 44.4276C145.606 44.3932 145.598 44.3559 145.597 44.318C145.595 44.2811 145.601 44.2442 145.615 44.2097C145.628 44.1753 145.649 44.144 145.675 44.118C145.701 44.0887 145.732 44.0652 145.768 44.0492C145.803 44.0331 145.842 44.0249 145.881 44.025C145.916 44.0248 145.951 44.0315 145.984 44.0449C146.016 44.0583 146.046 44.0781 146.071 44.103C146.499 44.4974 146.891 44.928 147.245 45.39C147.269 45.4195 147.286 45.4535 147.296 45.49C147.306 45.5265 147.309 45.5646 147.304 45.6021C147.298 45.6396 147.285 45.6756 147.266 45.7079C147.246 45.7402 147.22 45.7682 147.189 45.79C147.144 45.8248 147.089 45.8453 147.032 45.849L147.033 45.847ZM130.483 44.758C130.427 44.7592 130.371 44.7434 130.324 44.7126C130.277 44.6818 130.24 44.6375 130.218 44.5854C130.197 44.5333 130.191 44.4759 130.203 44.4207C130.214 44.3655 130.242 44.315 130.283 44.276C130.686 43.8607 131.12 43.4775 131.583 43.13C131.631 43.092 131.691 43.0712 131.752 43.071C131.796 43.0717 131.84 43.0825 131.879 43.1026C131.918 43.1227 131.953 43.1516 131.979 43.187C132.003 43.2165 132.02 43.2506 132.03 43.2872C132.04 43.3237 132.042 43.3619 132.037 43.3993C132.032 43.4368 132.019 43.4728 131.999 43.5051C131.979 43.5374 131.953 43.5653 131.922 43.587C131.486 43.9192 131.075 44.2832 130.692 44.676C130.634 44.727 130.56 44.7566 130.483 44.76V44.758ZM70.806 43.854C70.7652 43.8556 70.7247 43.8473 70.6878 43.8299C70.6509 43.8125 70.6187 43.7865 70.594 43.754C70.5709 43.7265 70.5535 43.6946 70.5428 43.6603C70.5322 43.6259 70.5285 43.5898 70.532 43.554C70.5355 43.5163 70.5467 43.4797 70.5649 43.4465C70.5832 43.4133 70.608 43.3842 70.638 43.361C70.7973 43.2277 70.9567 43.0943 71.116 42.961H71.121C71.391 42.737 71.671 42.506 71.939 42.274C71.9882 42.2316 72.0511 42.2085 72.116 42.209C72.1583 42.2089 72.2 42.2185 72.238 42.237C72.2759 42.2556 72.3091 42.2826 72.335 42.316C72.3585 42.3434 72.3763 42.3752 72.3873 42.4095C72.3982 42.4439 72.4022 42.4801 72.399 42.516C72.3955 42.5537 72.3843 42.5903 72.3661 42.6235C72.3479 42.6567 72.323 42.6858 72.293 42.709C72.1437 42.8343 71.9943 42.9583 71.845 43.081H71.839C71.559 43.312 71.27 43.552 70.992 43.793C70.9353 43.8268 70.8718 43.8477 70.806 43.854ZM144.544 43.554C144.489 43.5532 144.436 43.5388 144.388 43.512C143.924 43.2137 143.437 42.9536 142.931 42.734C142.896 42.7199 142.865 42.6988 142.839 42.6719C142.812 42.6451 142.792 42.6131 142.779 42.578C142.766 42.544 142.76 42.5077 142.762 42.4713C142.764 42.435 142.774 42.3994 142.79 42.367C142.81 42.317 142.845 42.2741 142.89 42.2438C142.934 42.2135 142.987 42.1972 143.041 42.197C143.082 42.1971 143.122 42.2066 143.158 42.225C143.688 42.459 144.199 42.7335 144.686 43.046C144.75 43.0879 144.795 43.1535 144.811 43.2285C144.827 43.3034 144.813 43.3816 144.771 43.446C144.744 43.4808 144.71 43.5087 144.671 43.5275C144.631 43.5462 144.588 43.5553 144.544 43.554ZM133.185 42.733C133.133 42.7316 133.081 42.7164 133.037 42.689C132.992 42.6617 132.955 42.623 132.93 42.577C132.913 42.5436 132.903 42.5071 132.9 42.4697C132.897 42.4323 132.902 42.3947 132.914 42.3591C132.926 42.3235 132.945 42.2907 132.969 42.2625C132.994 42.2343 133.024 42.2114 133.058 42.195C133.574 41.9285 134.114 41.7106 134.67 41.544C134.696 41.5368 134.724 41.5331 134.751 41.533C134.811 41.5322 134.87 41.5507 134.919 41.5858C134.968 41.6209 135.004 41.6707 135.023 41.728C135.044 41.7993 135.037 41.876 135.002 41.942C134.968 42.008 134.909 42.0582 134.839 42.082C134.314 42.2427 133.804 42.4461 133.312 42.69C133.296 42.7065 133.276 42.7192 133.254 42.7272C133.232 42.7351 133.208 42.7381 133.185 42.736V42.733ZM141.446 42.196C141.421 42.2004 141.396 42.1954 141.375 42.182C140.96 42.0663 140.54 41.9718 140.116 41.899C139.989 41.871 139.874 41.856 139.762 41.842C139.688 41.8329 139.621 41.7952 139.574 41.737C139.528 41.6788 139.506 41.6047 139.513 41.5306C139.521 41.4565 139.557 41.3883 139.614 41.3405C139.671 41.2927 139.745 41.2692 139.819 41.275H139.847C139.914 41.283 139.981 41.294 140.047 41.305C140.113 41.316 140.162 41.325 140.215 41.331C140.665 41.416 141.107 41.516 141.531 41.631C141.568 41.6408 141.602 41.6578 141.632 41.681C141.662 41.7042 141.687 41.7331 141.705 41.7661C141.724 41.799 141.736 41.8354 141.74 41.8729C141.745 41.9105 141.741 41.9486 141.731 41.985C141.713 42.0465 141.675 42.1004 141.624 42.1389C141.572 42.1774 141.51 42.1985 141.446 42.199V42.196ZM136.41 41.758C136.339 41.7595 136.271 41.734 136.218 41.6866C136.165 41.6392 136.133 41.5735 136.127 41.503C136.119 41.4288 136.139 41.3543 136.183 41.294C136.205 41.2654 136.233 41.2416 136.264 41.2244C136.296 41.2072 136.331 41.1968 136.367 41.194C136.844 41.1345 137.324 41.1051 137.804 41.106C137.904 41.106 138.004 41.106 138.104 41.106C138.142 41.1056 138.18 41.1133 138.215 41.1287C138.25 41.144 138.281 41.1667 138.306 41.1951C138.332 41.2235 138.351 41.257 138.363 41.2934C138.374 41.3297 138.378 41.3681 138.373 41.406C138.371 41.4778 138.342 41.5462 138.291 41.5966C138.24 41.647 138.171 41.6755 138.099 41.676H138.076C137.976 41.676 137.876 41.676 137.776 41.676C137.322 41.6766 136.868 41.7013 136.417 41.75C136.432 41.754 136.432 41.754 136.432 41.754C136.432 41.754 136.421 41.761 136.41 41.761V41.758ZM73.41 41.673C73.3692 41.6746 73.3287 41.6663 73.2918 41.6489C73.2549 41.6315 73.2227 41.6055 73.198 41.573C73.1746 41.5456 73.1568 41.5138 73.1459 41.4795C73.1349 41.4451 73.1308 41.4089 73.134 41.373C73.1374 41.3351 73.1485 41.2983 73.1667 41.2649C73.185 41.2315 73.2099 41.2023 73.24 41.179L73.782 40.725L74.541 40.09C74.5914 40.0469 74.6557 40.0235 74.722 40.024C74.7626 40.0236 74.8027 40.0318 74.8398 40.0482C74.8769 40.0646 74.91 40.0887 74.937 40.119C74.984 40.1746 75.0074 40.2464 75.002 40.319C74.9973 40.393 74.9639 40.4622 74.909 40.512L74.609 40.764H74.603L73.609 41.596C73.5513 41.6412 73.4819 41.6689 73.409 41.676L73.41 41.673ZM76.01 39.494C75.9692 39.4958 75.9286 39.4876 75.8917 39.4701C75.8547 39.4527 75.8226 39.4266 75.798 39.394C75.7498 39.3368 75.7257 39.263 75.731 39.1883C75.7362 39.1137 75.7703 39.044 75.826 38.994C76.285 38.609 76.726 38.222 77.113 37.894C77.1634 37.8509 77.2277 37.8275 77.294 37.828C77.3346 37.8276 77.3747 37.8358 77.4118 37.8522C77.4489 37.8686 77.482 37.8927 77.509 37.923C77.5564 37.9784 77.5801 38.0503 77.575 38.123C77.5707 38.1979 77.5369 38.268 77.481 38.318C77.081 38.664 76.662 39.018 76.256 39.357L76.18 39.421C76.1586 39.4443 76.1327 39.4631 76.1038 39.4762C76.0749 39.4892 76.0437 39.4963 76.012 39.497L76.01 39.494ZM78.584 37.274C78.5433 37.2753 78.5028 37.267 78.4659 37.2496C78.4291 37.2322 78.3969 37.2063 78.372 37.174C78.3239 37.1166 78.3 37.0428 78.3054 36.9681C78.3109 36.8935 78.3451 36.8238 78.401 36.774C78.822 36.405 79.211 36.057 79.587 35.72L79.674 35.642C79.7266 35.5961 79.7942 35.5708 79.864 35.571C79.9038 35.5705 79.9431 35.5792 79.9789 35.5966C80.0146 35.6139 80.0458 35.6394 80.07 35.671C80.0958 35.7004 80.1152 35.7346 80.1273 35.7718C80.1393 35.8089 80.1437 35.8481 80.14 35.887C80.1367 35.9223 80.1261 35.9565 80.1089 35.9875C80.0917 36.0185 80.0682 36.0456 80.04 36.067C79.694 36.388 79.326 36.709 78.94 37.049L78.769 37.198C78.7205 37.247 78.6549 37.2753 78.586 37.277L78.584 37.274ZM81.116 34.996C81.0372 34.9953 80.9615 34.9649 80.904 34.911C80.8779 34.8849 80.8575 34.8536 80.844 34.8192C80.8306 34.7848 80.8245 34.7479 80.826 34.711C80.8267 34.6731 80.8352 34.6358 80.851 34.6014C80.8669 34.5669 80.8897 34.5362 80.918 34.511C81.118 34.321 81.318 34.132 81.518 33.948C81.737 33.74 81.944 33.548 82.152 33.348C82.1782 33.3218 82.2094 33.3012 82.2438 33.2874C82.2782 33.2737 82.315 33.2671 82.352 33.268C82.4266 33.2674 82.4984 33.2961 82.552 33.348C82.6038 33.4017 82.6328 33.4734 82.6328 33.548C82.6328 33.6226 82.6038 33.6943 82.552 33.748C82.177 34.11 81.752 34.521 81.307 34.922C81.2844 34.9496 81.2553 34.971 81.2223 34.9845C81.1893 34.9979 81.1534 35.0029 81.118 34.999L81.116 34.996ZM83.549 32.634C83.5117 32.6339 83.4748 32.6263 83.4404 32.6117C83.4061 32.5971 83.375 32.5758 83.349 32.549C83.3218 32.5233 83.3001 32.4923 83.2852 32.4579C83.2704 32.4235 83.2628 32.3865 83.2628 32.349C83.2628 32.3115 83.2704 32.2745 83.2852 32.2401C83.3001 32.2057 83.3218 32.1747 83.349 32.149C83.729 31.769 84.119 31.355 84.509 30.919C84.5349 30.8896 84.5667 30.8661 84.6024 30.8501C84.6381 30.834 84.6769 30.8258 84.716 30.826C84.7511 30.8258 84.7859 30.8326 84.8184 30.846C84.8508 30.8594 84.8803 30.8791 84.905 30.904C84.9333 30.9292 84.9561 30.9599 84.972 30.9944C84.9878 31.0288 84.9963 31.0661 84.997 31.104C84.9987 31.1409 84.9927 31.1778 84.9793 31.2123C84.9658 31.2467 84.9453 31.278 84.919 31.304C84.547 31.704 84.151 32.129 83.745 32.549C83.7216 32.5779 83.6918 32.6009 83.658 32.6161C83.6241 32.6314 83.5871 32.6386 83.55 32.637L83.549 32.634ZM85.855 30.134C85.7808 30.1323 85.71 30.1022 85.6572 30.0499C85.6044 29.9977 85.5735 29.9272 85.571 29.853C85.5695 29.8187 85.5751 29.7845 85.5875 29.7524C85.5999 29.7204 85.6188 29.6913 85.643 29.667C86.073 29.157 86.406 28.739 86.69 28.351C86.7163 28.3157 86.7504 28.2868 86.7895 28.2667C86.8287 28.2466 86.872 28.2358 86.916 28.235C86.9778 28.2354 87.0377 28.2565 87.086 28.295C87.1169 28.3182 87.1429 28.3473 87.1624 28.3806C87.182 28.4139 87.1948 28.4507 87.2 28.489C87.2079 28.5607 87.187 28.6326 87.142 28.689C86.853 29.079 86.512 29.506 86.067 30.033C86.0415 30.0644 86.0093 30.0897 85.9728 30.1071C85.9364 30.1246 85.8965 30.1338 85.856 30.134H85.855ZM87.892 27.418C87.8376 27.4172 87.7844 27.4027 87.737 27.376C87.7051 27.3554 87.6775 27.3287 87.6559 27.2975C87.6343 27.2662 87.619 27.231 87.611 27.1938C87.6031 27.1567 87.6025 27.1183 87.6093 27.0809C87.6162 27.0436 87.6304 27.0079 87.651 26.976C87.99 26.437 88.263 25.965 88.486 25.533C88.5026 25.4994 88.5257 25.4695 88.5539 25.4449C88.5821 25.4202 88.6149 25.4014 88.6504 25.3895C88.6859 25.3776 88.7234 25.3729 88.7607 25.3755C88.7981 25.3782 88.8345 25.3882 88.868 25.405C88.9015 25.4218 88.9314 25.445 88.9559 25.4733C88.9805 25.5017 88.9992 25.5346 89.011 25.5702C89.0228 25.6057 89.0274 25.6433 89.0247 25.6807C89.0219 25.718 89.0119 25.7545 88.995 25.788C88.775 26.202 88.479 26.746 88.133 27.273C88.1092 27.3159 88.0744 27.3519 88.0323 27.3771C87.9902 27.4024 87.9421 27.4162 87.893 27.417L87.892 27.418ZM89.42 24.406C89.3861 24.4077 89.3522 24.4029 89.32 24.392C89.2492 24.365 89.1918 24.3114 89.16 24.2426C89.1283 24.1739 89.1247 24.0954 89.15 24.024C89.3366 23.5102 89.4739 22.9798 89.56 22.44C89.5725 22.3703 89.6097 22.3074 89.6648 22.263C89.7199 22.2185 89.7892 22.1954 89.86 22.198H89.89C89.9633 22.2126 90.0285 22.2539 90.0729 22.314C90.1173 22.3742 90.1377 22.4487 90.13 22.523C90.0416 23.0979 89.8945 23.6621 89.691 24.207C89.6727 24.2643 89.6367 24.3143 89.5882 24.3498C89.5397 24.3854 89.4812 24.4047 89.421 24.405L89.42 24.406ZM58.811 21.972C58.739 21.9677 58.6713 21.9361 58.6219 21.8836C58.5724 21.8311 58.5448 21.7616 58.5448 21.6895C58.5448 21.6174 58.5724 21.5479 58.6219 21.4954C58.6713 21.4429 58.739 21.4113 58.811 21.407C59.365 21.3929 59.9177 21.3454 60.466 21.265C60.4817 21.2636 60.4974 21.2636 60.513 21.265C60.5807 21.2668 60.6456 21.2923 60.6964 21.3371C60.7473 21.3819 60.7807 21.4431 60.791 21.51C60.7973 21.5446 60.7967 21.5801 60.7891 21.6144C60.7816 21.6488 60.7672 21.6812 60.747 21.71C60.7236 21.7431 60.6939 21.7712 60.6596 21.7926C60.6252 21.8141 60.587 21.8285 60.547 21.835C59.9713 21.9123 59.3917 21.958 58.811 21.972ZM57.111 21.859H57.071C56.4889 21.7662 55.9188 21.6096 55.371 21.392C55.3102 21.3671 55.2599 21.3218 55.229 21.2638C55.198 21.2058 55.1883 21.1389 55.2014 21.0745C55.2146 21.0101 55.2498 20.9523 55.3011 20.9112C55.3523 20.87 55.4163 20.848 55.482 20.849C55.5162 20.8491 55.5501 20.8555 55.582 20.868C56.0884 21.0692 56.6147 21.2164 57.152 21.307C57.2253 21.3216 57.2905 21.3629 57.3349 21.423C57.3793 21.4832 57.3997 21.5577 57.392 21.632C57.3784 21.6958 57.3434 21.7531 57.2929 21.7943C57.2423 21.8356 57.1793 21.8584 57.114 21.859H57.111ZM62.161 21.491C62.1111 21.4903 62.0622 21.4763 62.0194 21.4506C61.9765 21.4248 61.9413 21.3882 61.9172 21.3444C61.8932 21.3006 61.8811 21.2512 61.8823 21.2013C61.8835 21.1513 61.8979 21.1026 61.924 21.06C61.944 21.0285 61.9703 21.0015 62.0013 20.9806C62.0323 20.9598 62.0673 20.9456 62.104 20.939C62.59 20.818 63.155 20.673 63.717 20.486C63.7434 20.4788 63.7706 20.4751 63.798 20.475C63.8582 20.4742 63.9171 20.4927 63.9661 20.5278C64.015 20.5629 64.0514 20.6127 64.07 20.67C64.0912 20.7415 64.0837 20.8184 64.0492 20.8845C64.0147 20.9505 63.9558 21.0006 63.885 21.024C63.285 21.214 62.714 21.36 62.231 21.477C62.21 21.4867 62.1871 21.4915 62.164 21.491H62.161ZM89.928 21.081H89.902C89.832 21.0798 89.7648 21.0534 89.7128 21.0065C89.6608 20.9596 89.6275 20.8955 89.619 20.826C89.5721 20.2846 89.453 19.7519 89.265 19.242C89.2525 19.2091 89.2465 19.1741 89.2475 19.1389C89.2486 19.1037 89.2565 19.0691 89.271 19.037C89.2862 19.0003 89.3085 18.967 89.3367 18.9391C89.3648 18.9111 89.3983 18.889 89.435 18.874C89.4657 18.8609 89.4987 18.8541 89.532 18.854C89.5911 18.8549 89.6487 18.8731 89.6974 18.9066C89.7462 18.94 89.7839 18.9872 89.806 19.042C90.0046 19.5989 90.1329 20.1784 90.188 20.767C90.1919 20.8044 90.1883 20.8423 90.1776 20.8783C90.1668 20.9144 90.149 20.948 90.1252 20.9771C90.1014 21.0063 90.0721 21.0305 90.039 21.0483C90.0058 21.0661 89.9695 21.0773 89.932 21.081H89.928ZM54.016 20.571C53.9548 20.5723 53.895 20.5521 53.847 20.514C53.4902 20.2446 53.1585 19.9433 52.856 19.614C52.7591 19.5171 52.6696 19.4131 52.588 19.303C52.5398 19.2458 52.5157 19.172 52.521 19.0973C52.5262 19.0227 52.5603 18.953 52.616 18.903C52.6667 18.8597 52.7314 18.8363 52.798 18.837C52.8383 18.8365 52.8783 18.8446 52.9152 18.8608C52.9521 18.877 52.9851 18.9009 53.012 18.931L53.267 19.231C53.5493 19.5393 53.8571 19.8233 54.187 20.08C54.2471 20.1259 54.2868 20.1935 54.2974 20.2683C54.3081 20.3432 54.2889 20.4192 54.244 20.48C54.1823 20.5381 54.1008 20.5706 54.016 20.571ZM65.403 20.514C65.3449 20.514 65.2881 20.4964 65.2401 20.4635C65.1921 20.4307 65.1551 20.3842 65.134 20.33C65.1208 20.2952 65.115 20.258 65.1168 20.2208C65.1187 20.1837 65.1283 20.1473 65.145 20.114C65.1769 20.045 65.2337 19.9907 65.304 19.962L65.742 19.801C66.108 19.667 66.486 19.529 66.888 19.367C66.9199 19.3545 66.9538 19.3481 66.988 19.348C67.0537 19.347 67.1177 19.369 67.169 19.4102C67.2202 19.4513 67.2554 19.5091 67.2686 19.5735C67.2818 19.6379 67.272 19.7048 67.2411 19.7628C67.2101 19.8208 67.1598 19.8661 67.099 19.891C66.468 20.143 65.96 20.332 65.499 20.485C65.47 20.5027 65.437 20.5126 65.403 20.514ZM68.572 19.284C68.5162 19.2822 68.4619 19.2656 68.4146 19.2359C68.3674 19.2062 68.3289 19.1645 68.303 19.115C68.2761 19.0454 68.2773 18.9681 68.3064 18.8994C68.3355 18.8307 68.3903 18.776 68.459 18.747C68.721 18.641 68.986 18.529 69.244 18.422C69.502 18.315 69.767 18.203 70.029 18.097C70.0608 18.0842 70.0947 18.0774 70.129 18.077C70.1761 18.0759 70.2227 18.0868 70.2644 18.1086C70.3062 18.1303 70.3418 18.1623 70.3678 18.2016C70.3939 18.2408 70.4096 18.286 70.4135 18.3329C70.4173 18.3799 70.4093 18.427 70.39 18.47C70.3761 18.5038 70.3555 18.5344 70.3296 18.5602C70.3037 18.586 70.2729 18.6063 70.239 18.62C69.698 18.855 69.151 19.076 68.669 19.271C68.6555 19.2715 68.6421 19.2735 68.629 19.277C68.6103 19.2815 68.5912 19.2838 68.572 19.284ZM51.767 18.054C51.7198 18.0531 51.6734 18.041 51.6317 18.0188C51.59 17.9965 51.5541 17.9647 51.527 17.926C51.2056 17.4436 50.9128 16.9427 50.65 16.426C50.6333 16.3926 50.6233 16.3562 50.6206 16.3189C50.6179 16.2816 50.6226 16.2442 50.6344 16.2087C50.6462 16.1732 50.6649 16.1404 50.6893 16.1122C50.7138 16.0839 50.7436 16.0607 50.777 16.044C50.8104 16.0273 50.8468 16.0173 50.8841 16.0146C50.9214 16.0119 50.9588 16.0166 50.9943 16.0284C51.0298 16.0402 51.0626 16.0588 51.0908 16.0833C51.1191 16.1078 51.1423 16.1376 51.159 16.171C51.4078 16.664 51.6866 17.1412 51.994 17.6C52.0367 17.666 52.0518 17.746 52.036 17.823C52.0294 17.8579 52.0159 17.8912 51.9963 17.9209C51.9768 17.9506 51.9515 17.9761 51.922 17.996C51.879 18.0333 51.824 18.0539 51.767 18.054ZM71.712 17.969C71.6576 17.969 71.6044 17.9529 71.5591 17.9229C71.5137 17.8928 71.4782 17.8501 71.457 17.8C71.4282 17.7302 71.4282 17.6518 71.457 17.582C71.4712 17.5482 71.4919 17.5175 71.518 17.4918C71.5441 17.466 71.575 17.4457 71.609 17.432C72.119 17.212 72.637 17.001 73.138 16.798L73.179 16.781C73.2108 16.7681 73.2447 16.7613 73.279 16.761C73.3446 16.7602 73.4085 16.7824 73.4595 16.8236C73.5106 16.8649 73.5456 16.9227 73.5587 16.987C73.5717 17.0513 73.5619 17.1182 73.5309 17.176C73.4999 17.2339 73.4498 17.2792 73.389 17.304L73.334 17.326C72.834 17.526 72.324 17.736 71.818 17.955C71.7952 17.9557 71.7724 17.9584 71.75 17.963C71.7375 17.9655 71.7248 17.9672 71.712 17.968V17.969ZM88.771 17.927C88.7235 17.9282 88.6764 17.9172 88.6344 17.8949C88.5924 17.8727 88.5568 17.84 88.531 17.8C88.2361 17.3421 87.8895 16.9197 87.498 16.541C87.4708 16.5153 87.4491 16.4843 87.4342 16.4499C87.4194 16.4155 87.4118 16.3785 87.4118 16.341C87.4118 16.3035 87.4194 16.2665 87.4342 16.2321C87.4491 16.1977 87.4708 16.1667 87.498 16.141C87.5236 16.1135 87.5545 16.0916 87.5889 16.0766C87.6233 16.0616 87.6605 16.0538 87.698 16.0538C87.7356 16.0538 87.7727 16.0616 87.8071 16.0766C87.8415 16.0916 87.8725 16.1135 87.898 16.141C88.3147 16.5555 88.6892 17.0104 89.016 17.499C89.0362 17.5304 89.0498 17.5655 89.0562 17.6023C89.0625 17.639 89.0615 17.6767 89.053 17.713C89.0367 17.7869 88.9932 17.8519 88.931 17.895L88.908 17.901C88.8634 17.9158 88.817 17.9242 88.77 17.926L88.771 17.927ZM74.852 16.696C74.7939 16.6957 74.7373 16.678 74.6893 16.6452C74.6414 16.6124 74.6044 16.566 74.583 16.512C74.5558 16.4424 74.5569 16.365 74.5861 16.2962C74.6152 16.2275 74.6701 16.1728 74.739 16.144C75.139 15.989 75.505 15.854 75.862 15.724L76.332 15.554C76.3616 15.5421 76.3931 15.536 76.425 15.536C76.4826 15.536 76.5387 15.5542 76.5854 15.588C76.6321 15.6217 76.6669 15.6693 76.685 15.724C76.6977 15.7583 76.7034 15.7948 76.7017 15.8313C76.7 15.8679 76.6909 15.9037 76.6751 15.9366C76.6592 15.9696 76.6368 15.999 76.6093 16.0231C76.5818 16.0472 76.5498 16.0656 76.515 16.077C76.066 16.231 75.592 16.409 75.09 16.598L74.931 16.658C74.9224 16.6708 74.9105 16.681 74.8966 16.6877C74.8828 16.6944 74.8674 16.6972 74.852 16.696ZM86.338 15.607C86.2895 15.6042 86.2417 15.5944 86.196 15.578C85.7199 15.3178 85.211 15.1227 84.683 14.998C84.6149 14.9826 84.5548 14.9424 84.5146 14.8853C84.4744 14.8282 84.4568 14.7581 84.4653 14.6888C84.4737 14.6194 84.5077 14.5557 84.5604 14.5099C84.6132 14.4641 84.6812 14.4396 84.751 14.441C84.7705 14.441 84.7899 14.4426 84.809 14.446C85.3871 14.5816 85.9439 14.7956 86.464 15.082C86.4966 15.0996 86.5254 15.1235 86.5487 15.1522C86.572 15.1809 86.5894 15.214 86.5999 15.2495C86.6104 15.285 86.6138 15.3222 86.6099 15.359C86.6059 15.3959 86.5948 15.4315 86.577 15.464C86.5535 15.507 86.519 15.5429 86.477 15.568C86.4349 15.5931 86.387 15.6066 86.338 15.607ZM78.062 15.578C78.0015 15.5791 77.9423 15.56 77.8938 15.5238C77.8453 15.4876 77.8102 15.4363 77.794 15.378C77.7836 15.3416 77.7804 15.3035 77.7849 15.2659C77.7893 15.2283 77.8012 15.192 77.8198 15.1591C77.8384 15.1261 77.8634 15.0972 77.8933 15.074C77.9232 15.0508 77.9575 15.0338 77.994 15.024C78.586 14.851 79.166 14.707 79.663 14.586C79.6822 14.5826 79.7016 14.581 79.721 14.581C79.791 14.5793 79.8591 14.6036 79.9121 14.6493C79.9651 14.695 79.9992 14.7588 80.0078 14.8282C80.0164 14.8977 79.9989 14.9679 79.9586 15.0251C79.9184 15.0824 79.8583 15.1226 79.79 15.138C79.244 15.26 78.696 15.403 78.163 15.563C78.1305 15.574 78.0963 15.5791 78.062 15.578ZM50.267 15.013C50.2064 15.0144 50.1471 14.9955 50.0985 14.9593C50.0499 14.923 50.0149 14.8715 49.999 14.813C49.8294 14.2566 49.7014 13.6884 49.616 13.113C49.6051 13.038 49.6241 12.9617 49.6691 12.9007C49.714 12.8397 49.7812 12.7988 49.856 12.787C49.8717 12.7856 49.8874 12.7856 49.903 12.787C49.9707 12.7888 50.0356 12.8143 50.0864 12.8591C50.1373 12.9039 50.1707 12.9651 50.181 13.032C50.2559 13.5795 50.379 14.1192 50.549 14.645C50.57 14.7163 50.5625 14.793 50.5282 14.859C50.4939 14.925 50.4355 14.9752 50.365 14.999C50.3335 15.0097 50.3003 15.0144 50.267 15.013ZM81.414 14.872H81.386C81.3152 14.8735 81.2466 14.848 81.194 14.8006C81.1414 14.7532 81.1089 14.6875 81.103 14.617C81.096 14.542 81.1189 14.4673 81.1666 14.4091C81.2144 14.3509 81.2831 14.3138 81.358 14.306C81.8416 14.2486 82.3281 14.2192 82.815 14.218C82.915 14.218 83.006 14.218 83.099 14.218C83.1367 14.2179 83.174 14.2258 83.2085 14.2411C83.243 14.2565 83.2738 14.2789 83.299 14.307C83.3349 14.3474 83.3586 14.3972 83.3674 14.4505C83.3762 14.5038 83.3698 14.5585 83.3489 14.6084C83.328 14.6582 83.2935 14.7011 83.2493 14.7322C83.2051 14.7633 83.153 14.7812 83.099 14.784H83.075C82.9903 14.784 82.9047 14.784 82.818 14.784C82.35 14.7853 81.8824 14.815 81.418 14.873L81.414 14.872ZM49.814 11.672C49.7756 11.6714 49.7377 11.663 49.7025 11.6475C49.6673 11.632 49.6356 11.6096 49.6093 11.5817C49.5829 11.5537 49.5624 11.5208 49.5489 11.4847C49.5355 11.4487 49.5294 11.4104 49.531 11.372C49.5517 10.7957 49.6135 10.2215 49.716 9.654C49.7267 9.58953 49.7599 9.53093 49.8097 9.48863C49.8595 9.44633 49.9227 9.42307 49.988 9.423C50.006 9.42138 50.0241 9.42138 50.042 9.423C50.079 9.42893 50.1144 9.44236 50.1461 9.46247C50.1777 9.48258 50.2049 9.50894 50.2259 9.53994C50.247 9.57094 50.2615 9.60592 50.2686 9.64273C50.2757 9.67954 50.2751 9.71741 50.267 9.754C50.1645 10.2956 50.103 10.8442 50.083 11.395C50.0821 11.4669 50.0539 11.5359 50.0042 11.5878C49.9545 11.6398 49.8868 11.671 49.815 11.675L49.814 11.672ZM50.423 8.336C50.3941 8.33837 50.3649 8.33391 50.338 8.323C50.2693 8.30072 50.2121 8.2522 50.179 8.188C50.1421 8.12117 50.1331 8.04244 50.154 7.969C50.3404 7.41881 50.5577 6.87962 50.805 6.354C50.8304 6.3046 50.8689 6.2632 50.9164 6.23442C50.9639 6.20564 51.0185 6.19061 51.074 6.191C51.1127 6.19097 51.1511 6.19844 51.187 6.213C51.2543 6.24726 51.3061 6.30561 51.3322 6.37642C51.3584 6.44722 51.3569 6.52526 51.328 6.595C51.0903 7.09636 50.8823 7.61125 50.705 8.137C50.6828 8.19424 50.6442 8.24365 50.594 8.27905C50.5439 8.31444 50.4844 8.33426 50.423 8.336ZM51.852 5.267C51.8015 5.26798 51.7519 5.25331 51.71 5.225C51.6462 5.18727 51.5999 5.12584 51.5811 5.0541C51.5624 4.98236 51.5728 4.90612 51.61 4.842C51.857 4.442 52.189 3.919 52.572 3.414C52.5985 3.37865 52.6327 3.34982 52.6721 3.32972C52.7114 3.30962 52.7548 3.29877 52.799 3.298C52.8604 3.29804 52.92 3.31883 52.968 3.357C52.9989 3.38019 53.0249 3.40928 53.0445 3.44258C53.064 3.47588 53.0768 3.51273 53.082 3.551C53.086 3.58651 53.0829 3.62245 53.0729 3.65677C53.063 3.69109 53.0463 3.72311 53.024 3.751C52.7 4.184 52.386 4.651 52.091 5.138C52.0669 5.17944 52.0319 5.21342 51.9897 5.23619C51.9475 5.25895 51.8999 5.26962 51.852 5.267ZM53.86 2.537C53.7924 2.53475 53.7276 2.50973 53.676 2.466C53.6203 2.41604 53.5862 2.34634 53.581 2.27167C53.5757 2.19701 53.5998 2.12324 53.648 2.066C54.0213 1.63821 54.4165 1.23 54.832 0.843L54.85 0.825C54.9027 0.779156 54.9702 0.753935 55.04 0.754C55.0799 0.753533 55.1193 0.762319 55.1553 0.779671C55.1912 0.797022 55.2226 0.822465 55.247 0.854C55.2727 0.883381 55.2922 0.917679 55.3042 0.954811C55.3162 0.991942 55.3206 1.03113 55.317 1.07C55.3137 1.10529 55.3031 1.13951 55.2859 1.1705C55.2687 1.20148 55.2452 1.22855 55.217 1.25C54.8076 1.62733 54.4203 2.028 54.057 2.45C54.0054 2.50383 53.9346 2.5351 53.86 2.537Z" fill="#5DB571"/>
<path d="M154.162 106.686C155.576 113.193 156.001 114.749 156.001 114.749H138.461L128.984 89.429L149.07 90.702C151.093 95.9206 152.794 101.259 154.162 106.686Z" fill="#F9D2DD"/>
<path d="M128.984 89.429L131.247 95.37L151.474 97.35C150.399 94.224 149.074 90.702 149.074 90.702L128.984 89.429Z" fill="#F9ACC0"/>
<path d="M77.638 90.419L73.819 114.749H139.593L134.784 94.521L150.626 93.107C150.626 93.107 143.837 70.475 130.258 63.119C116.679 55.763 97.158 56.188 84.994 62.129C77.497 65.793 65.332 78.962 63.069 90.419H77.638Z" fill="#3D5CFF"/>
<path d="M77.638 90.419L73.819 114.748H139.593L134.784 94.521L150.626 93.107C150.626 93.107 146.949 72.738 130.258 63.119C116.877 55.41 97.343 56.556 84.994 62.129C76.224 66.089 66.605 75.991 63.069 90.419H77.638Z" fill="#3D5CFF"/>
<path d="M77.688 62.567C77.5929 62.567 77.4988 62.5483 77.411 62.512L69.858 59.428C69.8119 59.4146 69.763 59.4146 69.717 59.428L63.493 61.828C63.1374 61.9673 62.7589 62.0389 62.377 62.039C61.7498 62.0348 61.1382 61.8427 60.6212 61.4874C60.1043 61.1321 59.7057 60.6301 59.477 60.046L56.577 52.511C56.2813 51.7418 56.3029 50.8867 56.637 50.1334C56.971 49.3801 57.5904 48.7902 58.359 48.493L75.658 41.832C76.0142 41.6925 76.3934 41.621 76.776 41.621C77.4039 41.6223 78.0168 41.8133 78.5342 42.169C79.0517 42.5246 79.4497 43.0283 79.676 43.614L82.576 51.153C82.725 51.5328 82.7966 51.9385 82.7866 52.3464C82.7767 52.7542 82.6853 53.1559 82.518 53.528C82.3526 53.9017 82.1152 54.2391 81.8194 54.521C81.5236 54.8029 81.1752 55.0238 80.794 55.171L77.088 56.599C77.0386 56.6196 76.999 56.6582 76.977 56.707C76.9668 56.7302 76.9615 56.7552 76.9615 56.7805C76.9615 56.8058 76.9668 56.8308 76.977 56.854L78.677 61.239C78.7648 61.4694 78.7576 61.7251 78.6569 61.9502C78.5562 62.1752 78.3703 62.351 78.14 62.439H78.126C78.1234 62.4391 78.1209 62.4398 78.1187 62.441C78.1164 62.4422 78.1145 62.4439 78.113 62.446C78.1112 62.4482 78.1089 62.45 78.1063 62.4512C78.1037 62.4524 78.1009 62.453 78.098 62.453C77.9737 62.5263 77.8323 62.5657 77.688 62.567ZM67.935 49.385L65.121 49.498C65.102 49.498 65.082 49.506 65.063 49.509C65.0243 49.5137 64.9866 49.5241 64.951 49.54C64.8859 49.5644 64.8264 49.6017 64.7761 49.6497C64.7257 49.6976 64.6856 49.7552 64.658 49.819C64.6305 49.8821 64.6162 49.9502 64.6162 50.019C64.6162 50.0878 64.6305 50.1559 64.658 50.219L66.625 55.326C66.6598 55.4253 66.7246 55.5113 66.8104 55.5723C66.8962 55.6332 66.9988 55.6659 67.104 55.666H67.134L70.317 55.553C70.3412 55.5554 70.3656 55.5505 70.387 55.539C70.4471 55.5125 70.4949 55.4643 70.5211 55.4041C70.5472 55.3439 70.5497 55.276 70.528 55.214L68.435 49.714C68.3937 49.6157 68.3241 49.532 68.2351 49.4734C68.146 49.4148 68.0416 49.384 67.935 49.385ZM71.651 46.972C71.5289 46.9724 71.4106 47.0148 71.316 47.092L69.166 48.904C69.0897 48.9742 69.0357 49.0652 69.0105 49.1658C68.9852 49.2664 68.9899 49.3721 69.024 49.47L71.146 54.97V54.979C71.1558 55.0013 71.1686 55.0222 71.184 55.041C71.2071 55.0676 71.2357 55.0889 71.2678 55.1034C71.2999 55.1179 71.3348 55.1253 71.37 55.125C71.4259 55.1254 71.4801 55.1059 71.523 55.07L73.975 53.021C74.0644 52.9541 74.1265 52.8571 74.1501 52.7479C74.1736 52.6388 74.1569 52.5248 74.103 52.427L72.136 47.305C72.1234 47.2657 72.103 47.2293 72.076 47.198L72.051 47.163C72.0027 47.1035 71.9417 47.0556 71.8725 47.0227C71.8033 46.9898 71.7276 46.9729 71.651 46.973V46.972Z" fill="white"/>
<path d="M153.342 38.677C153.569 38.6788 153.792 38.6124 153.981 38.4864C154.17 38.3603 154.317 38.1805 154.403 37.97C154.488 37.7626 154.512 37.5351 154.472 37.3144C154.432 37.0938 154.33 36.8893 154.177 36.725L153.498 38.352C153.452 38.463 153.4 38.5715 153.342 38.677V38.677Z" fill="white"/>
<path d="M151.277 35.947L151.234 34.986C151.206 34.647 150.994 34.548 150.753 34.786L150.046 35.41L149.141 35.169C148.829 35.099 148.674 35.283 148.801 35.58L149.153 36.485L148.63 37.334C148.46 37.617 148.573 37.815 148.899 37.772L149.848 37.655L150.428 38.433C150.628 38.688 150.838 38.633 150.928 38.306L151.153 37.348L152.044 36.966C152.344 36.825 152.369 36.584 152.086 36.414L151.277 35.947Z" fill="white"/>
<path d="M146.736 35.975C146.765 35.8437 146.808 35.7158 146.863 35.593L147.557 33.924C147.312 33.8949 147.065 33.947 146.853 34.0722C146.641 34.1974 146.476 34.3888 146.383 34.617C146.288 34.8512 146.27 35.1099 146.334 35.3546C146.398 35.5993 146.539 35.8169 146.736 35.975Z" fill="white"/>
<path d="M140.248 49.563C140.09 49.5621 139.936 49.5152 139.805 49.428L139.579 49.343C139.483 49.3072 139.395 49.2528 139.32 49.1827C139.245 49.1127 139.185 49.0285 139.143 48.935C139.1 48.8394 139.077 48.7363 139.074 48.6316C139.071 48.5269 139.089 48.4227 139.127 48.325L141.121 43.162L136.707 41.462C135.929 41.1552 135.303 40.5545 134.964 39.7897C134.625 39.0248 134.601 38.1574 134.897 37.375L138.197 28.789C138.501 28.0093 139.101 27.3815 139.866 27.0424C140.631 26.7033 141.499 26.6805 142.281 26.979L161.448 34.363C162.226 34.666 162.853 35.264 163.192 36.0269C163.531 36.7897 163.554 37.6556 163.258 38.436L159.949 47.022C159.645 47.803 159.045 48.432 158.279 48.7714C157.513 49.1107 156.643 49.1329 155.861 48.833L148.83 46.117L140.555 49.497C140.458 49.5404 140.354 49.5629 140.248 49.563ZM146.189 41.343C146.081 41.3432 145.976 41.3811 145.892 41.4501C145.809 41.5191 145.752 41.615 145.731 41.7213C145.711 41.8277 145.728 41.9379 145.78 42.033C145.831 42.1282 145.915 42.2024 146.015 42.243L149.225 43.572C149.282 43.5956 149.343 43.6078 149.404 43.608C149.513 43.609 149.619 43.5718 149.703 43.5028C149.788 43.4338 149.845 43.3375 149.866 43.2305C149.887 43.1235 149.869 43.0126 149.817 42.9171C149.764 42.8217 149.68 42.7477 149.578 42.708L148.404 42.213L149.055 40.643C149.662 40.8203 150.305 40.8339 150.918 40.6823C151.532 40.5307 152.095 40.2194 152.549 39.78C152.752 39.8456 152.963 39.8793 153.176 39.88C153.589 39.8796 153.993 39.7574 154.337 39.5287C154.681 39.2999 154.95 38.9748 155.11 38.594C155.292 38.1649 155.321 37.6863 155.192 37.2383C155.064 36.7903 154.785 36.4001 154.403 36.133L154.703 35.412C154.772 35.2487 154.774 35.0647 154.707 34.9004C154.641 34.736 154.512 34.6046 154.349 34.535L148.949 32.286C148.866 32.2503 148.777 32.2316 148.687 32.231C148.555 32.2298 148.427 32.2678 148.317 32.3401C148.207 32.4124 148.121 32.5158 148.07 32.637L147.786 33.33C147.633 33.2947 147.477 33.2769 147.32 33.277C146.839 33.2736 146.372 33.4363 145.997 33.7376C145.623 34.0389 145.363 34.4603 145.264 34.9306C145.164 35.401 145.229 35.8913 145.449 36.3188C145.669 36.7464 146.03 37.0848 146.471 37.277C146.483 37.8853 146.649 38.4808 146.953 39.0077C147.257 39.5346 147.69 39.9757 148.211 40.29L147.543 41.869L146.369 41.374C146.311 41.3517 146.249 41.3412 146.187 41.343H146.189Z" fill="white"/>
<path d="M77.284 92.654L77.878 92.81L81.895 77.972L73.578 90.42H77.638L77.284 92.654Z" fill="#224BF4"/>
<path d="M85.842 25.07C86.125 19.695 90.368 17.432 92.066 17.29C93.0443 17.1933 94.0292 17.3903 94.895 17.856C94.895 17.856 95.602 8.803 101.401 7.53C107.2 6.257 110.029 8.52 111.585 10.783C113.141 13.046 113 14.319 113 14.319C113 14.319 115.263 12.48 119.224 14.036C123.185 15.592 122.053 19.977 122.053 19.977C122.053 19.977 125.165 19.128 126.721 24.22C128.277 29.312 123.043 37.799 121.063 39.072C119.083 40.345 90.368 35.254 90.368 35.254C90.368 35.254 85.559 30.445 85.842 25.07Z" fill="#1F1F39"/>
<path d="M89.095 33.132C86.266 34.405 85.983 38.224 88.105 40.632C90.227 43.04 95.605 42.471 95.605 42.471L94.159 33.754C93.4496 33.2029 92.6043 32.8541 91.7128 32.7446C90.8212 32.6351 89.9166 32.7689 89.095 33.132Z" fill="#F9ACC0"/>
<path d="M122.916 33.132C125.745 34.405 126.028 38.224 123.906 40.632C121.784 43.04 116.409 42.468 116.409 42.468L117.852 33.754C118.561 33.2029 119.407 32.8541 120.298 32.7446C121.19 32.6351 122.094 32.7689 122.916 33.132Z" fill="#F9ACC0"/>
<path d="M94.611 40.699C94.4721 39.7625 94.0974 38.8768 93.522 38.125C92.7352 37.0879 91.6413 36.3254 90.396 35.946C90.3416 35.9327 90.2948 35.8984 90.2657 35.8506C90.2366 35.8028 90.2277 35.7454 90.241 35.691C90.2543 35.6366 90.2886 35.5897 90.3364 35.5607C90.3842 35.5316 90.4416 35.5227 90.496 35.536C91.8454 35.9352 93.0302 36.7586 93.875 37.884C94.5134 38.6934 94.9193 39.6613 95.049 40.684C95.045 40.7426 95.0199 40.7978 94.9784 40.8394C94.9368 40.8809 94.8816 40.906 94.823 40.91C94.7674 40.9085 94.7145 40.8858 94.6751 40.8466C94.6357 40.8074 94.6128 40.7546 94.611 40.699Z" fill="#1F1F39"/>
<path d="M118.064 40.459C118.016 40.4315 117.98 40.3878 117.962 40.336C117.943 40.2841 117.944 40.2273 117.964 40.176C118.536 39.0676 119.265 38.048 120.13 37.149C120.716 36.4511 121.492 35.9392 122.364 35.676C122.418 35.667 122.474 35.6798 122.519 35.7116C122.564 35.7435 122.594 35.7918 122.604 35.846C122.613 35.9003 122.6 35.956 122.568 36.001C122.537 36.0459 122.488 36.0765 122.434 36.086C121.655 36.3498 120.961 36.8198 120.427 37.446C119.6 38.3144 118.901 39.2954 118.349 40.36C118.334 40.3971 118.309 40.429 118.276 40.4516C118.244 40.4742 118.205 40.4866 118.165 40.487C118.13 40.4846 118.095 40.475 118.064 40.459Z" fill="#1F1F39"/>
<path d="M95.036 42.468C96.1022 45.6477 98.1931 48.384 100.981 50.248C101.055 52.2846 100.913 54.3233 100.557 56.33C100.336 57.5535 99.9537 58.7425 99.421 59.866C99.421 59.866 100.411 61.988 105.645 61.988C111.303 61.988 112.859 59.866 112.859 59.866C112.424 58.5268 112.093 57.1561 111.869 55.766C111.697 53.9798 111.65 52.1838 111.728 50.391C111.728 50.391 116.113 49.825 117.81 43.601C118.831 39.7762 119.119 35.7929 118.659 31.861C118.659 31.861 110.312 33.132 107.481 29.738C104.65 26.344 101.825 22.948 97.723 24.645C96.5581 25.1298 95.5686 25.9581 94.8864 27.0195C94.2041 28.0809 93.8614 29.325 93.904 30.586C93.904 30.586 93.621 37.517 95.036 42.468Z" fill="#F9D2DD"/>
<path d="M100.509 30.5188C99.7779 30.9408 98.9765 30.9209 98.719 30.4749C98.4615 30.0289 98.8444 29.324 99.5753 28.902C100.306 28.48 101.107 28.5004 101.365 28.9473C101.623 29.3942 101.239 30.0973 100.509 30.5188Z" fill="#1F1F39"/>
<path d="M101.967 37.941C101.602 37.9109 101.264 37.738 101.025 37.46C100.787 37.182 100.668 36.8212 100.694 36.456C100.668 36.0907 100.787 35.73 101.025 35.452C101.264 35.174 101.602 35.0011 101.967 34.971C102.332 35.0011 102.67 35.174 102.909 35.452C103.147 35.73 103.266 36.0907 103.24 36.456C103.266 36.8212 103.147 37.182 102.909 37.46C102.67 37.738 102.332 37.9109 101.967 37.941Z" fill="#1F1F39"/>
<path d="M111.303 37.941C110.938 37.9109 110.6 37.738 110.361 37.46C110.123 37.182 110.004 36.8212 110.03 36.456C110.004 36.0907 110.123 35.73 110.361 35.452C110.6 35.174 110.938 35.0011 111.303 34.971C111.668 35.0011 112.006 35.174 112.245 35.452C112.483 35.73 112.602 36.0907 112.576 36.456C112.602 36.8212 112.483 37.182 112.245 37.46C112.006 37.738 111.668 37.9109 111.303 37.941Z" fill="#1F1F39"/>
<path d="M106.776 41.337C107.559 41.2325 108.27 40.8263 108.757 40.205C108.875 40.6735 108.808 41.1691 108.571 41.5901C108.335 42.011 107.945 42.3252 107.484 42.468C105.786 43.034 104.372 41.337 104.796 40.205C104.992 40.556 105.28 40.847 105.629 41.0464C105.977 41.2459 106.374 41.3464 106.776 41.337Z" fill="#F95368"/>
<path d="M105.644 38.507C106.068 39.356 107.2 38.931 107.2 38.931C107.2 38.931 106.065 38.648 106.065 37.795C106.154 36.9743 106.345 36.1679 106.635 35.395C106.635 35.395 105.22 37.658 105.644 38.507Z" fill="#1F1F39"/>
<path d="M99.633 42.751C98.5559 42.751 97.503 42.4316 96.6074 41.8332C95.7118 41.2348 95.0138 40.3842 94.6016 39.3891C94.1894 38.394 94.0815 37.299 94.2917 36.2425C94.5018 35.1861 95.0205 34.2157 95.7821 33.4541C96.5437 32.6925 97.5141 32.1738 98.5706 31.9636C99.627 31.7535 100.722 31.8614 101.717 32.2735C102.712 32.6857 103.563 33.3838 104.161 34.2794C104.76 35.175 105.079 36.2279 105.079 37.305C105.077 38.7489 104.503 40.1332 103.482 41.1541C102.461 42.1751 101.077 42.7494 99.633 42.751ZM99.633 32.283C98.6397 32.2828 97.6687 32.5772 96.8427 33.1289C96.0167 33.6806 95.3728 34.4648 94.9926 35.3825C94.6123 36.3001 94.5127 37.3099 94.7064 38.2841C94.9001 39.2584 95.3783 40.1533 96.0806 40.8557C96.7829 41.5582 97.6777 42.0366 98.6519 42.2304C99.6261 42.4243 100.636 42.3249 101.554 41.9448C102.471 41.5647 103.256 40.9211 103.808 40.0952C104.359 39.2693 104.654 38.2983 104.654 37.305C104.652 35.9737 104.123 34.6974 103.182 33.756C102.24 32.8146 100.964 32.2848 99.633 32.283Z" fill="#1F1F39"/>
<path d="M113.212 42.751C112.135 42.751 111.082 42.4316 110.186 41.8332C109.291 41.2348 108.593 40.3842 108.181 39.3891C107.768 38.394 107.661 37.299 107.871 36.2425C108.081 35.1861 108.599 34.2157 109.361 33.4541C110.123 32.6925 111.093 32.1738 112.15 31.9636C113.206 31.7535 114.301 31.8614 115.296 32.2735C116.291 32.6857 117.142 33.3838 117.74 34.2794C118.339 35.175 118.658 36.2279 118.658 37.305C118.656 38.7489 118.082 40.1332 117.061 41.1541C116.04 42.1751 114.656 42.7494 113.212 42.751ZM113.212 32.283C112.219 32.2828 111.248 32.5772 110.422 33.1289C109.596 33.6806 108.952 34.4648 108.572 35.3825C108.191 36.3001 108.092 37.3099 108.285 38.2841C108.479 39.2584 108.957 40.1533 109.66 40.8557C110.362 41.5582 111.257 42.0366 112.231 42.2304C113.205 42.4243 114.215 42.3249 115.133 41.9448C116.05 41.5647 116.835 40.9211 117.387 40.0952C117.938 39.2693 118.233 38.2983 118.233 37.305C118.231 35.9737 117.702 34.6974 116.761 33.756C115.819 32.8146 114.543 32.2848 113.212 32.283Z" fill="#1F1F39"/>
<path d="M104.824 35.694C105.408 35.5578 106.006 35.4907 106.606 35.494C107.106 35.467 107.605 35.539 108.077 35.706L107.907 36.088C107.493 35.9564 107.058 35.8988 106.624 35.918C106.052 35.9023 105.48 35.9642 104.924 36.102L104.824 35.694Z" fill="#1F1F39"/>
<path d="M100.553 56.329C100.454 56.754 100.37 57.136 100.27 57.489C100.355 57.461 100.44 57.447 100.525 57.418C106.636 55.805 109.931 53.712 111.685 52.099C111.685 51.109 111.713 50.387 111.713 50.387C111.713 50.387 110.013 51.377 105.913 51.236C104.218 51.2393 102.54 50.903 100.977 50.247C101.037 52.2834 100.895 54.3207 100.553 56.329Z" fill="#F9ACC0"/>
<path d="M113.636 41.619C112.113 41.619 110.878 40.859 110.878 39.924C110.878 38.989 112.113 38.224 113.636 38.224C115.159 38.224 116.395 38.984 116.395 39.924C116.395 40.864 115.16 41.619 113.636 41.619Z" fill="#F9ACC0"/>
<path d="M99.067 41.619C97.544 41.619 96.309 40.859 96.309 39.924C96.309 38.989 97.544 38.224 99.067 38.224C100.59 38.224 101.826 38.984 101.826 39.924C101.826 40.864 100.591 41.619 99.067 41.619Z" fill="#F9ACC0"/>
<path d="M134.784 94.521L139.508 94.121L128.984 76.133L134.784 94.521Z" fill="#224BF4"/>
<path d="M100.935 50.641C100.91 50.627 100.887 50.6078 100.87 50.5847C100.852 50.5615 100.84 50.535 100.833 50.5067C100.826 50.4785 100.826 50.4491 100.831 50.4206C100.836 50.392 100.848 50.3649 100.864 50.341C100.878 50.3156 100.897 50.2933 100.92 50.2758C100.943 50.2582 100.97 50.2457 100.998 50.239C101.027 50.2323 101.056 50.2316 101.084 50.2369C101.113 50.2423 101.14 50.2535 101.164 50.27C102.441 50.9216 103.857 51.2547 105.291 51.241C105.347 51.241 105.401 51.2633 105.441 51.3031C105.481 51.3428 105.503 51.3968 105.503 51.453C105.503 51.5092 105.481 51.5631 105.441 51.6029C105.401 51.6427 105.347 51.665 105.291 51.665C103.777 51.6846 102.282 51.333 100.935 50.641Z" fill="#1F1F39"/>
<path d="M96.309 93.135C97.101 92.456 96.988 90.985 96.648 90.08C96.347 89.4439 95.972 88.8454 95.531 88.297C95.3123 88.0439 95.1805 87.7274 95.1549 87.3939C95.1294 87.0604 95.2114 86.7275 95.389 86.444C95.898 85.751 97.398 85.638 98.572 85.963C99.384 86.1507 100.125 86.5672 100.708 87.163C101.481 88.0194 102.061 89.0324 102.408 90.133C103.122 89.7358 103.925 89.5273 104.742 89.5273C105.559 89.5273 106.362 89.7358 107.076 90.133C107.409 90.3727 107.674 90.6936 107.847 91.0651C108.021 91.4365 108.096 91.8462 108.066 92.255C108.918 92.2866 109.727 92.6404 110.329 93.245C110.615 93.5979 110.793 94.0253 110.843 94.4766C110.894 94.9278 110.813 95.384 110.612 95.791C111.021 96.1921 111.289 96.7148 111.375 97.2809C111.462 97.847 111.363 98.426 111.093 98.931C110.471 100.031 108.151 102.731 103.593 105.098C96.776 108.638 82.532 117.125 72.701 118.143C66.35 118.789 57.561 116.589 60.112 104.847C62.663 93.105 63.648 90.419 63.648 90.419H78.5L76.223 99.33C76.223 99.33 95.517 93.814 96.309 93.135Z" fill="#F9D2DD"/>
<path d="M67.751 102.16C67.7336 102.107 67.7372 102.05 67.7608 102C67.7844 101.95 67.8264 101.911 67.878 101.891L76.153 99.133C76.2054 99.116 76.2624 99.1196 76.3122 99.1432C76.362 99.1668 76.401 99.2086 76.421 99.26C76.4383 99.3126 76.4348 99.3698 76.4112 99.4198C76.3875 99.4699 76.3456 99.509 76.294 99.529L68.019 102.287C67.9971 102.298 67.9725 102.303 67.948 102.301C67.9047 102.3 67.8627 102.286 67.8275 102.261C67.7923 102.236 67.7656 102.201 67.751 102.16Z" fill="#1F1F39"/>
<path d="M103.834 94.845C103.806 94.7953 103.797 94.7367 103.81 94.681C103.824 94.6253 103.857 94.5767 103.905 94.545L107.936 92.074C107.986 92.0457 108.044 92.0372 108.1 92.0504C108.156 92.0636 108.204 92.0974 108.236 92.145C108.264 92.1947 108.273 92.2533 108.26 92.309C108.246 92.3647 108.213 92.4133 108.165 92.445L104.131 94.917C104.095 94.9329 104.057 94.9424 104.018 94.945C103.982 94.9432 103.946 94.9332 103.915 94.9159C103.883 94.8986 103.855 94.8744 103.834 94.845Z" fill="#1F1F39"/>
<path d="M106.239 98.523C106.211 98.4733 106.202 98.4147 106.215 98.359C106.229 98.3033 106.262 98.2547 106.31 98.223L110.341 95.752C110.391 95.7237 110.449 95.7152 110.505 95.7284C110.561 95.7416 110.609 95.7754 110.641 95.823C110.669 95.8727 110.678 95.9313 110.665 95.987C110.651 96.0427 110.618 96.0913 110.57 96.123L106.536 98.595C106.5 98.6109 106.462 98.6204 106.423 98.623C106.387 98.6212 106.351 98.6112 106.32 98.5939C106.288 98.5766 106.26 98.5524 106.239 98.523Z" fill="#1F1F39"/>
<path d="M102.405 90.122C102.349 91.4091 101.9 92.6481 101.118 93.672C103.409 93.506 104.824 91.306 105.602 89.57C104.505 89.4125 103.386 89.6057 102.405 90.122Z" fill="#F9ACC0"/>
<path d="M78.487 90.419H63.634C63.634 90.419 63.238 91.48 62.319 95.2L78.091 91.989L78.487 90.419Z" fill="#F9ACC0"/>
<path d="M106.366 86.43C106.332 86.4138 106.302 86.3907 106.278 86.3621C106.253 86.3335 106.235 86.3002 106.224 86.2642C106.214 86.2281 106.211 86.1903 106.216 86.153C106.221 86.1158 106.233 86.08 106.253 86.048L107.813 83.078C107.829 83.0447 107.852 83.015 107.88 82.991C107.909 82.967 107.942 82.9492 107.977 82.9385C108.013 82.9279 108.05 82.9248 108.087 82.9293C108.124 82.9339 108.159 82.946 108.191 82.965C108.225 82.9812 108.255 83.0043 108.279 83.0329C108.304 83.0614 108.322 83.0948 108.333 83.1308C108.343 83.1669 108.346 83.2047 108.341 83.2419C108.336 83.2792 108.324 83.315 108.304 83.347L106.748 86.317C106.72 86.3592 106.682 86.3941 106.638 86.4186C106.593 86.4432 106.544 86.4567 106.493 86.458C106.449 86.4554 106.407 86.446 106.366 86.43Z" fill="#EAEAFF"/>
<path d="M90.807 71.818L89.534 67.151C89.5232 67.1146 89.5199 67.0765 89.5242 67.0388C89.5285 67.0011 89.5403 66.9647 89.559 66.9316C89.5777 66.8986 89.6028 66.8697 89.6328 66.8466C89.6629 66.8234 89.6973 66.8066 89.734 66.797C89.7704 66.7863 89.8085 66.7829 89.8462 66.7872C89.8839 66.7915 89.9203 66.8034 89.9534 66.822C89.9864 66.8407 90.0153 66.8658 90.0384 66.8958C90.0616 66.9259 90.0784 66.9603 90.088 66.997L91.359 71.663C91.3697 71.6994 91.3731 71.7375 91.3688 71.7752C91.3645 71.8129 91.3526 71.8493 91.334 71.8824C91.3153 71.9154 91.2902 71.9443 91.2602 71.9675C91.2301 71.9906 91.1957 72.0074 91.159 72.017C91.1319 72.0275 91.103 72.0323 91.074 72.031C91.0119 72.0312 90.9516 72.0101 90.9031 71.9714C90.8545 71.9327 90.8206 71.8786 90.807 71.818Z" fill="#EAEAFF"/>
<path d="M96.917 79.513C96.8484 79.4838 96.7939 79.4291 96.765 79.3604C96.7361 79.2917 96.735 79.2145 96.762 79.145L98.459 74.76C98.4882 74.6914 98.5429 74.6369 98.6116 74.608C98.6803 74.5791 98.7575 74.578 98.827 74.605C98.8953 74.6342 98.9496 74.6888 98.9785 74.7572C99.0074 74.8257 99.0087 74.9027 98.982 74.972L97.285 79.357C97.2606 79.4077 97.2225 79.4505 97.1749 79.4806C97.1273 79.5107 97.0723 79.5267 97.016 79.527C96.9824 79.5293 96.9486 79.5245 96.917 79.513Z" fill="#EAEAFF"/>
<path d="M86.153 89.698L84.172 85.878C84.1409 85.8107 84.1373 85.7339 84.1619 85.664C84.1865 85.5941 84.2373 85.5365 84.3037 85.5034C84.3701 85.4704 84.4467 85.4645 84.5173 85.487C84.5879 85.5095 84.647 85.5587 84.682 85.624L86.662 89.443C86.679 89.4764 86.6891 89.5128 86.6919 89.5501C86.6947 89.5875 86.6901 89.625 86.6783 89.6605C86.6665 89.6961 86.6477 89.7289 86.6231 89.7571C86.5985 89.7854 86.5686 89.8084 86.535 89.825C86.4944 89.841 86.4515 89.8504 86.408 89.853C86.3557 89.8517 86.3046 89.8366 86.2599 89.8095C86.2151 89.7823 86.1783 89.7438 86.153 89.698Z" fill="#EAEAFF"/>
<path d="M117.611 97.121C117.583 97.0955 117.562 97.0645 117.547 97.0301C117.532 96.9957 117.524 96.9585 117.524 96.921C117.524 96.8835 117.532 96.8463 117.547 96.8119C117.562 96.7775 117.583 96.7466 117.611 96.721L119.733 94.606C119.759 94.5785 119.789 94.5566 119.824 94.5416C119.858 94.5266 119.895 94.5188 119.933 94.5188C119.971 94.5188 120.008 94.5266 120.042 94.5416C120.076 94.5566 120.107 94.5785 120.133 94.606C120.16 94.6316 120.182 94.6625 120.197 94.6969C120.212 94.7313 120.22 94.7685 120.22 94.806C120.22 94.8435 120.212 94.8807 120.197 94.9151C120.182 94.9495 120.16 94.9805 120.133 95.006L118.007 97.121C117.981 97.1478 117.95 97.1692 117.916 97.1838C117.881 97.1984 117.844 97.2059 117.807 97.206C117.77 97.2054 117.734 97.1976 117.701 97.183C117.667 97.1684 117.636 97.1474 117.611 97.121Z" fill="#EAEAFF"/>
<path d="M118.715 108.977L116.452 106.148C116.427 106.12 116.409 106.086 116.397 106.05C116.386 106.014 116.382 105.976 116.386 105.939C116.39 105.901 116.402 105.865 116.42 105.832C116.439 105.799 116.464 105.771 116.494 105.748C116.523 105.725 116.556 105.707 116.591 105.697C116.626 105.686 116.664 105.683 116.7 105.688C116.737 105.692 116.772 105.704 116.804 105.722C116.837 105.74 116.865 105.765 116.887 105.794L119.154 108.623C119.179 108.651 119.197 108.685 119.209 108.721C119.22 108.757 119.224 108.795 119.22 108.832C119.216 108.87 119.204 108.906 119.186 108.939C119.167 108.972 119.142 109 119.112 109.023C119.091 109.047 119.065 109.066 119.035 109.079C119.006 109.091 118.974 109.096 118.942 109.094C118.898 109.092 118.855 109.081 118.815 109.061C118.776 109.041 118.742 109.012 118.715 108.977Z" fill="#EAEAFF"/>
<path d="M101.797 112.57C101.735 112.526 101.693 112.459 101.68 112.385C101.666 112.31 101.683 112.233 101.726 112.17L103.848 109.203C103.892 109.141 103.959 109.099 104.033 109.086C104.108 109.072 104.185 109.089 104.248 109.132C104.31 109.176 104.352 109.243 104.365 109.317C104.379 109.392 104.362 109.469 104.319 109.532L102.193 112.499C102.173 112.532 102.146 112.56 102.114 112.581C102.083 112.603 102.047 112.617 102.009 112.624C101.971 112.631 101.932 112.63 101.895 112.62C101.858 112.611 101.823 112.594 101.793 112.57H101.797Z" fill="#EAEAFF"/>
<path d="M129.451 106.247C129.38 106.22 129.322 106.167 129.291 106.098C129.259 106.029 129.255 105.95 129.281 105.879L130.696 101.918C130.723 101.847 130.776 101.789 130.846 101.757C130.88 101.741 130.917 101.733 130.954 101.731C130.992 101.73 131.03 101.736 131.065 101.749C131.1 101.762 131.133 101.782 131.16 101.808C131.188 101.833 131.21 101.864 131.226 101.898C131.242 101.933 131.25 101.97 131.252 102.007C131.253 102.045 131.247 102.083 131.234 102.118L129.819 106.077C129.798 106.131 129.761 106.178 129.713 106.21C129.665 106.243 129.608 106.261 129.55 106.261C129.516 106.263 129.483 106.259 129.451 106.247Z" fill="#EAEAFF"/>
<path d="M119.224 80.235V75.284C119.224 75.2089 119.254 75.137 119.307 75.0839C119.36 75.0308 119.432 75.001 119.507 75.001C119.582 75.001 119.654 75.0308 119.707 75.0839C119.76 75.137 119.79 75.2089 119.79 75.284V80.235C119.79 80.3101 119.76 80.382 119.707 80.4351C119.654 80.4882 119.582 80.518 119.507 80.518C119.432 80.518 119.36 80.4882 119.307 80.4351C119.254 80.382 119.224 80.3101 119.224 80.235V80.235Z" fill="#EAEAFF"/>
<path d="M109.619 68.848L108.912 66.16C108.902 66.1247 108.899 66.0878 108.904 66.0515C108.909 66.0152 108.921 65.9801 108.939 65.9485C108.958 65.9169 108.982 65.8893 109.012 65.8674C109.041 65.8455 109.074 65.8297 109.11 65.821C109.145 65.8111 109.182 65.8085 109.219 65.8133C109.255 65.8181 109.29 65.8302 109.322 65.8488C109.354 65.8675 109.381 65.8924 109.403 65.922C109.425 65.9516 109.441 65.9852 109.449 66.021L110.157 68.711C110.167 68.7464 110.17 68.7834 110.165 68.8199C110.16 68.8563 110.148 68.8914 110.129 68.9231C110.111 68.9547 110.086 68.9823 110.056 69.0041C110.026 69.0259 109.993 69.0415 109.957 69.05C109.935 69.0614 109.911 69.0663 109.886 69.064C109.824 69.064 109.763 69.0426 109.714 69.0032C109.666 68.9639 109.632 68.9091 109.619 68.848Z" fill="#EAEAFF"/>
<path d="M127.895 69.046C127.824 69.0192 127.766 68.9656 127.735 68.8968C127.703 68.828 127.699 68.7494 127.725 68.678L128.716 65.99C128.743 65.9187 128.796 65.8608 128.865 65.8291C128.9 65.8134 128.937 65.8046 128.974 65.8032C129.012 65.8018 129.05 65.8079 129.085 65.821C129.12 65.8341 129.153 65.8541 129.18 65.8797C129.208 65.9054 129.23 65.9362 129.246 65.9705C129.262 66.0048 129.27 66.0418 129.272 66.0794C129.273 66.1171 129.267 66.1547 129.254 66.19L128.263 68.876C128.242 68.9301 128.205 68.9766 128.157 69.0094C128.109 69.0422 128.052 69.0598 127.994 69.06C127.96 69.0623 127.927 69.0575 127.895 69.046Z" fill="#EAEAFF"/>
<path d="M70.282 79.259L70.141 76.15C70.1392 76.0751 70.1661 76.0024 70.216 75.9467C70.266 75.8909 70.3354 75.8563 70.41 75.85C70.4849 75.8482 70.5576 75.875 70.6133 75.925C70.6691 75.975 70.7037 76.0444 70.71 76.119L70.848 79.231C70.8481 79.3077 70.8189 79.3815 70.7662 79.4373C70.7136 79.4931 70.6416 79.5267 70.565 79.531C70.4917 79.5316 70.421 79.5034 70.3682 79.4526C70.3153 79.4018 70.2844 79.3323 70.282 79.259Z" fill="#EAEAFF"/>
<path d="M144.303 78.976L140.243 78.254C140.206 78.2486 140.171 78.2358 140.139 78.2163C140.107 78.1969 140.08 78.1712 140.058 78.1408C140.037 78.1105 140.021 78.076 140.013 78.0396C140.005 78.0032 140.005 77.9656 140.012 77.929C140.017 77.8916 140.03 77.8557 140.05 77.8236C140.07 77.7914 140.096 77.7636 140.127 77.742C140.158 77.7203 140.193 77.7053 140.23 77.6977C140.267 77.6901 140.305 77.6902 140.342 77.698L144.402 78.424C144.47 78.4356 144.532 78.4724 144.574 78.5269C144.617 78.5815 144.638 78.6501 144.632 78.7191C144.627 78.7882 144.596 78.8528 144.546 78.9003C144.496 78.9478 144.429 78.9748 144.36 78.976H144.303Z" fill="#EAEAFF"/>
<path d="M133.693 92.018C133.689 91.9806 133.693 91.9428 133.703 91.9068C133.714 91.8708 133.732 91.8373 133.756 91.8082C133.78 91.7791 133.809 91.755 133.842 91.7373C133.875 91.7196 133.912 91.7086 133.949 91.705L149.735 90.305C149.772 90.3012 149.81 90.3048 149.846 90.3155C149.882 90.3262 149.915 90.3439 149.944 90.3675C149.973 90.3912 149.997 90.4203 150.015 90.4532C150.033 90.4862 150.044 90.5223 150.047 90.5595C150.051 90.5967 150.048 90.6343 150.037 90.6702C150.026 90.7061 150.009 90.7394 149.985 90.7685C149.961 90.7975 149.932 90.8216 149.899 90.8393C149.866 90.8571 149.83 90.8682 149.793 90.872L134.005 92.258C133.997 92.2656 133.988 92.2705 133.977 92.272C133.907 92.2713 133.839 92.2452 133.787 92.1984C133.735 92.1517 133.701 92.0876 133.693 92.018Z" fill="#EAEAFF"/>
<path d="M63.323 88.184C63.3212 88.1091 63.3481 88.0364 63.398 87.9807C63.448 87.9249 63.5174 87.8903 63.592 87.884L79.052 87.378C79.1269 87.3762 79.1996 87.403 79.2554 87.453C79.3111 87.503 79.3457 87.5724 79.352 87.647C79.3538 87.7219 79.327 87.7946 79.277 87.8503C79.227 87.9061 79.1576 87.9407 79.083 87.947L63.606 88.453C63.5332 88.4536 63.463 88.4259 63.4102 88.3757C63.3574 88.3255 63.3261 88.2568 63.323 88.184Z" fill="#EAEAFF"/>
<path d="M78.458 90.334C78.431 90.3282 78.4055 90.3167 78.3834 90.3003C78.3612 90.2838 78.3428 90.2628 78.3294 90.2386C78.316 90.2145 78.308 90.1877 78.3059 90.1602C78.3037 90.1326 78.3075 90.1049 78.317 90.079L82.136 76.359C82.1427 76.3326 82.1546 76.3078 82.1712 76.2861C82.1878 76.2645 82.2086 76.2465 82.2324 76.2332C82.2562 76.2199 82.2824 76.2116 82.3095 76.2088C82.3366 76.206 82.364 76.2088 82.39 76.217C82.417 76.2228 82.4425 76.2343 82.4647 76.2507C82.4869 76.2672 82.5053 76.2882 82.5187 76.3124C82.532 76.3365 82.54 76.3633 82.5422 76.3908C82.5443 76.4184 82.5405 76.4461 82.531 76.472L78.713 90.193C78.7029 90.2381 78.6774 90.2783 78.6409 90.3068C78.6045 90.3352 78.5593 90.3501 78.513 90.349C78.4935 90.3505 78.4741 90.3452 78.458 90.334Z" fill="#1F1F39"/>
<path d="M134.373 94.507L128.715 76.119C128.7 76.0645 128.707 76.0066 128.733 75.9567C128.76 75.9068 128.804 75.8687 128.857 75.85C128.911 75.8358 128.969 75.8424 129.019 75.8687C129.068 75.895 129.106 75.939 129.125 75.992L134.783 94.38C134.798 94.4344 134.791 94.4922 134.765 94.542C134.739 94.5919 134.695 94.6301 134.642 94.649C134.62 94.6592 134.595 94.664 134.571 94.663C134.525 94.6623 134.481 94.6466 134.446 94.6184C134.41 94.5902 134.384 94.5511 134.373 94.507Z" fill="#1F1F39"/>
<path d="M32.851 5.463H5.677C2.91558 5.463 0.677002 7.70157 0.677002 10.463V44.562C0.677002 47.3234 2.91558 49.562 5.677 49.562H32.851C35.6124 49.562 37.851 47.3234 37.851 44.562V10.463C37.851 7.70157 35.6124 5.463 32.851 5.463Z" fill="white"/>
<path d="M29.544 36.173H8.98401V38.417H29.544V36.173Z" fill="#63926C"/>
<path d="M25.976 40.968H12.553V43.212H25.976V40.968Z" fill="#8FAC94"/>
<path d="M19.264 30.966C24.4356 30.966 28.628 26.7736 28.628 21.602C28.628 16.4304 24.4356 12.238 19.264 12.238C14.0924 12.238 9.90002 16.4304 9.90002 21.602C9.90002 26.7736 14.0924 30.966 19.264 30.966Z" fill="#C2E3DF"/>
<path d="M18.191 22.471L22.391 18.301L23.602 19.562L18.191 24.901L14.926 21.584L16.079 20.413L18.191 22.471Z" fill="#63926C"/>
</svg>
